<mxfile host="app.diagrams.net" modified="2022-11-06T12:35:27.680Z" agent="5.0 (Windows NT 10.0; Win64; x64) AppleWebKit/537.36 (KHTML, like Gecko) Chrome/107.0.0.0 Safari/537.36" etag="1K90-3kgYVyplUePHeEg" version="20.5.2" type="github">
  <diagram id="MGJxMbVjlbr7KXQ5UN1Q" name="Page-1">
    <mxGraphModel dx="2193" dy="1960" grid="0" gridSize="10" guides="1" tooltips="1" connect="1" arrows="1" fold="1" page="1" pageScale="1" pageWidth="850" pageHeight="1100" background="#FFFAEF" math="0" shadow="0">
      <root>
        <mxCell id="0" />
        <mxCell id="1" parent="0" />
        <mxCell id="DJ8g7D3eGbYBYhp7FH4V-6" style="edgeStyle=orthogonalEdgeStyle;rounded=0;orthogonalLoop=1;jettySize=auto;html=1;entryX=0.25;entryY=0;entryDx=0;entryDy=0;fontFamily=Space Grotesk;fontSource=https%3A%2F%2Ffonts.googleapis.com%2Fcss%3Ffamily%3DSpace%2BGrotesk;fontSize=27;strokeWidth=7;" parent="1" source="DJ8g7D3eGbYBYhp7FH4V-1" target="DJ8g7D3eGbYBYhp7FH4V-5" edge="1">
          <mxGeometry relative="1" as="geometry" />
        </mxCell>
        <mxCell id="DJ8g7D3eGbYBYhp7FH4V-1" value="Pulse rate/ SPO2 sensor" style="rounded=0;whiteSpace=wrap;html=1;fillColor=#FFFAEF;strokeWidth=7;fontFamily=Space Grotesk;fontSource=https%3A%2F%2Ffonts.googleapis.com%2Fcss%3Ffamily%3DSpace%2BGrotesk;fontSize=27;align=left;fontStyle=1" parent="1" vertex="1">
          <mxGeometry x="74" y="-349" width="164" height="102" as="geometry" />
        </mxCell>
        <mxCell id="DJ8g7D3eGbYBYhp7FH4V-7" style="edgeStyle=orthogonalEdgeStyle;rounded=0;orthogonalLoop=1;jettySize=auto;html=1;entryX=0;entryY=0.5;entryDx=0;entryDy=0;fontFamily=Space Grotesk;fontSource=https%3A%2F%2Ffonts.googleapis.com%2Fcss%3Ffamily%3DSpace%2BGrotesk;fontSize=27;strokeWidth=7;" parent="1" source="DJ8g7D3eGbYBYhp7FH4V-3" target="DJ8g7D3eGbYBYhp7FH4V-5" edge="1">
          <mxGeometry relative="1" as="geometry" />
        </mxCell>
        <mxCell id="DJ8g7D3eGbYBYhp7FH4V-3" value="Temporature/ Blood pressure sensor" style="rounded=0;whiteSpace=wrap;html=1;fillColor=#FFFAEF;strokeWidth=7;fontFamily=Space Grotesk;fontSource=https%3A%2F%2Ffonts.googleapis.com%2Fcss%3Ffamily%3DSpace%2BGrotesk;fontSize=27;align=left;fontStyle=1" parent="1" vertex="1">
          <mxGeometry x="74" y="-198" width="164" height="102" as="geometry" />
        </mxCell>
        <mxCell id="DJ8g7D3eGbYBYhp7FH4V-8" style="edgeStyle=orthogonalEdgeStyle;rounded=0;orthogonalLoop=1;jettySize=auto;html=1;entryX=0.25;entryY=1;entryDx=0;entryDy=0;fontFamily=Space Grotesk;fontSource=https%3A%2F%2Ffonts.googleapis.com%2Fcss%3Ffamily%3DSpace%2BGrotesk;fontSize=27;strokeWidth=7;" parent="1" source="DJ8g7D3eGbYBYhp7FH4V-4" target="DJ8g7D3eGbYBYhp7FH4V-5" edge="1">
          <mxGeometry relative="1" as="geometry" />
        </mxCell>
        <mxCell id="DJ8g7D3eGbYBYhp7FH4V-4" value="RFID reader" style="rounded=0;whiteSpace=wrap;html=1;fillColor=#FFFAEF;strokeWidth=7;fontFamily=Space Grotesk;fontSource=https%3A%2F%2Ffonts.googleapis.com%2Fcss%3Ffamily%3DSpace%2BGrotesk;fontSize=27;align=left;fontStyle=1" parent="1" vertex="1">
          <mxGeometry x="72" y="-56" width="164" height="102" as="geometry" />
        </mxCell>
        <mxCell id="DJ8g7D3eGbYBYhp7FH4V-10" style="edgeStyle=orthogonalEdgeStyle;rounded=0;orthogonalLoop=1;jettySize=auto;html=1;exitX=0.75;exitY=1;exitDx=0;exitDy=0;entryX=0.5;entryY=0;entryDx=0;entryDy=0;strokeWidth=7;fontFamily=Space Grotesk;fontSource=https%3A%2F%2Ffonts.googleapis.com%2Fcss%3Ffamily%3DSpace%2BGrotesk;fontSize=27;" parent="1" source="DJ8g7D3eGbYBYhp7FH4V-5" target="DJ8g7D3eGbYBYhp7FH4V-9" edge="1">
          <mxGeometry relative="1" as="geometry" />
        </mxCell>
        <mxCell id="DJ8g7D3eGbYBYhp7FH4V-12" style="edgeStyle=orthogonalEdgeStyle;rounded=0;orthogonalLoop=1;jettySize=auto;html=1;entryX=0;entryY=0.5;entryDx=0;entryDy=0;strokeWidth=7;fontFamily=Space Grotesk;fontSource=https%3A%2F%2Ffonts.googleapis.com%2Fcss%3Ffamily%3DSpace%2BGrotesk;fontSize=27;" parent="1" source="DJ8g7D3eGbYBYhp7FH4V-5" target="DJ8g7D3eGbYBYhp7FH4V-11" edge="1">
          <mxGeometry relative="1" as="geometry" />
        </mxCell>
        <mxCell id="DJ8g7D3eGbYBYhp7FH4V-5" value="Arduino controller" style="rounded=0;whiteSpace=wrap;html=1;fillColor=#FFFAEF;strokeWidth=7;fontFamily=Space Grotesk;fontSource=https%3A%2F%2Ffonts.googleapis.com%2Fcss%3Ffamily%3DSpace%2BGrotesk;fontSize=27;align=center;fontStyle=1" parent="1" vertex="1">
          <mxGeometry x="326" y="-198" width="214" height="102" as="geometry" />
        </mxCell>
        <mxCell id="DJ8g7D3eGbYBYhp7FH4V-9" value="LCD display" style="rounded=0;whiteSpace=wrap;html=1;fillColor=#FFFAEF;strokeWidth=7;fontFamily=Space Grotesk;fontSource=https%3A%2F%2Ffonts.googleapis.com%2Fcss%3Ffamily%3DSpace%2BGrotesk;fontSize=27;align=center;fontStyle=1" parent="1" vertex="1">
          <mxGeometry x="476" y="2" width="154" height="94" as="geometry" />
        </mxCell>
        <mxCell id="DJ8g7D3eGbYBYhp7FH4V-14" style="edgeStyle=orthogonalEdgeStyle;rounded=0;orthogonalLoop=1;jettySize=auto;html=1;entryX=0.55;entryY=0.95;entryDx=0;entryDy=0;entryPerimeter=0;strokeWidth=7;fontFamily=Space Grotesk;fontSource=https%3A%2F%2Ffonts.googleapis.com%2Fcss%3Ffamily%3DSpace%2BGrotesk;fontSize=27;" parent="1" source="DJ8g7D3eGbYBYhp7FH4V-11" target="DJ8g7D3eGbYBYhp7FH4V-13" edge="1">
          <mxGeometry relative="1" as="geometry" />
        </mxCell>
        <mxCell id="DJ8g7D3eGbYBYhp7FH4V-11" value="Wifi module" style="rounded=0;whiteSpace=wrap;html=1;fillColor=#FFFAEF;strokeWidth=7;fontFamily=Space Grotesk;fontSource=https%3A%2F%2Ffonts.googleapis.com%2Fcss%3Ffamily%3DSpace%2BGrotesk;fontSize=27;align=center;fontStyle=1" parent="1" vertex="1">
          <mxGeometry x="490" y="-329" width="154" height="94" as="geometry" />
        </mxCell>
        <mxCell id="DJ8g7D3eGbYBYhp7FH4V-16" style="edgeStyle=orthogonalEdgeStyle;rounded=0;orthogonalLoop=1;jettySize=auto;html=1;entryX=1;entryY=0.5;entryDx=0;entryDy=0;strokeWidth=7;fontFamily=Space Grotesk;fontSource=https%3A%2F%2Ffonts.googleapis.com%2Fcss%3Ffamily%3DSpace%2BGrotesk;fontSize=27;" parent="1" source="DJ8g7D3eGbYBYhp7FH4V-13" target="DJ8g7D3eGbYBYhp7FH4V-15" edge="1">
          <mxGeometry relative="1" as="geometry" />
        </mxCell>
        <mxCell id="DJ8g7D3eGbYBYhp7FH4V-19" style="edgeStyle=orthogonalEdgeStyle;rounded=0;orthogonalLoop=1;jettySize=auto;html=1;exitX=0.4;exitY=0.1;exitDx=0;exitDy=0;exitPerimeter=0;entryX=0.25;entryY=1;entryDx=0;entryDy=0;strokeWidth=7;fontFamily=Space Grotesk;fontSource=https%3A%2F%2Ffonts.googleapis.com%2Fcss%3Ffamily%3DSpace%2BGrotesk;fontSize=27;" parent="1" source="DJ8g7D3eGbYBYhp7FH4V-13" target="DJ8g7D3eGbYBYhp7FH4V-18" edge="1">
          <mxGeometry relative="1" as="geometry" />
        </mxCell>
        <mxCell id="DJ8g7D3eGbYBYhp7FH4V-13" value="Server" style="ellipse;shape=cloud;whiteSpace=wrap;html=1;strokeWidth=7;fontFamily=Space Grotesk;fontSource=https%3A%2F%2Ffonts.googleapis.com%2Fcss%3Ffamily%3DSpace%2BGrotesk;fontSize=27;fillColor=#FFFAEF;fontStyle=1" parent="1" vertex="1">
          <mxGeometry x="499" y="-538" width="245" height="163.33" as="geometry" />
        </mxCell>
        <mxCell id="DJ8g7D3eGbYBYhp7FH4V-15" value="Mobile/web application" style="rounded=0;whiteSpace=wrap;html=1;fillColor=#FFFAEF;strokeWidth=7;fontFamily=Space Grotesk;fontSource=https%3A%2F%2Ffonts.googleapis.com%2Fcss%3Ffamily%3DSpace%2BGrotesk;fontSize=27;align=left;fontStyle=1" parent="1" vertex="1">
          <mxGeometry x="224.75" y="-573" width="154" height="94" as="geometry" />
        </mxCell>
        <mxCell id="DJ8g7D3eGbYBYhp7FH4V-18" value="Hospital" style="rounded=0;whiteSpace=wrap;html=1;fillColor=#FFFAEF;strokeWidth=7;fontFamily=Space Grotesk;fontSource=https%3A%2F%2Ffonts.googleapis.com%2Fcss%3Ffamily%3DSpace%2BGrotesk;fontSize=27;align=left;fontStyle=1" parent="1" vertex="1">
          <mxGeometry x="561" y="-665" width="154" height="94" as="geometry" />
        </mxCell>
        <mxCell id="ZeVpuo8kQjR2G3YYarO5-6" style="edgeStyle=orthogonalEdgeStyle;rounded=0;orthogonalLoop=1;jettySize=auto;html=1;entryX=0.5;entryY=0;entryDx=0;entryDy=0;fontFamily=Space Grotesk;fontSource=https%3A%2F%2Ffonts.googleapis.com%2Fcss%3Ffamily%3DSpace%2BGrotesk;fontSize=27;strokeWidth=7;" parent="1" source="ZeVpuo8kQjR2G3YYarO5-1" target="ZeVpuo8kQjR2G3YYarO5-3" edge="1">
          <mxGeometry relative="1" as="geometry" />
        </mxCell>
        <mxCell id="ZeVpuo8kQjR2G3YYarO5-1" value="&lt;font face=&quot;Space Grotesk&quot; style=&quot;font-size: 27px;&quot;&gt;Start&lt;/font&gt;" style="ellipse;whiteSpace=wrap;html=1;fillColor=#FFFAEF;strokeWidth=7;fontSize=27;fontStyle=1" parent="1" vertex="1">
          <mxGeometry x="305" y="874" width="120" height="80" as="geometry" />
        </mxCell>
        <mxCell id="4AYZdTKbMCxme8TFbNy_-22" style="edgeStyle=orthogonalEdgeStyle;rounded=0;orthogonalLoop=1;jettySize=auto;html=1;entryX=1;entryY=0.5;entryDx=0;entryDy=0;labelBackgroundColor=none;strokeWidth=7;fontFamily=Space Grotesk;fontSource=https%3A%2F%2Ffonts.googleapis.com%2Fcss%3Ffamily%3DSpace%2BGrotesk;fontSize=27;" parent="1" source="ZeVpuo8kQjR2G3YYarO5-2" target="ZeVpuo8kQjR2G3YYarO5-1" edge="1">
          <mxGeometry relative="1" as="geometry" />
        </mxCell>
        <mxCell id="ZeVpuo8kQjR2G3YYarO5-2" value="&lt;font face=&quot;Space Grotesk&quot; style=&quot;font-size: 27px;&quot;&gt;End&lt;/font&gt;" style="ellipse;whiteSpace=wrap;html=1;fillColor=#FFFAEF;strokeWidth=7;fontSize=27;fontStyle=1" parent="1" vertex="1">
          <mxGeometry x="1108" y="908" width="120" height="80" as="geometry" />
        </mxCell>
        <mxCell id="ZeVpuo8kQjR2G3YYarO5-7" style="edgeStyle=orthogonalEdgeStyle;rounded=0;orthogonalLoop=1;jettySize=auto;html=1;entryX=0;entryY=0.5;entryDx=0;entryDy=0;strokeWidth=7;fontFamily=Space Grotesk;fontSource=https%3A%2F%2Ffonts.googleapis.com%2Fcss%3Ffamily%3DSpace%2BGrotesk;fontSize=27;" parent="1" source="ZeVpuo8kQjR2G3YYarO5-3" target="ZeVpuo8kQjR2G3YYarO5-17" edge="1">
          <mxGeometry relative="1" as="geometry" />
        </mxCell>
        <mxCell id="ZeVpuo8kQjR2G3YYarO5-3" value="ssid = &quot;A&quot;&lt;br style=&quot;font-size: 27px;&quot;&gt;password = &quot;12345678&quot;&lt;br style=&quot;font-size: 27px;&quot;&gt;pox = pulseOximeter&lt;br&gt;pulse_data[10]&lt;br&gt;spo2_data[10]&lt;br&gt;pulse_avg = 0&lt;br&gt;spo2_avg = 0&lt;br&gt;status = &quot;&quot;&lt;br&gt;REPORTING_PERIOD_MS = 3000" style="rounded=0;whiteSpace=wrap;html=1;fillColor=#FFFAEF;strokeWidth=7;fontFamily=Space Grotesk;fontSource=https%3A%2F%2Ffonts.googleapis.com%2Fcss%3Ffamily%3DSpace%2BGrotesk;fontSize=27;align=center;fontStyle=1" parent="1" vertex="1">
          <mxGeometry x="157" y="992" width="416" height="319" as="geometry" />
        </mxCell>
        <mxCell id="ZeVpuo8kQjR2G3YYarO5-14" style="edgeStyle=orthogonalEdgeStyle;rounded=0;orthogonalLoop=1;jettySize=auto;html=1;entryX=0.5;entryY=0;entryDx=0;entryDy=0;labelBackgroundColor=none;strokeWidth=7;fontFamily=Space Grotesk;fontSource=https%3A%2F%2Ffonts.googleapis.com%2Fcss%3Ffamily%3DSpace%2BGrotesk;fontSize=27;" parent="1" source="ZeVpuo8kQjR2G3YYarO5-4" target="ZeVpuo8kQjR2G3YYarO5-15" edge="1">
          <mxGeometry relative="1" as="geometry">
            <mxPoint x="367" y="1894" as="targetPoint" />
          </mxGeometry>
        </mxCell>
        <mxCell id="ZeVpuo8kQjR2G3YYarO5-4" value="count = -2&lt;br style=&quot;font-size: 27px;&quot;&gt;tag = &quot;&quot;&lt;br style=&quot;font-size: 27px;&quot;&gt;student_id = &quot;&quot;" style="rounded=0;whiteSpace=wrap;html=1;fillColor=#FFFAEF;strokeWidth=7;fontFamily=Space Grotesk;fontSource=https%3A%2F%2Ffonts.googleapis.com%2Fcss%3Ffamily%3DSpace%2BGrotesk;fontSize=27;align=center;fontStyle=1" parent="1" vertex="1">
          <mxGeometry x="131.5" y="1636" width="336" height="112" as="geometry" />
        </mxCell>
        <mxCell id="ZeVpuo8kQjR2G3YYarO5-8" value="False" style="edgeStyle=orthogonalEdgeStyle;rounded=0;orthogonalLoop=1;jettySize=auto;html=1;entryX=0;entryY=1;entryDx=0;entryDy=0;strokeWidth=7;fontFamily=Space Grotesk;fontSource=https%3A%2F%2Ffonts.googleapis.com%2Fcss%3Ffamily%3DSpace%2BGrotesk;fontSize=27;labelBackgroundColor=none;verticalAlign=bottom;fontStyle=1" parent="1" source="ZeVpuo8kQjR2G3YYarO5-5" target="ZeVpuo8kQjR2G3YYarO5-2" edge="1">
          <mxGeometry relative="1" as="geometry" />
        </mxCell>
        <mxCell id="ZeVpuo8kQjR2G3YYarO5-10" value="True" style="edgeStyle=orthogonalEdgeStyle;rounded=0;orthogonalLoop=1;jettySize=auto;html=1;entryX=0.5;entryY=0;entryDx=0;entryDy=0;labelBackgroundColor=none;strokeWidth=7;fontFamily=Space Grotesk;fontSource=https%3A%2F%2Ffonts.googleapis.com%2Fcss%3Ffamily%3DSpace%2BGrotesk;fontSize=27;labelPosition=right;verticalLabelPosition=middle;align=left;verticalAlign=middle;fontStyle=1" parent="1" source="ZeVpuo8kQjR2G3YYarO5-5" target="ZeVpuo8kQjR2G3YYarO5-4" edge="1">
          <mxGeometry relative="1" as="geometry" />
        </mxCell>
        <mxCell id="ZeVpuo8kQjR2G3YYarO5-5" value="pox.begin()?" style="rhombus;whiteSpace=wrap;html=1;strokeColor=#291D00;strokeWidth=7;fontFamily=Space Grotesk;fontSource=https%3A%2F%2Ffonts.googleapis.com%2Fcss%3Ffamily%3DSpace%2BGrotesk;fontSize=27;fillColor=#FFFAEF;fontStyle=1" parent="1" vertex="1">
          <mxGeometry x="114" y="1388" width="371" height="182" as="geometry" />
        </mxCell>
        <mxCell id="ZeVpuo8kQjR2G3YYarO5-12" style="edgeStyle=orthogonalEdgeStyle;rounded=0;orthogonalLoop=1;jettySize=auto;html=1;entryX=0.5;entryY=0;entryDx=0;entryDy=0;labelBackgroundColor=none;strokeWidth=7;fontFamily=Space Grotesk;fontSource=https%3A%2F%2Ffonts.googleapis.com%2Fcss%3Ffamily%3DSpace%2BGrotesk;fontSize=27;" parent="1" source="ZeVpuo8kQjR2G3YYarO5-11" target="ZeVpuo8kQjR2G3YYarO5-5" edge="1">
          <mxGeometry relative="1" as="geometry" />
        </mxCell>
        <mxCell id="ZeVpuo8kQjR2G3YYarO5-11" value="&lt;span style=&quot;font-size: 27px; font-weight: 700;&quot;&gt;lcd.print(&quot;Welcome&quot;)&lt;/span&gt;" style="shape=parallelogram;perimeter=parallelogramPerimeter;whiteSpace=wrap;html=1;fixedSize=1;strokeColor=#291D00;strokeWidth=7;fontFamily=Space Grotesk;fontSource=https%3A%2F%2Ffonts.googleapis.com%2Fcss%3Ffamily%3DSpace%2BGrotesk;fontSize=27;fillColor=#FFFAEF;" parent="1" vertex="1">
          <mxGeometry x="627" y="1311" width="308" height="108" as="geometry" />
        </mxCell>
        <mxCell id="ZeVpuo8kQjR2G3YYarO5-20" style="edgeStyle=orthogonalEdgeStyle;rounded=0;orthogonalLoop=1;jettySize=auto;html=1;entryX=0.5;entryY=0;entryDx=0;entryDy=0;labelBackgroundColor=none;strokeWidth=7;fontFamily=Space Grotesk;fontSource=https%3A%2F%2Ffonts.googleapis.com%2Fcss%3Ffamily%3DSpace%2BGrotesk;fontSize=27;" parent="1" source="ZeVpuo8kQjR2G3YYarO5-15" target="ZeVpuo8kQjR2G3YYarO5-19" edge="1">
          <mxGeometry relative="1" as="geometry" />
        </mxCell>
        <mxCell id="ZeVpuo8kQjR2G3YYarO5-15" value="&lt;span style=&quot;font-size: 27px; font-weight: 700;&quot;&gt;pox.update()&lt;/span&gt;" style="shape=process;whiteSpace=wrap;html=1;backgroundOutline=1;strokeColor=#291D00;strokeWidth=7;fontFamily=Space Grotesk;fontSource=https%3A%2F%2Ffonts.googleapis.com%2Fcss%3Ffamily%3DSpace%2BGrotesk;fontSize=27;fillColor=#FFFAEF;" parent="1" vertex="1">
          <mxGeometry x="610" y="1752" width="298" height="131" as="geometry" />
        </mxCell>
        <mxCell id="ZeVpuo8kQjR2G3YYarO5-18" style="edgeStyle=orthogonalEdgeStyle;rounded=0;orthogonalLoop=1;jettySize=auto;html=1;entryX=0.5;entryY=0;entryDx=0;entryDy=0;labelBackgroundColor=none;strokeWidth=7;fontFamily=Space Grotesk;fontSource=https%3A%2F%2Ffonts.googleapis.com%2Fcss%3Ffamily%3DSpace%2BGrotesk;fontSize=27;" parent="1" source="ZeVpuo8kQjR2G3YYarO5-17" target="ZeVpuo8kQjR2G3YYarO5-11" edge="1">
          <mxGeometry relative="1" as="geometry" />
        </mxCell>
        <mxCell id="ZeVpuo8kQjR2G3YYarO5-17" value="&lt;span style=&quot;font-size: 27px; font-weight: 700;&quot;&gt;lcd.init()&lt;/span&gt;&lt;br style=&quot;font-size: 27px; font-weight: 700;&quot;&gt;&lt;span style=&quot;font-size: 27px; font-weight: 700;&quot;&gt;rfid.init()&lt;/span&gt;" style="shape=process;whiteSpace=wrap;html=1;backgroundOutline=1;strokeColor=#291D00;strokeWidth=7;fontFamily=Space Grotesk;fontSource=https%3A%2F%2Ffonts.googleapis.com%2Fcss%3Ffamily%3DSpace%2BGrotesk;fontSize=27;fillColor=#FFFAEF;" parent="1" vertex="1">
          <mxGeometry x="659" y="1095" width="240" height="113" as="geometry" />
        </mxCell>
        <mxCell id="ZeVpuo8kQjR2G3YYarO5-22" value="True" style="edgeStyle=orthogonalEdgeStyle;rounded=0;orthogonalLoop=1;jettySize=auto;html=1;entryX=0.5;entryY=0;entryDx=0;entryDy=0;labelBackgroundColor=none;strokeWidth=7;fontFamily=Space Grotesk;fontSource=https%3A%2F%2Ffonts.googleapis.com%2Fcss%3Ffamily%3DSpace%2BGrotesk;fontSize=27;labelPosition=right;verticalLabelPosition=middle;align=left;verticalAlign=top;fontStyle=1" parent="1" source="ZeVpuo8kQjR2G3YYarO5-19" target="ZeVpuo8kQjR2G3YYarO5-26" edge="1">
          <mxGeometry relative="1" as="geometry" />
        </mxCell>
        <mxCell id="4AYZdTKbMCxme8TFbNy_-10" value="False" style="edgeStyle=orthogonalEdgeStyle;rounded=0;orthogonalLoop=1;jettySize=auto;html=1;entryX=1;entryY=0.5;entryDx=0;entryDy=0;labelBackgroundColor=none;strokeWidth=7;fontFamily=Space Grotesk;fontSource=https%3A%2F%2Ffonts.googleapis.com%2Fcss%3Ffamily%3DSpace%2BGrotesk;fontSize=27;verticalAlign=top;fontStyle=1" parent="1" source="ZeVpuo8kQjR2G3YYarO5-19" target="4AYZdTKbMCxme8TFbNy_-9" edge="1">
          <mxGeometry relative="1" as="geometry" />
        </mxCell>
        <mxCell id="ZeVpuo8kQjR2G3YYarO5-19" value="count = 2?" style="rhombus;whiteSpace=wrap;html=1;strokeColor=#291D00;strokeWidth=7;fontFamily=Space Grotesk;fontSource=https%3A%2F%2Ffonts.googleapis.com%2Fcss%3Ffamily%3DSpace%2BGrotesk;fontSize=27;fillColor=#FFFAEF;fontStyle=1" parent="1" vertex="1">
          <mxGeometry x="174" y="1857" width="219" height="160" as="geometry" />
        </mxCell>
        <mxCell id="ZeVpuo8kQjR2G3YYarO5-24" value="False" style="edgeStyle=orthogonalEdgeStyle;rounded=0;orthogonalLoop=1;jettySize=auto;html=1;entryX=0;entryY=0.5;entryDx=0;entryDy=0;labelBackgroundColor=none;strokeWidth=7;fontFamily=Space Grotesk;fontSource=https%3A%2F%2Ffonts.googleapis.com%2Fcss%3Ffamily%3DSpace%2BGrotesk;fontSize=27;verticalAlign=bottom;fontStyle=1" parent="1" source="ZeVpuo8kQjR2G3YYarO5-21" target="ZeVpuo8kQjR2G3YYarO5-23" edge="1">
          <mxGeometry relative="1" as="geometry" />
        </mxCell>
        <mxCell id="ZeVpuo8kQjR2G3YYarO5-29" value="True" style="edgeStyle=orthogonalEdgeStyle;rounded=0;orthogonalLoop=1;jettySize=auto;html=1;entryX=0.5;entryY=0;entryDx=0;entryDy=0;labelBackgroundColor=none;strokeWidth=7;fontFamily=Space Grotesk;fontSource=https%3A%2F%2Ffonts.googleapis.com%2Fcss%3Ffamily%3DSpace%2BGrotesk;fontSize=27;labelPosition=right;verticalLabelPosition=middle;align=left;verticalAlign=middle;fontStyle=1" parent="1" source="ZeVpuo8kQjR2G3YYarO5-21" target="ZeVpuo8kQjR2G3YYarO5-28" edge="1">
          <mxGeometry relative="1" as="geometry" />
        </mxCell>
        <mxCell id="ZeVpuo8kQjR2G3YYarO5-21" value="rfid.PICC_IsNewCardPresent()" style="rhombus;whiteSpace=wrap;html=1;strokeColor=#291D00;strokeWidth=7;fontFamily=Space Grotesk;fontSource=https%3A%2F%2Ffonts.googleapis.com%2Fcss%3Ffamily%3DSpace%2BGrotesk;fontSize=27;fillColor=#FFFAEF;fontStyle=1" parent="1" vertex="1">
          <mxGeometry x="32" y="2101" width="539.5" height="207" as="geometry" />
        </mxCell>
        <mxCell id="ZeVpuo8kQjR2G3YYarO5-25" style="edgeStyle=orthogonalEdgeStyle;rounded=0;orthogonalLoop=1;jettySize=auto;html=1;entryX=0.5;entryY=1;entryDx=0;entryDy=0;labelBackgroundColor=none;strokeWidth=7;fontFamily=Space Grotesk;fontSource=https%3A%2F%2Ffonts.googleapis.com%2Fcss%3Ffamily%3DSpace%2BGrotesk;fontSize=27;" parent="1" source="ZeVpuo8kQjR2G3YYarO5-23" target="ZeVpuo8kQjR2G3YYarO5-2" edge="1">
          <mxGeometry relative="1" as="geometry" />
        </mxCell>
        <mxCell id="ZeVpuo8kQjR2G3YYarO5-23" value="&lt;div style=&quot;font-size: 27px;&quot;&gt;&lt;span style=&quot;font-size: 27px;&quot;&gt;&lt;b style=&quot;font-size: 27px;&quot;&gt;lcd.clear();&lt;/b&gt;&lt;/span&gt;&lt;/div&gt;&lt;div style=&quot;font-size: 27px;&quot;&gt;&lt;span style=&quot;font-size: 27px;&quot;&gt;&lt;b style=&quot;font-size: 27px;&quot;&gt;&amp;nbsp; &amp;nbsp; lcd.setCursor(0, 0);&lt;/b&gt;&lt;/span&gt;&lt;/div&gt;&lt;div style=&quot;font-size: 27px;&quot;&gt;&lt;span style=&quot;font-size: 27px;&quot;&gt;&lt;b style=&quot;font-size: 27px;&quot;&gt;&amp;nbsp; &amp;nbsp; lcd.print(&quot;Please scan your card&quot;);&lt;/b&gt;&lt;/span&gt;&lt;/div&gt;" style="shape=process;whiteSpace=wrap;html=1;backgroundOutline=1;strokeColor=#291D00;strokeWidth=7;fontFamily=Space Grotesk;fontSource=https%3A%2F%2Ffonts.googleapis.com%2Fcss%3Ffamily%3DSpace%2BGrotesk;fontSize=27;fillColor=#FFFAEF;" parent="1" vertex="1">
          <mxGeometry x="850" y="2139" width="486" height="131" as="geometry" />
        </mxCell>
        <mxCell id="ZeVpuo8kQjR2G3YYarO5-27" style="edgeStyle=orthogonalEdgeStyle;rounded=0;orthogonalLoop=1;jettySize=auto;html=1;entryX=0.5;entryY=0;entryDx=0;entryDy=0;labelBackgroundColor=none;strokeWidth=7;fontFamily=Space Grotesk;fontSource=https%3A%2F%2Ffonts.googleapis.com%2Fcss%3Ffamily%3DSpace%2BGrotesk;fontSize=27;" parent="1" source="ZeVpuo8kQjR2G3YYarO5-26" target="ZeVpuo8kQjR2G3YYarO5-21" edge="1">
          <mxGeometry relative="1" as="geometry" />
        </mxCell>
        <mxCell id="ZeVpuo8kQjR2G3YYarO5-26" value="Tap RFID card" style="shape=parallelogram;perimeter=parallelogramPerimeter;whiteSpace=wrap;html=1;fixedSize=1;strokeColor=#291D00;strokeWidth=7;fontFamily=Space Grotesk;fontSource=https%3A%2F%2Ffonts.googleapis.com%2Fcss%3Ffamily%3DSpace%2BGrotesk;fontSize=27;fillColor=#FFFAEF;size=30.000000000000114;fontStyle=1" parent="1" vertex="1">
          <mxGeometry x="616" y="1987" width="340" height="133" as="geometry" />
        </mxCell>
        <mxCell id="ZeVpuo8kQjR2G3YYarO5-32" style="edgeStyle=orthogonalEdgeStyle;rounded=0;orthogonalLoop=1;jettySize=auto;html=1;entryX=0;entryY=0.5;entryDx=0;entryDy=0;labelBackgroundColor=none;strokeWidth=7;fontFamily=Space Grotesk;fontSource=https%3A%2F%2Ffonts.googleapis.com%2Fcss%3Ffamily%3DSpace%2BGrotesk;fontSize=27;" parent="1" source="ZeVpuo8kQjR2G3YYarO5-28" target="ZeVpuo8kQjR2G3YYarO5-30" edge="1">
          <mxGeometry relative="1" as="geometry" />
        </mxCell>
        <mxCell id="ZeVpuo8kQjR2G3YYarO5-28" value="i = 0" style="rounded=0;whiteSpace=wrap;html=1;fillColor=#FFFAEF;strokeWidth=7;fontFamily=Space Grotesk;fontSource=https%3A%2F%2Ffonts.googleapis.com%2Fcss%3Ffamily%3DSpace%2BGrotesk;fontSize=27;align=center;fontStyle=1" parent="1" vertex="1">
          <mxGeometry x="175" y="2418" width="251" height="89" as="geometry" />
        </mxCell>
        <mxCell id="4AYZdTKbMCxme8TFbNy_-3" value="True" style="edgeStyle=orthogonalEdgeStyle;rounded=0;orthogonalLoop=1;jettySize=auto;html=1;entryX=0;entryY=0.5;entryDx=0;entryDy=0;strokeWidth=7;fontFamily=Space Grotesk;fontSource=https%3A%2F%2Ffonts.googleapis.com%2Fcss%3Ffamily%3DSpace%2BGrotesk;fontSize=27;labelBackgroundColor=none;verticalAlign=bottom;fontStyle=1" parent="1" source="ZeVpuo8kQjR2G3YYarO5-30" target="4AYZdTKbMCxme8TFbNy_-2" edge="1">
          <mxGeometry relative="1" as="geometry" />
        </mxCell>
        <mxCell id="4AYZdTKbMCxme8TFbNy_-6" value="False" style="edgeStyle=orthogonalEdgeStyle;rounded=0;orthogonalLoop=1;jettySize=auto;html=1;entryX=0.5;entryY=0;entryDx=0;entryDy=0;labelBackgroundColor=none;strokeWidth=7;fontFamily=Space Grotesk;fontSource=https%3A%2F%2Ffonts.googleapis.com%2Fcss%3Ffamily%3DSpace%2BGrotesk;fontSize=27;fontStyle=1;labelPosition=right;verticalLabelPosition=middle;align=left;verticalAlign=middle;" parent="1" source="ZeVpuo8kQjR2G3YYarO5-30" target="4AYZdTKbMCxme8TFbNy_-5" edge="1">
          <mxGeometry relative="1" as="geometry" />
        </mxCell>
        <mxCell id="ZeVpuo8kQjR2G3YYarO5-30" value="i &amp;lt; 4?" style="rhombus;whiteSpace=wrap;html=1;strokeColor=#291D00;strokeWidth=7;fontFamily=Space Grotesk;fontSource=https%3A%2F%2Ffonts.googleapis.com%2Fcss%3Ffamily%3DSpace%2BGrotesk;fontSize=27;fillColor=#FFFAEF;fontStyle=1" parent="1" vertex="1">
          <mxGeometry x="608" y="2382" width="254.75" height="161" as="geometry" />
        </mxCell>
        <mxCell id="4AYZdTKbMCxme8TFbNy_-4" style="edgeStyle=orthogonalEdgeStyle;rounded=0;orthogonalLoop=1;jettySize=auto;html=1;entryX=0.5;entryY=0;entryDx=0;entryDy=0;labelBackgroundColor=none;strokeWidth=7;fontFamily=Space Grotesk;fontSource=https%3A%2F%2Ffonts.googleapis.com%2Fcss%3Ffamily%3DSpace%2BGrotesk;fontSize=27;" parent="1" source="4AYZdTKbMCxme8TFbNy_-2" target="ZeVpuo8kQjR2G3YYarO5-30" edge="1">
          <mxGeometry relative="1" as="geometry">
            <Array as="points">
              <mxPoint x="1189" y="2362" />
              <mxPoint x="735" y="2362" />
            </Array>
          </mxGeometry>
        </mxCell>
        <mxCell id="4AYZdTKbMCxme8TFbNy_-2" value="tag += rfid.uid.uidByte[i];&lt;br&gt;i++;" style="rounded=0;whiteSpace=wrap;html=1;fillColor=#FFFAEF;strokeWidth=7;fontFamily=Space Grotesk;fontSource=https%3A%2F%2Ffonts.googleapis.com%2Fcss%3Ffamily%3DSpace%2BGrotesk;fontSize=27;align=center;fontStyle=1" parent="1" vertex="1">
          <mxGeometry x="1024" y="2406.5" width="336" height="112" as="geometry" />
        </mxCell>
        <mxCell id="4AYZdTKbMCxme8TFbNy_-8" style="edgeStyle=orthogonalEdgeStyle;rounded=0;orthogonalLoop=1;jettySize=auto;html=1;entryX=1;entryY=0.5;entryDx=0;entryDy=0;labelBackgroundColor=none;strokeWidth=7;fontFamily=Space Grotesk;fontSource=https%3A%2F%2Ffonts.googleapis.com%2Fcss%3Ffamily%3DSpace%2BGrotesk;fontSize=27;" parent="1" source="4AYZdTKbMCxme8TFbNy_-5" target="4AYZdTKbMCxme8TFbNy_-7" edge="1">
          <mxGeometry relative="1" as="geometry" />
        </mxCell>
        <mxCell id="4AYZdTKbMCxme8TFbNy_-5" value="&lt;div&gt;student_id = tag;&lt;/div&gt;&lt;div&gt;&lt;span style=&quot;background-color: initial;&quot;&gt;count = 9;&lt;/span&gt;&lt;/div&gt;" style="rounded=0;whiteSpace=wrap;html=1;fillColor=#FFFAEF;strokeWidth=7;fontFamily=Space Grotesk;fontSource=https%3A%2F%2Ffonts.googleapis.com%2Fcss%3Ffamily%3DSpace%2BGrotesk;fontSize=27;align=center;fontStyle=1" parent="1" vertex="1">
          <mxGeometry x="609.88" y="2621" width="251" height="89" as="geometry" />
        </mxCell>
        <mxCell id="4AYZdTKbMCxme8TFbNy_-19" style="edgeStyle=orthogonalEdgeStyle;rounded=0;orthogonalLoop=1;jettySize=auto;html=1;entryX=0.5;entryY=1;entryDx=0;entryDy=0;labelBackgroundColor=none;strokeWidth=7;fontFamily=Space Grotesk;fontSource=https%3A%2F%2Ffonts.googleapis.com%2Fcss%3Ffamily%3DSpace%2BGrotesk;fontSize=27;" parent="1" source="4AYZdTKbMCxme8TFbNy_-7" target="4AYZdTKbMCxme8TFbNy_-9" edge="1">
          <mxGeometry relative="1" as="geometry" />
        </mxCell>
        <mxCell id="4AYZdTKbMCxme8TFbNy_-7" value="&quot;Welcome, student &quot; + student_id;&lt;br&gt;&quot;Please put your finger on your sensor&quot;" style="shape=parallelogram;perimeter=parallelogramPerimeter;whiteSpace=wrap;html=1;fixedSize=1;strokeColor=#291D00;strokeWidth=7;fontFamily=Space Grotesk;fontSource=https%3A%2F%2Ffonts.googleapis.com%2Fcss%3Ffamily%3DSpace%2BGrotesk;fontSize=27;fillColor=#FFFAEF;size=30.000000000000114;fontStyle=1" parent="1" vertex="1">
          <mxGeometry x="-24" y="2595" width="575" height="141" as="geometry" />
        </mxCell>
        <mxCell id="4AYZdTKbMCxme8TFbNy_-12" value="False" style="edgeStyle=orthogonalEdgeStyle;rounded=0;orthogonalLoop=1;jettySize=auto;html=1;labelBackgroundColor=none;strokeWidth=7;fontFamily=Space Grotesk;fontSource=https%3A%2F%2Ffonts.googleapis.com%2Fcss%3Ffamily%3DSpace%2BGrotesk;fontSize=27;labelPosition=right;verticalLabelPosition=middle;align=left;verticalAlign=middle;fontStyle=1" parent="1" source="4AYZdTKbMCxme8TFbNy_-9" target="4AYZdTKbMCxme8TFbNy_-11" edge="1">
          <mxGeometry relative="1" as="geometry" />
        </mxCell>
        <mxCell id="4AYZdTKbMCxme8TFbNy_-16" value="True" style="edgeStyle=orthogonalEdgeStyle;rounded=0;orthogonalLoop=1;jettySize=auto;html=1;entryX=1;entryY=0.5;entryDx=0;entryDy=0;labelBackgroundColor=none;strokeWidth=7;fontFamily=Space Grotesk;fontSource=https%3A%2F%2Ffonts.googleapis.com%2Fcss%3Ffamily%3DSpace%2BGrotesk;fontSize=27;verticalAlign=top;fontStyle=1" parent="1" source="4AYZdTKbMCxme8TFbNy_-9" target="4AYZdTKbMCxme8TFbNy_-15" edge="1">
          <mxGeometry relative="1" as="geometry" />
        </mxCell>
        <mxCell id="4AYZdTKbMCxme8TFbNy_-9" value="count &amp;gt; -1?" style="rhombus;whiteSpace=wrap;html=1;strokeColor=#291D00;strokeWidth=7;fontFamily=Space Grotesk;fontSource=https%3A%2F%2Ffonts.googleapis.com%2Fcss%3Ffamily%3DSpace%2BGrotesk;fontSize=27;fillColor=#FFFAEF;fontStyle=1" parent="1" vertex="1">
          <mxGeometry x="-263" y="1860" width="219" height="160" as="geometry" />
        </mxCell>
        <mxCell id="4AYZdTKbMCxme8TFbNy_-14" value="True" style="edgeStyle=orthogonalEdgeStyle;rounded=0;orthogonalLoop=1;jettySize=auto;html=1;entryX=0.5;entryY=1;entryDx=0;entryDy=0;labelBackgroundColor=none;strokeWidth=7;fontFamily=Space Grotesk;fontSource=https%3A%2F%2Ffonts.googleapis.com%2Fcss%3Ffamily%3DSpace%2BGrotesk;fontSize=27;labelPosition=right;verticalLabelPosition=middle;align=left;verticalAlign=middle;fontStyle=1" parent="1" source="4AYZdTKbMCxme8TFbNy_-11" target="4AYZdTKbMCxme8TFbNy_-13" edge="1">
          <mxGeometry relative="1" as="geometry" />
        </mxCell>
        <mxCell id="4AYZdTKbMCxme8TFbNy_-21" style="edgeStyle=orthogonalEdgeStyle;rounded=0;orthogonalLoop=1;jettySize=auto;html=1;entryX=0.5;entryY=1;entryDx=0;entryDy=0;labelBackgroundColor=none;strokeWidth=7;fontFamily=Space Grotesk;fontSource=https%3A%2F%2Ffonts.googleapis.com%2Fcss%3Ffamily%3DSpace%2BGrotesk;fontSize=27;" parent="1" source="4AYZdTKbMCxme8TFbNy_-11" target="4AYZdTKbMCxme8TFbNy_-20" edge="1">
          <mxGeometry relative="1" as="geometry" />
        </mxCell>
        <mxCell id="4AYZdTKbMCxme8TFbNy_-11" value="count == -1?" style="rhombus;whiteSpace=wrap;html=1;strokeColor=#291D00;strokeWidth=7;fontFamily=Space Grotesk;fontSource=https%3A%2F%2Ffonts.googleapis.com%2Fcss%3Ffamily%3DSpace%2BGrotesk;fontSize=27;fillColor=#FFFAEF;fontStyle=1" parent="1" vertex="1">
          <mxGeometry x="-263" y="1625" width="219" height="160" as="geometry" />
        </mxCell>
        <mxCell id="4AYZdTKbMCxme8TFbNy_-18" style="edgeStyle=orthogonalEdgeStyle;rounded=0;orthogonalLoop=1;jettySize=auto;html=1;entryX=0.5;entryY=1;entryDx=0;entryDy=0;labelBackgroundColor=none;strokeWidth=7;fontFamily=Space Grotesk;fontSource=https%3A%2F%2Ffonts.googleapis.com%2Fcss%3Ffamily%3DSpace%2BGrotesk;fontSize=27;" parent="1" source="4AYZdTKbMCxme8TFbNy_-13" target="4AYZdTKbMCxme8TFbNy_-17" edge="1">
          <mxGeometry relative="1" as="geometry" />
        </mxCell>
        <mxCell id="4AYZdTKbMCxme8TFbNy_-13" value="&lt;span style=&quot;font-size: 27px; font-weight: 700;&quot;&gt;send();&lt;br&gt;displayStatus();&lt;br&gt;&lt;/span&gt;" style="shape=process;whiteSpace=wrap;html=1;backgroundOutline=1;strokeColor=#291D00;strokeWidth=7;fontFamily=Space Grotesk;fontSource=https%3A%2F%2Ffonts.googleapis.com%2Fcss%3Ffamily%3DSpace%2BGrotesk;fontSize=27;fillColor=#FFFAEF;" parent="1" vertex="1">
          <mxGeometry x="-302.5" y="1434" width="298" height="131" as="geometry" />
        </mxCell>
        <mxCell id="4AYZdTKbMCxme8TFbNy_-15" value="&lt;span style=&quot;font-size: 27px; font-weight: 700;&quot;&gt;display()&lt;/span&gt;" style="shape=process;whiteSpace=wrap;html=1;backgroundOutline=1;strokeColor=#291D00;strokeWidth=7;fontFamily=Space Grotesk;fontSource=https%3A%2F%2Ffonts.googleapis.com%2Fcss%3Ffamily%3DSpace%2BGrotesk;fontSize=27;fillColor=#FFFAEF;" parent="1" vertex="1">
          <mxGeometry x="-650" y="1874.5" width="298" height="131" as="geometry" />
        </mxCell>
        <mxCell id="4AYZdTKbMCxme8TFbNy_-17" value="count = -2;&lt;br&gt;student_id =&quot;&quot;" style="rounded=0;whiteSpace=wrap;html=1;fillColor=#FFFAEF;strokeWidth=7;fontFamily=Space Grotesk;fontSource=https%3A%2F%2Ffonts.googleapis.com%2Fcss%3Ffamily%3DSpace%2BGrotesk;fontSize=27;align=center;fontStyle=1" parent="1" vertex="1">
          <mxGeometry x="-279" y="1248" width="251" height="89" as="geometry" />
        </mxCell>
        <mxCell id="4AYZdTKbMCxme8TFbNy_-45" style="edgeStyle=orthogonalEdgeStyle;rounded=0;orthogonalLoop=1;jettySize=auto;html=1;entryX=0;entryY=0;entryDx=0;entryDy=0;labelBackgroundColor=none;strokeWidth=7;fontFamily=Space Grotesk;fontSource=https%3A%2F%2Ffonts.googleapis.com%2Fcss%3Ffamily%3DSpace%2BGrotesk;fontSize=27;" parent="1" source="4AYZdTKbMCxme8TFbNy_-20" target="ZeVpuo8kQjR2G3YYarO5-2" edge="1">
          <mxGeometry relative="1" as="geometry">
            <Array as="points">
              <mxPoint x="-501" y="720" />
              <mxPoint x="1126" y="720" />
            </Array>
          </mxGeometry>
        </mxCell>
        <mxCell id="4AYZdTKbMCxme8TFbNy_-20" value="tag = &quot;&quot;" style="rounded=0;whiteSpace=wrap;html=1;fillColor=#FFFAEF;strokeWidth=7;fontFamily=Space Grotesk;fontSource=https%3A%2F%2Ffonts.googleapis.com%2Fcss%3Ffamily%3DSpace%2BGrotesk;fontSize=27;align=center;fontStyle=1" parent="1" vertex="1">
          <mxGeometry x="-626.5" y="1406" width="251" height="89" as="geometry" />
        </mxCell>
        <mxCell id="4AYZdTKbMCxme8TFbNy_-32" style="edgeStyle=orthogonalEdgeStyle;rounded=0;orthogonalLoop=1;jettySize=auto;html=1;entryX=0.5;entryY=0;entryDx=0;entryDy=0;labelBackgroundColor=none;strokeWidth=7;fontFamily=Space Grotesk;fontSource=https%3A%2F%2Ffonts.googleapis.com%2Fcss%3Ffamily%3DSpace%2BGrotesk;fontSize=27;" parent="1" source="4AYZdTKbMCxme8TFbNy_-24" target="4AYZdTKbMCxme8TFbNy_-31" edge="1">
          <mxGeometry relative="1" as="geometry" />
        </mxCell>
        <mxCell id="4AYZdTKbMCxme8TFbNy_-24" value="&lt;font face=&quot;Space Grotesk&quot; style=&quot;font-size: 27px;&quot;&gt;Start&lt;/font&gt;" style="ellipse;whiteSpace=wrap;html=1;fillColor=#FFFAEF;strokeWidth=7;fontSize=27;fontStyle=1" parent="1" vertex="1">
          <mxGeometry x="2066" y="870" width="120" height="80" as="geometry" />
        </mxCell>
        <mxCell id="4AYZdTKbMCxme8TFbNy_-25" value="&lt;font face=&quot;Space Grotesk&quot; style=&quot;font-size: 27px;&quot;&gt;End&lt;/font&gt;" style="ellipse;whiteSpace=wrap;html=1;fillColor=#FFFAEF;strokeWidth=7;fontSize=27;fontStyle=1" parent="1" vertex="1">
          <mxGeometry x="2543.5" y="1726" width="120" height="80" as="geometry" />
        </mxCell>
        <mxCell id="4AYZdTKbMCxme8TFbNy_-26" value="displayStatus()" style="text;html=1;strokeColor=none;fillColor=none;align=center;verticalAlign=middle;whiteSpace=wrap;rounded=0;fontFamily=Space Grotesk;fontSource=https%3A%2F%2Ffonts.googleapis.com%2Fcss%3Ffamily%3DSpace%2BGrotesk;fontSize=27;fontStyle=1;strokeWidth=7;" parent="1" vertex="1">
          <mxGeometry x="1831" y="738" width="198" height="99" as="geometry" />
        </mxCell>
        <mxCell id="4AYZdTKbMCxme8TFbNy_-36" value="True" style="edgeStyle=orthogonalEdgeStyle;rounded=0;orthogonalLoop=1;jettySize=auto;html=1;entryX=0.5;entryY=0;entryDx=0;entryDy=0;labelBackgroundColor=none;strokeWidth=7;fontFamily=Space Grotesk;fontSource=https%3A%2F%2Ffonts.googleapis.com%2Fcss%3Ffamily%3DSpace%2BGrotesk;fontSize=27;fontStyle=1;labelPosition=right;verticalLabelPosition=middle;align=left;verticalAlign=middle;" parent="1" source="4AYZdTKbMCxme8TFbNy_-30" target="4AYZdTKbMCxme8TFbNy_-34" edge="1">
          <mxGeometry relative="1" as="geometry" />
        </mxCell>
        <mxCell id="4AYZdTKbMCxme8TFbNy_-37" value="False" style="edgeStyle=orthogonalEdgeStyle;rounded=0;orthogonalLoop=1;jettySize=auto;html=1;entryX=0;entryY=0.5;entryDx=0;entryDy=0;labelBackgroundColor=none;strokeWidth=7;fontFamily=Space Grotesk;fontSource=https%3A%2F%2Ffonts.googleapis.com%2Fcss%3Ffamily%3DSpace%2BGrotesk;fontSize=27;fontStyle=1;verticalAlign=top;" parent="1" source="4AYZdTKbMCxme8TFbNy_-30" target="4AYZdTKbMCxme8TFbNy_-35" edge="1">
          <mxGeometry relative="1" as="geometry" />
        </mxCell>
        <mxCell id="4AYZdTKbMCxme8TFbNy_-30" value="status == &quot;good&quot;" style="rhombus;whiteSpace=wrap;html=1;strokeColor=#291D00;strokeWidth=7;fontFamily=Space Grotesk;fontSource=https%3A%2F%2Ffonts.googleapis.com%2Fcss%3Ffamily%3DSpace%2BGrotesk;fontSize=27;fillColor=#FFFAEF;fontStyle=1" parent="1" vertex="1">
          <mxGeometry x="1940.5" y="1237" width="371" height="182" as="geometry" />
        </mxCell>
        <mxCell id="4AYZdTKbMCxme8TFbNy_-33" style="edgeStyle=orthogonalEdgeStyle;rounded=0;orthogonalLoop=1;jettySize=auto;html=1;entryX=0.5;entryY=0;entryDx=0;entryDy=0;labelBackgroundColor=none;strokeWidth=7;fontFamily=Space Grotesk;fontSource=https%3A%2F%2Ffonts.googleapis.com%2Fcss%3Ffamily%3DSpace%2BGrotesk;fontSize=27;" parent="1" source="4AYZdTKbMCxme8TFbNy_-31" target="4AYZdTKbMCxme8TFbNy_-30" edge="1">
          <mxGeometry relative="1" as="geometry" />
        </mxCell>
        <mxCell id="4AYZdTKbMCxme8TFbNy_-31" value="&quot;Status: &quot; + status" style="shape=parallelogram;perimeter=parallelogramPerimeter;whiteSpace=wrap;html=1;fixedSize=1;strokeColor=#291D00;strokeWidth=7;fontFamily=Space Grotesk;fontSource=https%3A%2F%2Ffonts.googleapis.com%2Fcss%3Ffamily%3DSpace%2BGrotesk;fontSize=27;fillColor=#FFFAEF;size=30.000000000000114;fontStyle=1" parent="1" vertex="1">
          <mxGeometry x="1946.5" y="1021" width="359" height="117" as="geometry" />
        </mxCell>
        <mxCell id="4AYZdTKbMCxme8TFbNy_-39" style="edgeStyle=orthogonalEdgeStyle;rounded=0;orthogonalLoop=1;jettySize=auto;html=1;entryX=0;entryY=0.5;entryDx=0;entryDy=0;labelBackgroundColor=none;strokeWidth=7;fontFamily=Space Grotesk;fontSource=https%3A%2F%2Ffonts.googleapis.com%2Fcss%3Ffamily%3DSpace%2BGrotesk;fontSize=27;" parent="1" source="4AYZdTKbMCxme8TFbNy_-34" target="4AYZdTKbMCxme8TFbNy_-38" edge="1">
          <mxGeometry relative="1" as="geometry" />
        </mxCell>
        <mxCell id="4AYZdTKbMCxme8TFbNy_-34" value="&quot;You are healthy&quot;" style="shape=parallelogram;perimeter=parallelogramPerimeter;whiteSpace=wrap;html=1;fixedSize=1;strokeColor=#291D00;strokeWidth=7;fontFamily=Space Grotesk;fontSource=https%3A%2F%2Ffonts.googleapis.com%2Fcss%3Ffamily%3DSpace%2BGrotesk;fontSize=27;fillColor=#FFFAEF;size=30.000000000000114;fontStyle=1" parent="1" vertex="1">
          <mxGeometry x="1946.5" y="1514" width="359" height="117" as="geometry" />
        </mxCell>
        <mxCell id="4AYZdTKbMCxme8TFbNy_-40" style="edgeStyle=orthogonalEdgeStyle;rounded=0;orthogonalLoop=1;jettySize=auto;html=1;entryX=0.5;entryY=0;entryDx=0;entryDy=0;labelBackgroundColor=none;strokeWidth=7;fontFamily=Space Grotesk;fontSource=https%3A%2F%2Ffonts.googleapis.com%2Fcss%3Ffamily%3DSpace%2BGrotesk;fontSize=27;" parent="1" source="4AYZdTKbMCxme8TFbNy_-35" target="4AYZdTKbMCxme8TFbNy_-38" edge="1">
          <mxGeometry relative="1" as="geometry" />
        </mxCell>
        <mxCell id="4AYZdTKbMCxme8TFbNy_-35" value="&quot;You are not healthy&quot;" style="shape=parallelogram;perimeter=parallelogramPerimeter;whiteSpace=wrap;html=1;fixedSize=1;strokeColor=#291D00;strokeWidth=7;fontFamily=Space Grotesk;fontSource=https%3A%2F%2Ffonts.googleapis.com%2Fcss%3Ffamily%3DSpace%2BGrotesk;fontSize=27;fillColor=#FFFAEF;size=30.000000000000114;fontStyle=1" parent="1" vertex="1">
          <mxGeometry x="2424" y="1269.5" width="359" height="117" as="geometry" />
        </mxCell>
        <mxCell id="4AYZdTKbMCxme8TFbNy_-41" style="edgeStyle=orthogonalEdgeStyle;rounded=0;orthogonalLoop=1;jettySize=auto;html=1;entryX=0.5;entryY=0;entryDx=0;entryDy=0;labelBackgroundColor=none;strokeWidth=7;fontFamily=Space Grotesk;fontSource=https%3A%2F%2Ffonts.googleapis.com%2Fcss%3Ffamily%3DSpace%2BGrotesk;fontSize=27;" parent="1" source="4AYZdTKbMCxme8TFbNy_-38" target="4AYZdTKbMCxme8TFbNy_-25" edge="1">
          <mxGeometry relative="1" as="geometry" />
        </mxCell>
        <mxCell id="4AYZdTKbMCxme8TFbNy_-38" value="delay(3000)" style="rounded=0;whiteSpace=wrap;html=1;fillColor=#FFFAEF;strokeWidth=7;fontFamily=Space Grotesk;fontSource=https%3A%2F%2Ffonts.googleapis.com%2Fcss%3Ffamily%3DSpace%2BGrotesk;fontSize=27;align=center;fontStyle=1" parent="1" vertex="1">
          <mxGeometry x="2435.5" y="1516.5" width="336" height="112" as="geometry" />
        </mxCell>
        <mxCell id="4AYZdTKbMCxme8TFbNy_-42" value="display()" style="text;html=1;strokeColor=none;fillColor=none;align=center;verticalAlign=middle;whiteSpace=wrap;rounded=0;fontFamily=Space Grotesk;fontSource=https%3A%2F%2Ffonts.googleapis.com%2Fcss%3Ffamily%3DSpace%2BGrotesk;fontSize=27;fontStyle=1;strokeWidth=7;" parent="1" vertex="1">
          <mxGeometry x="2999" y="734" width="198" height="99" as="geometry" />
        </mxCell>
        <mxCell id="4AYZdTKbMCxme8TFbNy_-48" style="edgeStyle=orthogonalEdgeStyle;rounded=0;orthogonalLoop=1;jettySize=auto;html=1;entryX=0.5;entryY=0;entryDx=0;entryDy=0;labelBackgroundColor=none;strokeWidth=7;fontFamily=Space Grotesk;fontSource=https%3A%2F%2Ffonts.googleapis.com%2Fcss%3Ffamily%3DSpace%2BGrotesk;fontSize=27;" parent="1" source="4AYZdTKbMCxme8TFbNy_-43" target="4AYZdTKbMCxme8TFbNy_-47" edge="1">
          <mxGeometry relative="1" as="geometry" />
        </mxCell>
        <mxCell id="4AYZdTKbMCxme8TFbNy_-43" value="&lt;font face=&quot;Space Grotesk&quot; style=&quot;font-size: 27px;&quot;&gt;Start&lt;/font&gt;" style="ellipse;whiteSpace=wrap;html=1;fillColor=#FFFAEF;strokeWidth=7;fontSize=27;fontStyle=1" parent="1" vertex="1">
          <mxGeometry x="3192" y="866" width="120" height="80" as="geometry" />
        </mxCell>
        <mxCell id="4AYZdTKbMCxme8TFbNy_-44" value="&lt;font face=&quot;Space Grotesk&quot; style=&quot;font-size: 27px;&quot;&gt;End&lt;/font&gt;" style="ellipse;whiteSpace=wrap;html=1;fillColor=#FFFAEF;strokeWidth=7;fontSize=27;fontStyle=1" parent="1" vertex="1">
          <mxGeometry x="3686" y="1726" width="120" height="80" as="geometry" />
        </mxCell>
        <mxCell id="4AYZdTKbMCxme8TFbNy_-49" value="False" style="edgeStyle=orthogonalEdgeStyle;rounded=0;orthogonalLoop=1;jettySize=auto;html=1;entryX=0.5;entryY=0;entryDx=0;entryDy=0;labelBackgroundColor=none;strokeWidth=7;fontFamily=Space Grotesk;fontSource=https%3A%2F%2Ffonts.googleapis.com%2Fcss%3Ffamily%3DSpace%2BGrotesk;fontSize=27;labelPosition=right;verticalLabelPosition=middle;align=left;verticalAlign=middle;fontStyle=1" parent="1" source="4AYZdTKbMCxme8TFbNy_-47" target="4AYZdTKbMCxme8TFbNy_-44" edge="1">
          <mxGeometry relative="1" as="geometry" />
        </mxCell>
        <mxCell id="4AYZdTKbMCxme8TFbNy_-52" value="True" style="edgeStyle=orthogonalEdgeStyle;rounded=0;orthogonalLoop=1;jettySize=auto;html=1;entryX=0.5;entryY=0;entryDx=0;entryDy=0;labelBackgroundColor=none;strokeWidth=7;fontFamily=Space Grotesk;fontSource=https%3A%2F%2Ffonts.googleapis.com%2Fcss%3Ffamily%3DSpace%2BGrotesk;fontSize=27;labelPosition=right;verticalLabelPosition=middle;align=left;verticalAlign=middle;fontStyle=1" parent="1" source="4AYZdTKbMCxme8TFbNy_-47" target="4AYZdTKbMCxme8TFbNy_-51" edge="1">
          <mxGeometry relative="1" as="geometry" />
        </mxCell>
        <mxCell id="4AYZdTKbMCxme8TFbNy_-47" value="millis() - tsLastReport &amp;gt; REPORTING_PERIOD_MS" style="rhombus;whiteSpace=wrap;html=1;strokeColor=#291D00;strokeWidth=7;fontFamily=Space Grotesk;fontSource=https%3A%2F%2Ffonts.googleapis.com%2Fcss%3Ffamily%3DSpace%2BGrotesk;fontSize=27;fillColor=#FFFAEF;fontStyle=1" parent="1" vertex="1">
          <mxGeometry x="2997.5" y="1087.5" width="509" height="182" as="geometry" />
        </mxCell>
        <mxCell id="4AYZdTKbMCxme8TFbNy_-57" style="edgeStyle=orthogonalEdgeStyle;rounded=0;orthogonalLoop=1;jettySize=auto;html=1;entryX=0.5;entryY=0;entryDx=0;entryDy=0;labelBackgroundColor=none;strokeWidth=7;fontFamily=Space Grotesk;fontSource=https%3A%2F%2Ffonts.googleapis.com%2Fcss%3Ffamily%3DSpace%2BGrotesk;fontSize=27;" parent="1" source="4AYZdTKbMCxme8TFbNy_-50" target="4AYZdTKbMCxme8TFbNy_-56" edge="1">
          <mxGeometry relative="1" as="geometry" />
        </mxCell>
        <mxCell id="4AYZdTKbMCxme8TFbNy_-50" value="pulse_data[count] =&amp;nbsp;pox.getHeartRate();&lt;br&gt;spo2_data[count] = pox.getSpO2();" style="rounded=0;whiteSpace=wrap;html=1;fillColor=#FFFAEF;strokeWidth=7;fontFamily=Space Grotesk;fontSource=https%3A%2F%2Ffonts.googleapis.com%2Fcss%3Ffamily%3DSpace%2BGrotesk;fontSize=27;align=center;fontStyle=1" parent="1" vertex="1">
          <mxGeometry x="2962.5" y="1820" width="584" height="112" as="geometry" />
        </mxCell>
        <mxCell id="4AYZdTKbMCxme8TFbNy_-54" style="edgeStyle=orthogonalEdgeStyle;rounded=0;orthogonalLoop=1;jettySize=auto;html=1;entryX=0.5;entryY=0;entryDx=0;entryDy=0;labelBackgroundColor=none;strokeWidth=7;fontFamily=Space Grotesk;fontSource=https%3A%2F%2Ffonts.googleapis.com%2Fcss%3Ffamily%3DSpace%2BGrotesk;fontSize=27;" parent="1" source="4AYZdTKbMCxme8TFbNy_-51" target="4AYZdTKbMCxme8TFbNy_-53" edge="1">
          <mxGeometry relative="1" as="geometry" />
        </mxCell>
        <mxCell id="4AYZdTKbMCxme8TFbNy_-51" value="&lt;span style=&quot;font-weight: 700;&quot;&gt;pox.update()&lt;/span&gt;" style="shape=process;whiteSpace=wrap;html=1;backgroundOutline=1;strokeColor=#291D00;strokeWidth=7;fontFamily=Space Grotesk;fontSource=https%3A%2F%2Ffonts.googleapis.com%2Fcss%3Ffamily%3DSpace%2BGrotesk;fontSize=27;fillColor=#FFFAEF;" parent="1" vertex="1">
          <mxGeometry x="3103" y="1406" width="298" height="131" as="geometry" />
        </mxCell>
        <mxCell id="4AYZdTKbMCxme8TFbNy_-55" style="edgeStyle=orthogonalEdgeStyle;rounded=0;orthogonalLoop=1;jettySize=auto;html=1;entryX=0.5;entryY=0;entryDx=0;entryDy=0;labelBackgroundColor=none;strokeWidth=7;fontFamily=Space Grotesk;fontSource=https%3A%2F%2Ffonts.googleapis.com%2Fcss%3Ffamily%3DSpace%2BGrotesk;fontSize=27;" parent="1" source="4AYZdTKbMCxme8TFbNy_-53" target="4AYZdTKbMCxme8TFbNy_-50" edge="1">
          <mxGeometry relative="1" as="geometry" />
        </mxCell>
        <mxCell id="4AYZdTKbMCxme8TFbNy_-53" value="&quot;BPM: &quot; + pox.getHeartRate();&lt;br&gt;&quot;SpO2: &quot; +&amp;nbsp;pox.getSpO2() + &quot;%&quot;" style="shape=parallelogram;perimeter=parallelogramPerimeter;whiteSpace=wrap;html=1;fixedSize=1;strokeColor=#291D00;strokeWidth=7;fontFamily=Space Grotesk;fontSource=https%3A%2F%2Ffonts.googleapis.com%2Fcss%3Ffamily%3DSpace%2BGrotesk;fontSize=27;fillColor=#FFFAEF;size=30.000000000000114;fontStyle=1" parent="1" vertex="1">
          <mxGeometry x="3023" y="1620" width="463" height="117" as="geometry" />
        </mxCell>
        <mxCell id="4AYZdTKbMCxme8TFbNy_-58" style="edgeStyle=orthogonalEdgeStyle;rounded=0;orthogonalLoop=1;jettySize=auto;html=1;entryX=0.5;entryY=1;entryDx=0;entryDy=0;labelBackgroundColor=none;strokeWidth=7;fontFamily=Space Grotesk;fontSource=https%3A%2F%2Ffonts.googleapis.com%2Fcss%3Ffamily%3DSpace%2BGrotesk;fontSize=27;" parent="1" source="4AYZdTKbMCxme8TFbNy_-56" target="4AYZdTKbMCxme8TFbNy_-44" edge="1">
          <mxGeometry relative="1" as="geometry" />
        </mxCell>
        <mxCell id="4AYZdTKbMCxme8TFbNy_-56" value="count--;" style="rounded=0;whiteSpace=wrap;html=1;fillColor=#FFFAEF;strokeWidth=7;fontFamily=Space Grotesk;fontSource=https%3A%2F%2Ffonts.googleapis.com%2Fcss%3Ffamily%3DSpace%2BGrotesk;fontSize=27;align=center;fontStyle=1" parent="1" vertex="1">
          <mxGeometry x="3136" y="2027" width="232" height="112" as="geometry" />
        </mxCell>
        <mxCell id="4AYZdTKbMCxme8TFbNy_-59" value="send()" style="text;html=1;strokeColor=none;fillColor=none;align=center;verticalAlign=middle;whiteSpace=wrap;rounded=0;fontFamily=Space Grotesk;fontSource=https%3A%2F%2Ffonts.googleapis.com%2Fcss%3Ffamily%3DSpace%2BGrotesk;fontSize=27;fontStyle=1;strokeWidth=7;" parent="1" vertex="1">
          <mxGeometry x="3945" y="742" width="198" height="99" as="geometry" />
        </mxCell>
        <mxCell id="4AYZdTKbMCxme8TFbNy_-63" style="edgeStyle=orthogonalEdgeStyle;rounded=0;orthogonalLoop=1;jettySize=auto;html=1;entryX=0.5;entryY=0;entryDx=0;entryDy=0;labelBackgroundColor=none;strokeWidth=7;fontFamily=Space Grotesk;fontSource=https%3A%2F%2Ffonts.googleapis.com%2Fcss%3Ffamily%3DSpace%2BGrotesk;fontSize=27;" parent="1" source="4AYZdTKbMCxme8TFbNy_-60" target="4AYZdTKbMCxme8TFbNy_-62" edge="1">
          <mxGeometry relative="1" as="geometry" />
        </mxCell>
        <mxCell id="4AYZdTKbMCxme8TFbNy_-60" value="&lt;font face=&quot;Space Grotesk&quot; style=&quot;font-size: 27px;&quot;&gt;Start&lt;/font&gt;" style="ellipse;whiteSpace=wrap;html=1;fillColor=#FFFAEF;strokeWidth=7;fontSize=27;fontStyle=1" parent="1" vertex="1">
          <mxGeometry x="4356" y="852" width="120" height="80" as="geometry" />
        </mxCell>
        <mxCell id="4AYZdTKbMCxme8TFbNy_-61" value="&lt;font face=&quot;Space Grotesk&quot; style=&quot;font-size: 27px;&quot;&gt;End&lt;/font&gt;" style="ellipse;whiteSpace=wrap;html=1;fillColor=#FFFAEF;strokeWidth=7;fontSize=27;fontStyle=1" parent="1" vertex="1">
          <mxGeometry x="5270" y="2703" width="120" height="80" as="geometry" />
        </mxCell>
        <mxCell id="4AYZdTKbMCxme8TFbNy_-66" value="False" style="edgeStyle=orthogonalEdgeStyle;rounded=0;orthogonalLoop=1;jettySize=auto;html=1;entryX=0;entryY=0.5;entryDx=0;entryDy=0;labelBackgroundColor=none;strokeWidth=7;fontFamily=Space Grotesk;fontSource=https%3A%2F%2Ffonts.googleapis.com%2Fcss%3Ffamily%3DSpace%2BGrotesk;fontSize=27;verticalAlign=bottom;fontStyle=1" parent="1" source="4AYZdTKbMCxme8TFbNy_-62" target="4AYZdTKbMCxme8TFbNy_-65" edge="1">
          <mxGeometry relative="1" as="geometry" />
        </mxCell>
        <mxCell id="4AYZdTKbMCxme8TFbNy_-69" value="" style="edgeStyle=orthogonalEdgeStyle;rounded=0;orthogonalLoop=1;jettySize=auto;html=1;labelBackgroundColor=none;strokeWidth=7;fontFamily=Space Grotesk;fontSource=https%3A%2F%2Ffonts.googleapis.com%2Fcss%3Ffamily%3DSpace%2BGrotesk;fontSize=27;" parent="1" source="4AYZdTKbMCxme8TFbNy_-62" target="4AYZdTKbMCxme8TFbNy_-68" edge="1">
          <mxGeometry relative="1" as="geometry" />
        </mxCell>
        <mxCell id="4AYZdTKbMCxme8TFbNy_-62" value="WiFi.status() == WL_CONNECTED?" style="rhombus;whiteSpace=wrap;html=1;strokeColor=#291D00;strokeWidth=7;fontFamily=Space Grotesk;fontSource=https%3A%2F%2Ffonts.googleapis.com%2Fcss%3Ffamily%3DSpace%2BGrotesk;fontSize=27;fillColor=#FFFAEF;fontStyle=1" parent="1" vertex="1">
          <mxGeometry x="4127" y="1027" width="578" height="249" as="geometry" />
        </mxCell>
        <mxCell id="4AYZdTKbMCxme8TFbNy_-74" style="edgeStyle=orthogonalEdgeStyle;rounded=0;orthogonalLoop=1;jettySize=auto;html=1;exitX=0.5;exitY=1;exitDx=0;exitDy=0;entryX=1;entryY=0.5;entryDx=0;entryDy=0;labelBackgroundColor=none;strokeWidth=7;fontFamily=Space Grotesk;fontSource=https%3A%2F%2Ffonts.googleapis.com%2Fcss%3Ffamily%3DSpace%2BGrotesk;fontSize=27;" parent="1" source="4AYZdTKbMCxme8TFbNy_-65" target="4AYZdTKbMCxme8TFbNy_-61" edge="1">
          <mxGeometry relative="1" as="geometry" />
        </mxCell>
        <mxCell id="4AYZdTKbMCxme8TFbNy_-65" value="&quot;Wifi disconnected&quot;" style="shape=parallelogram;perimeter=parallelogramPerimeter;whiteSpace=wrap;html=1;fixedSize=1;strokeColor=#291D00;strokeWidth=7;fontFamily=Space Grotesk;fontSource=https%3A%2F%2Ffonts.googleapis.com%2Fcss%3Ffamily%3DSpace%2BGrotesk;fontSize=27;fillColor=#FFFAEF;size=30.000000000000114;fontStyle=1" parent="1" vertex="1">
          <mxGeometry x="4864" y="1095" width="463" height="117" as="geometry" />
        </mxCell>
        <mxCell id="4AYZdTKbMCxme8TFbNy_-71" value="" style="edgeStyle=orthogonalEdgeStyle;rounded=0;orthogonalLoop=1;jettySize=auto;html=1;labelBackgroundColor=none;strokeWidth=7;fontFamily=Space Grotesk;fontSource=https%3A%2F%2Ffonts.googleapis.com%2Fcss%3Ffamily%3DSpace%2BGrotesk;fontSize=27;" parent="1" source="4AYZdTKbMCxme8TFbNy_-68" target="4AYZdTKbMCxme8TFbNy_-70" edge="1">
          <mxGeometry relative="1" as="geometry" />
        </mxCell>
        <mxCell id="4AYZdTKbMCxme8TFbNy_-68" value="&lt;div&gt;WiFiClient client;&lt;/div&gt;&lt;div&gt;HTTPClient http;&lt;/div&gt;" style="rounded=0;whiteSpace=wrap;html=1;fillColor=#FFFAEF;strokeWidth=7;fontFamily=Space Grotesk;fontSource=https%3A%2F%2Ffonts.googleapis.com%2Fcss%3Ffamily%3DSpace%2BGrotesk;fontSize=27;align=center;fontStyle=1" parent="1" vertex="1">
          <mxGeometry x="4264" y="1371" width="304" height="112" as="geometry" />
        </mxCell>
        <mxCell id="4AYZdTKbMCxme8TFbNy_-76" value="" style="edgeStyle=orthogonalEdgeStyle;rounded=0;orthogonalLoop=1;jettySize=auto;html=1;labelBackgroundColor=none;strokeWidth=7;fontFamily=Space Grotesk;fontSource=https%3A%2F%2Ffonts.googleapis.com%2Fcss%3Ffamily%3DSpace%2BGrotesk;fontSize=27;" parent="1" source="4AYZdTKbMCxme8TFbNy_-70" target="4AYZdTKbMCxme8TFbNy_-75" edge="1">
          <mxGeometry relative="1" as="geometry" />
        </mxCell>
        <mxCell id="4AYZdTKbMCxme8TFbNy_-70" value="&lt;div&gt;&lt;b&gt;avg_pulse = average(pulse_data, 10);&lt;/b&gt;&lt;/div&gt;&lt;div&gt;&lt;b&gt;avg_spo2 = average(spo2_data, 10);&lt;/b&gt;&lt;/div&gt;" style="shape=process;whiteSpace=wrap;html=1;backgroundOutline=1;strokeColor=#291D00;strokeWidth=7;fontFamily=Space Grotesk;fontSource=https%3A%2F%2Ffonts.googleapis.com%2Fcss%3Ffamily%3DSpace%2BGrotesk;fontSize=27;fillColor=#FFFAEF;" parent="1" vertex="1">
          <mxGeometry x="4085" y="1552" width="662" height="131" as="geometry" />
        </mxCell>
        <mxCell id="4AYZdTKbMCxme8TFbNy_-78" value="True" style="edgeStyle=orthogonalEdgeStyle;rounded=0;orthogonalLoop=1;jettySize=auto;html=1;exitX=1;exitY=1;exitDx=0;exitDy=0;entryX=0.5;entryY=0;entryDx=0;entryDy=0;labelBackgroundColor=none;strokeWidth=7;fontFamily=Space Grotesk;fontSource=https%3A%2F%2Ffonts.googleapis.com%2Fcss%3Ffamily%3DSpace%2BGrotesk;fontSize=27;labelPosition=right;verticalLabelPosition=middle;align=left;verticalAlign=middle;fontStyle=1" parent="1" source="4AYZdTKbMCxme8TFbNy_-75" target="4AYZdTKbMCxme8TFbNy_-77" edge="1">
          <mxGeometry relative="1" as="geometry" />
        </mxCell>
        <mxCell id="4AYZdTKbMCxme8TFbNy_-80" value="False" style="edgeStyle=orthogonalEdgeStyle;rounded=0;orthogonalLoop=1;jettySize=auto;html=1;exitX=0;exitY=1;exitDx=0;exitDy=0;entryX=0;entryY=0;entryDx=0;entryDy=0;labelBackgroundColor=none;strokeWidth=7;fontFamily=Space Grotesk;fontSource=https%3A%2F%2Ffonts.googleapis.com%2Fcss%3Ffamily%3DSpace%2BGrotesk;fontSize=27;fontStyle=1;labelPosition=right;verticalLabelPosition=middle;align=left;verticalAlign=middle;" parent="1" source="4AYZdTKbMCxme8TFbNy_-75" target="4AYZdTKbMCxme8TFbNy_-79" edge="1">
          <mxGeometry relative="1" as="geometry" />
        </mxCell>
        <mxCell id="4AYZdTKbMCxme8TFbNy_-75" value="avg_pulse &amp;gt;= 140 || avg_pulse &amp;lt;= 50 || avg_spo2 &amp;lt;= 80?" style="rhombus;whiteSpace=wrap;html=1;strokeColor=#291D00;strokeWidth=7;fontFamily=Space Grotesk;fontSource=https%3A%2F%2Ffonts.googleapis.com%2Fcss%3Ffamily%3DSpace%2BGrotesk;fontSize=27;fillColor=#FFFAEF;fontStyle=1" parent="1" vertex="1">
          <mxGeometry x="3892" y="1794" width="1048" height="223" as="geometry" />
        </mxCell>
        <mxCell id="4AYZdTKbMCxme8TFbNy_-87" style="edgeStyle=orthogonalEdgeStyle;rounded=0;orthogonalLoop=1;jettySize=auto;html=1;exitX=1;exitY=0.25;exitDx=0;exitDy=0;entryX=1;entryY=0.366;entryDx=0;entryDy=0;labelBackgroundColor=none;strokeWidth=7;fontFamily=Space Grotesk;fontSource=https%3A%2F%2Ffonts.googleapis.com%2Fcss%3Ffamily%3DSpace%2BGrotesk;fontSize=27;entryPerimeter=0;" parent="1" source="4AYZdTKbMCxme8TFbNy_-77" target="4AYZdTKbMCxme8TFbNy_-85" edge="1">
          <mxGeometry relative="1" as="geometry">
            <Array as="points">
              <mxPoint x="5056" y="2130" />
              <mxPoint x="5056" y="2990" />
            </Array>
          </mxGeometry>
        </mxCell>
        <mxCell id="4AYZdTKbMCxme8TFbNy_-77" value="&lt;div&gt;status = &quot;Bad&quot;&lt;/div&gt;" style="rounded=0;whiteSpace=wrap;html=1;fillColor=#FFFAEF;strokeWidth=7;fontFamily=Space Grotesk;fontSource=https%3A%2F%2Ffonts.googleapis.com%2Fcss%3Ffamily%3DSpace%2BGrotesk;fontSize=27;align=center;fontStyle=1" parent="1" vertex="1">
          <mxGeometry x="4544" y="2103" width="304" height="112" as="geometry" />
        </mxCell>
        <mxCell id="4AYZdTKbMCxme8TFbNy_-82" value="True" style="edgeStyle=orthogonalEdgeStyle;rounded=0;orthogonalLoop=1;jettySize=auto;html=1;exitX=1;exitY=1;exitDx=0;exitDy=0;entryX=0.5;entryY=0;entryDx=0;entryDy=0;labelBackgroundColor=none;strokeWidth=7;fontFamily=Space Grotesk;fontSource=https%3A%2F%2Ffonts.googleapis.com%2Fcss%3Ffamily%3DSpace%2BGrotesk;fontSize=27;verticalAlign=bottom;fontStyle=1" parent="1" source="4AYZdTKbMCxme8TFbNy_-79" target="4AYZdTKbMCxme8TFbNy_-81" edge="1">
          <mxGeometry relative="1" as="geometry" />
        </mxCell>
        <mxCell id="4AYZdTKbMCxme8TFbNy_-84" value="False" style="edgeStyle=orthogonalEdgeStyle;rounded=0;orthogonalLoop=1;jettySize=auto;html=1;exitX=0;exitY=1;exitDx=0;exitDy=0;entryX=0.5;entryY=0;entryDx=0;entryDy=0;labelBackgroundColor=none;strokeWidth=7;fontFamily=Space Grotesk;fontSource=https%3A%2F%2Ffonts.googleapis.com%2Fcss%3Ffamily%3DSpace%2BGrotesk;fontSize=27;labelPosition=right;verticalLabelPosition=middle;align=left;verticalAlign=middle;fontStyle=1" parent="1" source="4AYZdTKbMCxme8TFbNy_-79" target="4AYZdTKbMCxme8TFbNy_-83" edge="1">
          <mxGeometry relative="1" as="geometry" />
        </mxCell>
        <mxCell id="4AYZdTKbMCxme8TFbNy_-79" value="avg_pulse &amp;gt;= 110 || avg_pulse &amp;lt;= 60 || avg_spo2 &amp;lt;= 93" style="rhombus;whiteSpace=wrap;html=1;strokeColor=#291D00;strokeWidth=7;fontFamily=Space Grotesk;fontSource=https%3A%2F%2Ffonts.googleapis.com%2Fcss%3Ffamily%3DSpace%2BGrotesk;fontSize=27;fillColor=#FFFAEF;fontStyle=1" parent="1" vertex="1">
          <mxGeometry x="3892" y="2266" width="1048" height="223" as="geometry" />
        </mxCell>
        <mxCell id="4AYZdTKbMCxme8TFbNy_-88" style="edgeStyle=orthogonalEdgeStyle;rounded=0;orthogonalLoop=1;jettySize=auto;html=1;exitX=1;exitY=0.25;exitDx=0;exitDy=0;entryX=1.001;entryY=0.116;entryDx=0;entryDy=0;entryPerimeter=0;labelBackgroundColor=none;strokeWidth=7;fontFamily=Space Grotesk;fontSource=https%3A%2F%2Ffonts.googleapis.com%2Fcss%3Ffamily%3DSpace%2BGrotesk;fontSize=27;" parent="1" source="4AYZdTKbMCxme8TFbNy_-81" target="4AYZdTKbMCxme8TFbNy_-85" edge="1">
          <mxGeometry relative="1" as="geometry" />
        </mxCell>
        <mxCell id="4AYZdTKbMCxme8TFbNy_-81" value="&lt;div&gt;status = &quot;Warning&quot;&lt;/div&gt;" style="rounded=0;whiteSpace=wrap;html=1;fillColor=#FFFAEF;strokeWidth=7;fontFamily=Space Grotesk;fontSource=https%3A%2F%2Ffonts.googleapis.com%2Fcss%3Ffamily%3DSpace%2BGrotesk;fontSize=27;align=center;fontStyle=1" parent="1" vertex="1">
          <mxGeometry x="4640" y="2547" width="304" height="112" as="geometry" />
        </mxCell>
        <mxCell id="4AYZdTKbMCxme8TFbNy_-89" style="edgeStyle=orthogonalEdgeStyle;rounded=0;orthogonalLoop=1;jettySize=auto;html=1;exitX=0.75;exitY=1;exitDx=0;exitDy=0;labelBackgroundColor=none;strokeWidth=7;fontFamily=Space Grotesk;fontSource=https%3A%2F%2Ffonts.googleapis.com%2Fcss%3Ffamily%3DSpace%2BGrotesk;fontSize=27;" parent="1" source="4AYZdTKbMCxme8TFbNy_-83" target="4AYZdTKbMCxme8TFbNy_-85" edge="1">
          <mxGeometry relative="1" as="geometry" />
        </mxCell>
        <mxCell id="4AYZdTKbMCxme8TFbNy_-83" value="&lt;div&gt;status = &quot;Good&quot;&lt;/div&gt;" style="rounded=0;whiteSpace=wrap;html=1;fillColor=#FFFAEF;strokeWidth=7;fontFamily=Space Grotesk;fontSource=https%3A%2F%2Ffonts.googleapis.com%2Fcss%3Ffamily%3DSpace%2BGrotesk;fontSize=27;align=center;fontStyle=1" parent="1" vertex="1">
          <mxGeometry x="4003" y="2742" width="304" height="112" as="geometry" />
        </mxCell>
        <mxCell id="4AYZdTKbMCxme8TFbNy_-91" style="edgeStyle=orthogonalEdgeStyle;rounded=0;orthogonalLoop=1;jettySize=auto;html=1;entryX=0.5;entryY=0;entryDx=0;entryDy=0;labelBackgroundColor=none;strokeWidth=7;fontFamily=Space Grotesk;fontSource=https%3A%2F%2Ffonts.googleapis.com%2Fcss%3Ffamily%3DSpace%2BGrotesk;fontSize=27;" parent="1" source="4AYZdTKbMCxme8TFbNy_-85" target="4AYZdTKbMCxme8TFbNy_-90" edge="1">
          <mxGeometry relative="1" as="geometry" />
        </mxCell>
        <mxCell id="4AYZdTKbMCxme8TFbNy_-85" value="&lt;span&gt;http.begin(client, serverName);&lt;br&gt;&lt;/span&gt;http.addHeader(&quot;Content-Type&quot;, &quot;application/x-www-form-urlencoded&quot;);" style="shape=process;whiteSpace=wrap;html=1;backgroundOutline=1;strokeColor=#291D00;strokeWidth=7;fontFamily=Space Grotesk;fontSource=https%3A%2F%2Ffonts.googleapis.com%2Fcss%3Ffamily%3DSpace%2BGrotesk;fontSize=27;fillColor=#FFFAEF;fontStyle=1" parent="1" vertex="1">
          <mxGeometry x="4135" y="2942" width="713" height="131" as="geometry" />
        </mxCell>
        <mxCell id="4AYZdTKbMCxme8TFbNy_-93" value="" style="edgeStyle=orthogonalEdgeStyle;rounded=0;orthogonalLoop=1;jettySize=auto;html=1;labelBackgroundColor=none;strokeWidth=7;fontFamily=Space Grotesk;fontSource=https%3A%2F%2Ffonts.googleapis.com%2Fcss%3Ffamily%3DSpace%2BGrotesk;fontSize=27;" parent="1" source="4AYZdTKbMCxme8TFbNy_-90" target="4AYZdTKbMCxme8TFbNy_-92" edge="1">
          <mxGeometry relative="1" as="geometry" />
        </mxCell>
        <mxCell id="4AYZdTKbMCxme8TFbNy_-90" value="&lt;div&gt;String httpRequestData = &quot;api_key=&quot; + apiKeyValue + &quot;&amp;amp;sensor=&quot; + sensorName&lt;/div&gt;&lt;div&gt;&amp;nbsp; &amp;nbsp; &amp;nbsp; &amp;nbsp; &amp;nbsp; &amp;nbsp; &amp;nbsp; &amp;nbsp; &amp;nbsp; &amp;nbsp; &amp;nbsp; &amp;nbsp; &amp;nbsp; &amp;nbsp; + &quot;&amp;amp;location=&quot; + sensorLocation + &quot;&amp;amp;pulse=&quot; + String(avg_pulse)&lt;/div&gt;&lt;div&gt;&amp;nbsp; &amp;nbsp; &amp;nbsp; &amp;nbsp; &amp;nbsp; &amp;nbsp; &amp;nbsp; &amp;nbsp; &amp;nbsp; &amp;nbsp; &amp;nbsp; &amp;nbsp; &amp;nbsp; &amp;nbsp; + &quot;&amp;amp;spo2=&quot; + String(avg_spo2) + &quot;&amp;amp;studentStatus=&quot; + status + &quot;&amp;amp;student_id=&quot; + student_id + &quot;&quot;;&lt;/div&gt;" style="rounded=0;whiteSpace=wrap;html=1;fillColor=#FFFAEF;strokeWidth=7;fontFamily=Space Grotesk;fontSource=https%3A%2F%2Ffonts.googleapis.com%2Fcss%3Ffamily%3DSpace%2BGrotesk;fontSize=27;align=center;fontStyle=1" parent="1" vertex="1">
          <mxGeometry x="4003" y="3170" width="977" height="259" as="geometry" />
        </mxCell>
        <mxCell id="4AYZdTKbMCxme8TFbNy_-94" style="edgeStyle=orthogonalEdgeStyle;rounded=0;orthogonalLoop=1;jettySize=auto;html=1;exitX=1;exitY=0.5;exitDx=0;exitDy=0;entryX=0.5;entryY=1;entryDx=0;entryDy=0;labelBackgroundColor=none;strokeWidth=7;fontFamily=Space Grotesk;fontSource=https%3A%2F%2Ffonts.googleapis.com%2Fcss%3Ffamily%3DSpace%2BGrotesk;fontSize=27;" parent="1" source="4AYZdTKbMCxme8TFbNy_-92" target="4AYZdTKbMCxme8TFbNy_-61" edge="1">
          <mxGeometry relative="1" as="geometry" />
        </mxCell>
        <mxCell id="4AYZdTKbMCxme8TFbNy_-92" value="http.POST(httpRequestData);&lt;br&gt;http.end();" style="shape=process;whiteSpace=wrap;html=1;backgroundOutline=1;strokeColor=#291D00;strokeWidth=7;fontFamily=Space Grotesk;fontSource=https%3A%2F%2Ffonts.googleapis.com%2Fcss%3Ffamily%3DSpace%2BGrotesk;fontSize=27;fillColor=#FFFAEF;fontStyle=1" parent="1" vertex="1">
          <mxGeometry x="4228" y="3493" width="527" height="131" as="geometry" />
        </mxCell>
        <mxCell id="4AYZdTKbMCxme8TFbNy_-95" value="average(float arr[], int length)" style="text;html=1;strokeColor=none;fillColor=none;align=center;verticalAlign=middle;whiteSpace=wrap;rounded=0;fontFamily=Space Grotesk;fontSource=https%3A%2F%2Ffonts.googleapis.com%2Fcss%3Ffamily%3DSpace%2BGrotesk;fontSize=27;fontStyle=1;strokeWidth=7;" parent="1" vertex="1">
          <mxGeometry x="5458" y="725" width="536" height="99" as="geometry" />
        </mxCell>
        <mxCell id="4AYZdTKbMCxme8TFbNy_-99" value="" style="edgeStyle=orthogonalEdgeStyle;rounded=0;orthogonalLoop=1;jettySize=auto;html=1;labelBackgroundColor=none;strokeWidth=7;fontFamily=Space Grotesk;fontSource=https%3A%2F%2Ffonts.googleapis.com%2Fcss%3Ffamily%3DSpace%2BGrotesk;fontSize=27;" parent="1" source="4AYZdTKbMCxme8TFbNy_-96" target="4AYZdTKbMCxme8TFbNy_-98" edge="1">
          <mxGeometry relative="1" as="geometry" />
        </mxCell>
        <mxCell id="4AYZdTKbMCxme8TFbNy_-96" value="&lt;font face=&quot;Space Grotesk&quot; style=&quot;font-size: 27px;&quot;&gt;Start&lt;/font&gt;" style="ellipse;whiteSpace=wrap;html=1;fillColor=#FFFAEF;strokeWidth=7;fontSize=27;fontStyle=1" parent="1" vertex="1">
          <mxGeometry x="5679" y="862" width="120" height="80" as="geometry" />
        </mxCell>
        <mxCell id="4AYZdTKbMCxme8TFbNy_-97" value="&lt;font face=&quot;Space Grotesk&quot; style=&quot;font-size: 27px;&quot;&gt;return sum/length&lt;/font&gt;" style="ellipse;whiteSpace=wrap;html=1;fillColor=#FFFAEF;strokeWidth=7;fontSize=27;fontStyle=1" parent="1" vertex="1">
          <mxGeometry x="6054" y="1246" width="312" height="146" as="geometry" />
        </mxCell>
        <mxCell id="4AYZdTKbMCxme8TFbNy_-102" value="" style="edgeStyle=orthogonalEdgeStyle;rounded=0;orthogonalLoop=1;jettySize=auto;html=1;labelBackgroundColor=none;strokeWidth=7;fontFamily=Space Grotesk;fontSource=https%3A%2F%2Ffonts.googleapis.com%2Fcss%3Ffamily%3DSpace%2BGrotesk;fontSize=27;" parent="1" source="4AYZdTKbMCxme8TFbNy_-98" target="4AYZdTKbMCxme8TFbNy_-101" edge="1">
          <mxGeometry relative="1" as="geometry" />
        </mxCell>
        <mxCell id="4AYZdTKbMCxme8TFbNy_-98" value="&lt;div&gt;sum = 0;&lt;/div&gt;&lt;div&gt;i= 0;&lt;/div&gt;" style="rounded=0;whiteSpace=wrap;html=1;fillColor=#FFFAEF;strokeWidth=7;fontFamily=Space Grotesk;fontSource=https%3A%2F%2Ffonts.googleapis.com%2Fcss%3Ffamily%3DSpace%2BGrotesk;fontSize=27;align=center;fontStyle=1" parent="1" vertex="1">
          <mxGeometry x="5589" y="1026" width="304" height="112" as="geometry" />
        </mxCell>
        <mxCell id="4AYZdTKbMCxme8TFbNy_-104" value="True" style="edgeStyle=orthogonalEdgeStyle;rounded=0;orthogonalLoop=1;jettySize=auto;html=1;labelBackgroundColor=none;strokeWidth=7;fontFamily=Space Grotesk;fontSource=https%3A%2F%2Ffonts.googleapis.com%2Fcss%3Ffamily%3DSpace%2BGrotesk;fontSize=27;labelPosition=right;verticalLabelPosition=middle;align=left;verticalAlign=middle;fontStyle=1" parent="1" source="4AYZdTKbMCxme8TFbNy_-101" target="4AYZdTKbMCxme8TFbNy_-103" edge="1">
          <mxGeometry relative="1" as="geometry" />
        </mxCell>
        <mxCell id="4AYZdTKbMCxme8TFbNy_-107" value="False" style="edgeStyle=orthogonalEdgeStyle;rounded=0;orthogonalLoop=1;jettySize=auto;html=1;labelBackgroundColor=none;strokeWidth=7;fontFamily=Space Grotesk;fontSource=https%3A%2F%2Ffonts.googleapis.com%2Fcss%3Ffamily%3DSpace%2BGrotesk;fontSize=27;verticalAlign=bottom;fontStyle=1" parent="1" source="4AYZdTKbMCxme8TFbNy_-101" target="4AYZdTKbMCxme8TFbNy_-97" edge="1">
          <mxGeometry relative="1" as="geometry" />
        </mxCell>
        <mxCell id="4AYZdTKbMCxme8TFbNy_-101" value="i &amp;lt; length?" style="rhombus;whiteSpace=wrap;html=1;strokeColor=#291D00;strokeWidth=7;fontFamily=Space Grotesk;fontSource=https%3A%2F%2Ffonts.googleapis.com%2Fcss%3Ffamily%3DSpace%2BGrotesk;fontSize=27;fillColor=#FFFAEF;fontStyle=1" parent="1" vertex="1">
          <mxGeometry x="5533.5" y="1201" width="411" height="236" as="geometry" />
        </mxCell>
        <mxCell id="4AYZdTKbMCxme8TFbNy_-103" value="&lt;div&gt;sum += arr[i];&lt;/div&gt;&lt;div&gt;i++;&lt;/div&gt;" style="rounded=0;whiteSpace=wrap;html=1;fillColor=#FFFAEF;strokeWidth=7;fontFamily=Space Grotesk;fontSource=https%3A%2F%2Ffonts.googleapis.com%2Fcss%3Ffamily%3DSpace%2BGrotesk;fontSize=27;align=center;fontStyle=1" parent="1" vertex="1">
          <mxGeometry x="5587" y="1543" width="304" height="112" as="geometry" />
        </mxCell>
        <mxCell id="StRmfVQufm-jLz1Iqn4o-1" style="edgeStyle=orthogonalEdgeStyle;rounded=0;orthogonalLoop=1;jettySize=auto;html=1;entryX=0;entryY=0.25;entryDx=0;entryDy=0;fontFamily=Space Grotesk;fontSource=https%3A%2F%2Ffonts.googleapis.com%2Fcss%3Ffamily%3DSpace%2BGrotesk;fontSize=27;strokeWidth=7;exitX=1;exitY=0.5;exitDx=0;exitDy=0;" edge="1" source="StRmfVQufm-jLz1Iqn4o-19" target="StRmfVQufm-jLz1Iqn4o-18" parent="1">
          <mxGeometry relative="1" as="geometry">
            <mxPoint x="1306" y="-235" as="sourcePoint" />
            <mxPoint x="1257.5" y="-170" as="targetPoint" />
          </mxGeometry>
        </mxCell>
        <mxCell id="StRmfVQufm-jLz1Iqn4o-5" style="edgeStyle=orthogonalEdgeStyle;rounded=0;orthogonalLoop=1;jettySize=auto;html=1;entryX=0;entryY=0.75;entryDx=0;entryDy=0;fontFamily=Space Grotesk;fontSource=https%3A%2F%2Ffonts.googleapis.com%2Fcss%3Ffamily%3DSpace%2BGrotesk;fontSize=27;strokeWidth=7;exitX=1;exitY=0.5;exitDx=0;exitDy=0;" edge="1" source="StRmfVQufm-jLz1Iqn4o-20" target="StRmfVQufm-jLz1Iqn4o-18" parent="1">
          <mxGeometry relative="1" as="geometry">
            <mxPoint x="1466.0000000000005" y="78" as="sourcePoint" />
            <mxPoint x="1257.5" y="-68.00000000000045" as="targetPoint" />
          </mxGeometry>
        </mxCell>
        <mxCell id="StRmfVQufm-jLz1Iqn4o-7" style="edgeStyle=orthogonalEdgeStyle;rounded=0;orthogonalLoop=1;jettySize=auto;html=1;exitX=1;exitY=0.75;exitDx=0;exitDy=0;entryX=0;entryY=0.5;entryDx=0;entryDy=0;strokeWidth=7;fontFamily=Space Grotesk;fontSource=https%3A%2F%2Ffonts.googleapis.com%2Fcss%3Ffamily%3DSpace%2BGrotesk;fontSize=27;" edge="1" source="StRmfVQufm-jLz1Iqn4o-18" target="StRmfVQufm-jLz1Iqn4o-21" parent="1">
          <mxGeometry relative="1" as="geometry">
            <mxPoint x="1364.5" y="-68.00000000000045" as="sourcePoint" />
          </mxGeometry>
        </mxCell>
        <mxCell id="StRmfVQufm-jLz1Iqn4o-8" style="edgeStyle=orthogonalEdgeStyle;rounded=0;orthogonalLoop=1;jettySize=auto;html=1;entryX=0;entryY=0.75;entryDx=0;entryDy=0;strokeWidth=7;fontFamily=Space Grotesk;fontSource=https%3A%2F%2Ffonts.googleapis.com%2Fcss%3Ffamily%3DSpace%2BGrotesk;fontSize=27;exitX=0.25;exitY=0;exitDx=0;exitDy=0;" edge="1" source="StRmfVQufm-jLz1Iqn4o-18" target="StRmfVQufm-jLz1Iqn4o-22" parent="1">
          <mxGeometry relative="1" as="geometry">
            <mxPoint x="1311" y="-170" as="sourcePoint" />
            <mxPoint x="1766.0000000000005" y="-325" as="targetPoint" />
          </mxGeometry>
        </mxCell>
        <mxCell id="StRmfVQufm-jLz1Iqn4o-11" style="edgeStyle=orthogonalEdgeStyle;rounded=0;orthogonalLoop=1;jettySize=auto;html=1;entryX=1;entryY=0.75;entryDx=0;entryDy=0;strokeWidth=7;fontFamily=Space Grotesk;fontSource=https%3A%2F%2Ffonts.googleapis.com%2Fcss%3Ffamily%3DSpace%2BGrotesk;fontSize=27;exitX=0.5;exitY=0;exitDx=0;exitDy=0;" edge="1" source="StRmfVQufm-jLz1Iqn4o-22" target="StRmfVQufm-jLz1Iqn4o-24" parent="1">
          <mxGeometry relative="1" as="geometry">
            <mxPoint x="1843" y="-372" as="sourcePoint" />
          </mxGeometry>
        </mxCell>
        <mxCell id="StRmfVQufm-jLz1Iqn4o-13" style="edgeStyle=orthogonalEdgeStyle;rounded=0;orthogonalLoop=1;jettySize=auto;html=1;entryX=0;entryY=0.5;entryDx=0;entryDy=0;strokeWidth=7;fontFamily=Space Grotesk;fontSource=https%3A%2F%2Ffonts.googleapis.com%2Fcss%3Ffamily%3DSpace%2BGrotesk;fontSize=27;" edge="1" source="StRmfVQufm-jLz1Iqn4o-15" target="StRmfVQufm-jLz1Iqn4o-24" parent="1">
          <mxGeometry relative="1" as="geometry">
            <mxPoint x="1452" y="-550" as="targetPoint" />
          </mxGeometry>
        </mxCell>
        <mxCell id="StRmfVQufm-jLz1Iqn4o-15" value="Server" style="ellipse;shape=cloud;whiteSpace=wrap;html=1;strokeWidth=7;fontFamily=Space Grotesk;fontSource=https%3A%2F%2Ffonts.googleapis.com%2Fcss%3Ffamily%3DSpace%2BGrotesk;fontSize=27;fillColor=#FFFAEF;fontStyle=1" vertex="1" parent="1">
          <mxGeometry x="1126" y="-714.66" width="245" height="163.33" as="geometry" />
        </mxCell>
        <mxCell id="StRmfVQufm-jLz1Iqn4o-18" value="NodeMCU" style="shape=image;verticalLabelPosition=bottom;labelBackgroundColor=none;verticalAlign=top;aspect=fixed;imageAspect=0;image=data:image/png,iVBORw0KGgoAAAANSUhEUgAAAgAAAAIACAYAAAD0eNT6AAAABHNCSVQICAgIfAhkiAAAAAlwSFlzAAAOxAAADsQBlSsOGwAAABl0RVh0U29mdHdhcmUAd3d3Lmlua3NjYXBlLm9yZ5vuPBoAACAASURBVHic7d17sGVVfeDx75XuRqFb6JZuAjMQ3qC0AUeiRNEM4CMSEJP4YLAEh6CheAxKiFo6OiSVB2DBmJjERIMvEmeiTjRGNCkDRBwFfCGvkRaEDI4IdEM3/VCapm/PH+ve0Fz63nvOWWvv395nfT9Vq7qqu89ev/3be5/9O/uxFkiSJEmSJEmSJEmSJEmSJEmSJEmSJEmSJEmSJEmSJEmSJEmSJEmSJEmSJEmSJEmSJEmSJEmSJEmSJEmSJEmSJEmSJEmSJEmSJEmSJEmSJEmSJEmSJEmSJEmSJEmSJEmSJEmSJEmSJEmSJEmSJEmSJEmSJEmSJEmSJEmSJEmSJEmSJEmSJEmSJEmSJEmSJEmSJEmSJEmSJEmSJEmSJEmSJEmSJEmSJEmSJEmSJEmSJEmSJEmSJEmSJEmSJEmSJEmSJEmSJEmSJEmSJEmSJEmSJEmSJEmSJEkaNxPRAUhSx+0JHAscDRwG7A8sB3YFFgXGJXgM2ASsBu4Bvg/cAFwLPBgYlySpp5YB5wI3AttsvWuTpELgnKltKUnSnPYGLgc2En8Ss5VpG4DLgL2QJGmGBcD5wHriT1i2Ztom4CK8bSNJmnIw8F3iT1C2dtq3gQORJFXtZOAR4k9KtnbbOuAkJElVOh3YQvzJyBbTHgfegiSpKmeSnhSPPgnZYtskcAaSpCqcTPr1F33ysXWjbQFOpEIOBCSpJgcB3wGeGR2IOmUDcBTwg+hA2vS06AAkqSULgU/jyV9PtQT4G9LroNXYKToASWrJhcCbooNQZ+1NejvghuhA2uItAEk12Jt0eXfX6EDUaRuAQ4D7owNpg7cAJNXgQjz5a35LgAuig2iLVwAkjbtlwL1YAGgwG4F9gbXRgTTNKwCSxt2pePLX4BYDp0QHIUnK903KvTN+K2nSoMOxqOiCXUnb4nzStim1na9vcyUkSeXtSZkR/zaT5pb3zanu2gk4l7Stcrf3JLC83fAlSSWdQpmT//FtB66RHU+ZIuD1bQcuSSrnA+SfCM5pPWrlOo/87X5561FLkor5MnkngVvxsn8f7QTcRt62v6r1qFvmWwCSxtnBmZ//K2BriUDUqq3AFZnLyN13JEmB1pD3K/A57YesQlaSt+1Xtx+yJKmU3IfBFrcfsgpZQt62f7T9kNvlSICSxtm2zM/7Hdlvbv85+AyAJEkVsgCQJKlCFgCSJFXIAkCSpApZAEiSVCELAEmSKmQBIElShRZEBzCP5cDzgEOBw4BDSNN77gosnfpzUVh0kjS36PfQa+8/13zxPwZsAtZO/fkAsGq7dhMdHlEwOrkzPQN4GXDcVHsu3YtRUj36fgK0/1jbgFuAa4GrgX+mQyMMduXk+nzgNOCNwLOCY5GkadEnIPuP7b+0R4AvAJ8kFQSh8UUWADsDbwZ+BzgwMA5Jmk30Ccj+Y/tv0l3A+4FPkOasaF1EAfAM4Czgt4F/F9C/JA0q+gRk/7H9t+HHpELgw8DP2uy47QLgROBPgP1b7leSRhF9ArL/2P7bdDdwHvCltjps6zXAfYDPAf+AJ39JkmY6ALgK+Dvg37fRYRtXAF4NfAxY1kJfklRS9C9Q+4/tP8ojwJnAZ5vspMkrAAuAi4HP48lfkqRB7QZ8GvhjGhzrpqkrAEtJrzoc09DyJakN0b9A7T+2/y64DjgZWFd6wU0UAHsBXwaOaGDZktSm6BOQ/cf23xW3A78C/L+SCy19C+Ag4Bt48pckqZTDga+RzrHFlLwCsDfwdWC/gsuUpEjRv0DtP7b/rvkR8OKpP7OVugKwG+n1hf0KLU+SJD3ZPqRxApaWWFiJAmAR8EXgyALLkiRJs1tJGldnYe6CShQAl+LT/pIkteWXgT/MXUju/ZWTSZVI0wMKPUCaTvEG4A7gHtIcy5tI8zFL0o5E34NWrKa3/yJgV2A5aZTbZwNHA8cCKzL7ns820kB7X2y4nx3aB3h4Kogm2kPAB4EXtLVCksZO7veQ+i1q+08ALwT+lHQua+o8uYagSfU+N0Kwg7QfA28nVVWSlMMCoG5d2P6LgQuA+wrEs6P2mUJxDuxXCgW+fdtCGvZwSYvrIWm8deEEoDhd2v67ABcBmwvENbOdUDjWWT2DNG1hyeB/ADyvrRWQVI0unQDUvi5u/+cDdxWIbeY59OkNxfskby8c+OeBZ7YRuKTqdPEEoPZ0dfvvRpovp+S59NwG4wVgZ9JYxKUC/jhp1kBJakJXTwBqR5e3/07AhwvEON3upcGZAwF+q2CwH8FXbCQ1q8snADWv69t/AriiQJzT7cwmAy113+LzpOpHkpqU+8CVDyX31xLytv2jLcW5APiHzFin2w9o6If1SwsG6D1/SW1YQ9731XPaD1mFrCRv269uMdbdgB9mxjvdBh6Zd5ihgE8b4v/OZgvwBmB9gWVJ0nzWZn7+FUWiUISXZ34+d98ZxiOkc+PjBZZV4lz9JM8gBZhbmVxaOjBJmsOXyfvOug1vV/bRTsDt5G37q1qPGi7PiHe6raXwK4EnFQjqxzi6n6R2fYD8767zWo9auf4L+dv98tajTs8t/GTEeLdvRQcG+u8FAnp7yYAkaQBvIP+7azPwsrYD18heRpokLne7v67twKf8zhAxztYuKxnQzZnBPIS//iW1bwUwSZki4Dy8HdBlC4DzKXPy3wrs0W74/2Yx+RPtfbdUMMvJP4A+WCoYSRrSDeSfEKbb7aSrmStJX9SKtZi0LS4g/57/9u3rba7EDvw5efFvBZ5VIpBXZAayDfjFEoFk2BM4hXQ/8B+BVaQKa/NUe3jq7/6RdLvjDTQ/l7OkdpxDuRODrY52FrGOJn8dity2Oi8ziPuJGfFvGWls5BuHjHe6TZJ+OZwztSxJ/bQM2Ej8ScXWj7YeWEqsCeBB8tbjnBKB/FlmEJ8qEcQQ9iY9vVnygN9AeqhirxbXQ1I5lxF/YrH1o11MN/wteevxJyWC+EpmEOeXCGIA0w+ArM+Md662iTSfc6MTLkgqbi9SIR99crF1uz1Cd27/5s68+08lgrg1M4hXlghiHgeTnnpsayf5NnBgC+slqZwLiT/B2Lrd2vrBOogTyFuXm0sEcU9mEE2fKE+mzCiFw7Z1pAGSJPXDQlLxHn2SsXWz3Ui3pqc/mLz1ubtEEA9lBtHkA3Snk+YXiNphHgfe0uD6SSrrQFLxHn2ysXWrrQX2p1v2IG+dikxmlDudZlP3y8+kzAAfuW0SOKOhdZRU3knE/nCwdattofDQuYXsTN56FZnOODe5TTiZ9Os7esfZfgc6saF1lVTeGXTjB4Qttk2SriR3Ve769T+AGQ4i5p7/fG09cEgD6yupGadRZthYWz/b46QryV2Wu479D2A7C2n3af9h27fo1kMkkuZ2Ij4TUGNbSzcv+8+Uu579D2A77ygQT9PNWQ+lfjmAVLxHf3fY2mk30r0H/maTu679D2DK3vRjOM/1wM8VXG9JzZseSKyLtxdtZdpG4J306ypt7jr3P4AplxeIpa12acH1ltSePYH346iB49TWA5fQnRH+hpG77v0PgP5N5rGB+MkkJI1uKXA2cD2+LdDHNkma0vcs+v1dnJuHOQ0yS9+8CynQx3zOBT5YYDltOhv4UHQQkrItB44lTdF6GOmZgT2AJTgvSLTHSD+41pBGvvs+aRbXa6f+ru/Cz7+NViAD+maBOKbbraR7fYcDu061w6f+Lnfeg+3b9YXWXZJUp/Dzb3QAe1LmEtxm0vzIO83R106kqw25ox9um4p5efbaS5JqFX3+DQ/glAIxbAaOH6LP4ylTBLx+pDWWJKnh8+/TGgm5rKMLLOMC4Ooh/v/VpKlDc5WIXZKkENFXAL6c2f+tzH3ZfzY7Abdl9n3VCP1KkgReAeDgzM//FbB1hM9tBa7I7Ds3dkmSGtGHAmD3zM9/Jeiz0O/3TyVJY6wP4wBsJu9d2yWkQYRG/ez6jL43A0/P+LwkqV6Nnn/7cAUgV04BUmIQI0mSOqcPBcCGzM/vk/HZfTP7zo1dkqRG9KEAWJv5+VdkfPblmX3nxi5JUiP6UADclfn5Mxn9NcAzM/u+M/PzkiQ1og8FwKrMzx9OmphnWOcAz8nsOzd2SZLCRA8E9IYCMWwGXjZEny8jzTKV2+/rRlpjSZLiz7/hAayg3GRA5zH37YAFpFkBS5z8t5KmDJUkaRTR59/4AEjzO+fGMd1uB94OrAQWT7WVpPkCbi/Yz9cLrbskqU6Nnn8XNBJyeVcCLyy0rOcAlxda1lyuLLSc3CIqdywD+6+7fzVrBfAS0o+Qw4BDSCOI7k76cQJpILN1pLeKVgF3kH6sXAesbjnerjF/DevCFYBlpI1Y6td502095YYBjs6//dfdv8o7ivQj5Fbybm9OArcAlwHPb3UNYtWUv/DjPzyAKZcViKWtdnHB9Y7Ov/3X3b/KWEL524wz222k25vTv3zHSa35Cz/+wwOYshdpZL2mNn6p9gjpslQp0fm3/7r7V56lwEXAQ7T3HbQGeB/5E6l1Qe35Cz/+wwPYzoUF4mm6nV94naPzb/9196/RTACnAQ8Q9130EOn7qA/jvcxk/pLw4z88gO0sBL5dIKam2o2Uf7AyOv/2X3f/Gt6BwNeI/z6abtcB+ze6xmWZvyeEH//hAcxwIOmJzuidYmZbSzM7SXT+7b/u/jWc1wAPE/99NLM9Ary+wfUuxfw9WfjxHx7ADpwEbCkQW6m2BTihoXWNzr/9192/BjMBvJ/476K52iTpAeUuvhpq/nYs/PgPD2AWZ1BmhMASO8XpDa5ndP7tv+7+Nb8FwBXEfxcN2q4k3U7tCvM3u/DjPzyAOZxGmWF7R22Pkz9j4Hyi82//dfevuS0EvkDcd9Co7e/pRhFg/uYWfvyHBzCPE4l5JmAtzV323150/u2/7v41uwngY7T/3VOq/TWxtwPM3/zCj//wAAZwAPCtArEO2m6kvadCo/Nv/3X3r9l1/Z71IK3koGXDMn/zCz/+wwMY0PRMfo8UiHm2thF4J+3OoRCdf/uvu3/t2Gtp7numzTYJ/Frh3AzC/A0m/PgPD2BIe5Iqy5KjBq4HLqHsCH+Dis6//dfdv56qq68ij9qaeoV5NuZvcOHHf3gAI1oKnA1cz2hvC0ySpvQ9i3IT+4wiOv/2X3f/erIJujVITal2Le08D2D+htPo8T9IwLlfIl1453Q5cCxwNGnKyAOAPUgTTEC6WrAGuBv4PnADaYOuaT3Sp4rOv/3X3b+e7AzSK2vj6E2kB9uaZP6G0+jxX0sB0GfR+bf/uvvXE5aS5pNf3sCyNwBfBK4Bbgb+lXSZHNKkNPsDRwDHAb/KEz9eSnoAOJT0HFUTzN/wwo//Ri9BaF7R+bf/uvvXEy4if3vMbPeRbjPuMkQcu5DGH7mzgXjeM0Qcw7qogXjHPX/hx394AJWLzr/9192/kiWUnZL2p8B7gV0zYlpIeivp0YJxrQYWZ8Q0G/M3mvDjPzyAykXn3/7r7l/JBeRvi+l2J/DcgrG9CLi/YHxvKxjbNPM3mvDjPzyAykXn3/7r7l/J7eRvi23ATTTzOvE+wK2FYrylgfjM32jCj//wACoXnX/7r7t/wVHkb4dtpF+uTY4lsi/lfskeWTAu8ze6Ro//pxUKUpLG1akFlvEz4NeBBwssazb3TvWxucCySqxzyWXVnL9Q/gKJFZ1/+6+7f5W5NPzeFuN9V4F4byoYj/kbXfjxHx5A5aLzb/9191+7FYw2kuj27T7ynlYf1iLgrsyYt5IGS8tl/vI0evx7C0CSZvcS8gdT+T1gU4FYBvUYae6SHE8jrXsu89dhFgCSNLuVmZ9fD3yyRCBD+hRp9tIchxeIw/x1mAWAJM3u0MzPX0UatKZtm4AvZS7jsAJxmL8OswCQpNkdkvn5a4pEMZqrMz+fu+4lllF7/hplASBJs8t9kOvmIlGMJndAmhIPsZm/DrMAkKTZ5Y7rfk+RKEZzd+bnS8yYZ/46zAJAkmaX+yW+vkgUo8mdlrbECcz8ddiC6AD0b5YAJ5Lmqz4C2I80j3Wu6HfB7T/WY6R50e8hXU69hvRg1YbIoCT1gwORNGsv4EOkp05zc22zDdI2AR8BDkLzWUNeriPvA6+YI65B2uoCMZi/PLnH+py8BRDnGaQBLu4EzgJ2iQ1HFdkFOBP4P8DFwM6x4XRa7rvg+xeJYjQHZH6+xFUi89dhFgAxDgJuJI1v3eYQl9L2FgLvJN0W2DM4lq5ak/n5krPqDeuIzM/nrnuJZdSev0ZZALTvSODrwHOjA5GmvAj4Fvmjto2jH2R+/rgiUYzm+MzP5657iWXUnr9GWQC06yDgn2h2TmtpFPuQHg70SsCTrcr8/Inkvwo3il2BV2Uu444CcZi/DrMAaM/Tgc/gyV/dtS/wOXwmYHu3ZX5+MXBKiUCG9EbyT5y3F4jD/PVco08hVuT3iH/622YbpP0Rmrac/Ols7yQ9b9GWnUmD2OTEvBV4VoFYzF+e3GO5/wGMgb1IT8NGf7HbbIO0zcCBaNot5Of0nS3G++4C8X63YDzmb3S5cfQ/gDHwIeK/1G22YdqH0bTLyM/no6SHLZt2DKmAy433koIxmb/R5cbR/wB67pk4yI+tf20jMQ9fddHzKZPT+0kPWzZl36k+SsSa+wrc9szf6HLj6H8APfefaP/L22Yr0V6Ppt1GmZzeSjMnsX0LxtjEDHzmbzS5sczJtwCaF/keq5Qj9z3ocfLRQstZSRpzoeTl7GOmlnl4oeWVWtcmlllr/sI0WoFU4Ju0/8vNZivRrkfTFpM/rv327VHgXcCijJgWkR5YK3HPero9SDOjk5q/0eTG0/8Aem41zX9R22xNtAfQ9t5H+Rz/EHgLw500FgNvJf9VtR21dw8Rx7DM3/By45nTxIAB5Bikj3G2mbwqVYqymTSAlZLdSSPbNTGY10bgS6R5Gb5Hmr553Xb97g88j3RL8QSa+ZX+E+AwYH0DywbzN4rw82+jFUgLSld4bTcpR/T+O277/+nE56SpdmrBPM3G/A0n/PgJDyBT9E7R9/yp36L333Hb/yeArxKfl9LtGtq5Wmv+htPo8VPDLYAufokMIzp/6jf3//L2BW4ClkUHUsha0rv697TUn/kbXKPnX18DlKTh3Au8mf4XV5DW4QzaO/mD+euVRi9BtCD60lDf86d+i95/x3n/v5j4/OS23y+elcGZv/mFHz/hAWSK3kH6nj/1W/T+O877/wRwBfE5GrVdSewtFvM3v/DjJzyATNE7Sd/zp36L3n/Hff9fCPw98Xkatn0eWNBAPoZl/uYWfvyEB5Apekfpe/7Ub9H7bw37/07AR4jP1aDtE6QTb1eYv9mFHz/hAWSK3ln6nj/1W/T+W8v+P0G6pz1JfM5ma5Oke9ZdfLPC/O1Y+PETHkCm6J2m7/lTv0Xvv7Xt/68GHiI+bzPbOuC1Da53KebvycKPn/AAMkXvOH3Pn/otev+tcf/fD/gX4nM33a4Bfr7B9S1tP8zftPDjJzyATNE7T9/zp36L3n9r3v9PAn5EXO5+ApxGNy/5D8L8deD4CQ8gU/QXWN/zp36L3n9r3/93A/4r7c4K+iBpVrolLaxf02rPX/jxEx5ApugvsL7nT/0Wvf+6/yeLgbcBt9Bcrm4GzqeZme6i1Zq/8OMnPIBM0V9gfc+f+i16/3X/f6ojgUtJ4+FvZfTcbJ1axiXAEa2uQaya8tfo8eNkQN0XnT/1m/t/t+0BvAQ4HHg2cAhpkpzdSb96Ic11vw54GFgF3AHcDlxHemK+ZuOev0bPvzUUANGi89f3E0Dtord/7cevFKnR49fZACVJqpAFgCRJFbIAkCSpQhYAkiRVyAJAkqQKWQBIklQhCwBJkipkASBJUoUsACRJqpAFgCRJFbIAkCSpQhYAkiRVyAJAkqQKWQBIklQhCwBJkiq0IDqAFuTOpyzVLPr4mXM+8xZEr7/6LXr/nZNXACRJqpAFgCRJFbIAkCSpQhYAkiRVyAJAkqQKWQBIklQhCwBJkipkASBJUoUsACRJqpAFgCRJFbIAkCSpQhYAkiRVyAJAkqQKWQBIklQhCwBJkiq0IDqAFkTPx+x84uqz6ONHUkO8AiBJUoUsACRJqpAFgCRJFbIAkCSpQhYAkiRVyAJAkqQKWQBIklQhCwBJkipkASBJUoUsACRJqpAFgCRJFbIAkCSpQhYAkiRVyAJAkqQKWQBIklShBdEBtGBbdABSj0UfPxPB/UtjyysAkiRVyAJAkqQKWQBIklQhCwBJkipkASBJUoUsACRJqpAFgCRJFbIAkMZb9Hv8kjrKAkCSpApZAEiSVCELAEmSKmQBIElShSwAJEmqkAWAJEkVsgCQJKlCC6IDaEH0fOK+h60+iz5+JDXEKwCSJFXIAkCSpApZAEiSVCELAEmSKmQBIElShSwAJEmqkAWAJEkVsgCQJKlCFgCSJFXIAkCSpApZAEiSVCELAEmSKmQBIElShSwAJEmqkAWAJEkVWhAdQAu2RQcg9Vj08TNRef9SY7wCIElShSwAJEmqkAWAJEkVsgCQJKlCFgCSJFXIAkCSpApZAEiSVCELAEmSKmQBIElShSwAJEmqkAWAJEkVsgCQJKlCFgCSJFXIAkCSpApZAEiSVKEF0QG0IHo+7+j51KUc0cePYvn9Nca8AiBJUoUsACRJqpAFgCRJFbIAkCSpQhYAkiRVyAJAkqQKWQBIklQhCwBJkipkASBJUoUsACRJqpAFgCRJFbIAkCSpQhYAkiRVyAJAkqQKWQBIklShBdEBtKD2+aydz105oo+fru+/K4CXACuBw4BDgKXA7sDiqf+zEVgHrAVWAXcAtwPXAatbjrdtXd9+Xdfo8TfIxskNIHoHiP4CyxWdP/XbJP3eh7oY+1HAqcDLgcMZPcZtwG3AV4BPAd8pEl1Zff/+77vw/G/LbNFy449uUo5J4vfhcdj/lwAXkH65N7WutwFv54krB10wLtuvr8LzHx5ApugvsL7nT/1mAZBnKXAR8BDtrfMa4H2k2wjR+r79+i48/+EBZIr+Aut7/tRvFgCjmQBOAx6YJa422kPA+cQ+rN3X7TcuwvMfHkCm6C+wvudP/WYBMLwDga8NEWPT7Tpg/0bXeHZ93H7jJDz/4QFkij54+54/9ZsFwHBeAzycEW9T7RHg9Q2u92z6tv3GTXj+wwPIFH3g9j1/6jcLgMFMAO9vcD1KtEngYtp9sr4v229chec/PIBM0Qdt3/OnfrMAmN8C4IoW1ym3XQksbCQTT9WH7TfOGs2/4wB0X3T+1G+OAzC3hcD/Ak5quJ/SvgC8FtjScD99//7vu0bz71DAkmo1AXyY/p38AV4NfAxPsMpgASCpVpcCb44OIsMbgT+KDkL95S2A7ovOn/rNWwA79lrgMw0tu03bgN8APtfg8nP0ed/rgkbzbwHQfdH5U79ZADzVgaRx93drYNkR1gH/AbingWX3/fu/73wGQJIKmQA+zvic/CENGfxRPNlqSBYAkmryn4FjooNowH8kPRMgDayGWwDRNgOLooOQRrAZeHp0EAUtBVYByxtY9gbgi8A1wM3Av5IuzUP6hb4/cARwHPCrpNkFS3sAOJQ0amAp4/D9vydwLHA0cBhpWywHdp36903AatItlO8DNwDXAg+2HulTheffgSDyrCZ+4BCbbZT2AOPlIsrn6D7gLGCXIeLYBTgTuLOBeN4zRByDyI0nyjLgXODGWeKar02SCoFzppYVJTz/4QH03Ddp90vbZivVrmd8LKHslL4/Bd7LE78iR7EQeCfwaMG4VgOLM2KaKTeetu0NXA5sHDHeHbUNwGXAXi2ux7Tw/IcH0HMfpr0vbJutZPsLxscFlMvLncBzC8b2IuD+gvG9rWBsubG0ZQFp6uT1BWKerW0iXUVq85ZueP7DA+i5U2huh7TZmmyvY3zcTpmc3ASsaCC+fYBbC8V4S8G4cmNpw8HAdwvEOmj7NulV0jaE5z88gJ5bTLqE1NbOabOVaBspeyk50lGUycmdNHPyn7Yv5a4EHFkoptw4mnYy6aHHto+PdbQzhHSj+fc1wOZtBP5ndBDSkP6GtO+Og1MLLONnwK/T7JPh9071sbnAskqsc9edDnwWeGZA37uRRl98S0Dfrep6BdgHBwGP0X6VarON0h4lvSo1LkpcWn9vi/G+q0C8NxWKJTeOppxJN6a6ngTOaHA9w/MfHsCYuJj4ndVmG6T9AeNjBfknivvIe9p/WIuAuzJj3grsUSCW3H2pCScDjxeIrVTbApzY0LqG5z88gDGxEPgq8TurzTZX+zqwM+PjN8jPyVmtR50uLefG/WsF4siNobSDiLnnP19bDxzSwPo2mn+fAWjPFuD1wI+iA5FmUfIedFeszPz8euCTJQIZ0qfIfwbj8BKBdMhC4NPE3POfzxLSczMLogMZhgVAux4ATsAiQN1zL2nfHLfR/w7N/PxVpEF/2rYJ+FLmMg4rEUiHvB14XnQQczgKOC86iGFYALTvNtLUnV+NDkSa8g3gBaR35cdN7mXZa4pEMZqrMz/fxCXpKHsD74sOYgC/C/xcdBCDsgCIsQZ4JenBwMeCY1G9HgP+kDRRyrj98p+W+yDczUWiGE3ugD4lHgLsigtp90HMUS0hjTo5Nrr2EMi4OYA0XHDJsatttrnaBuAvGa9X/WazhrxcRZ5EV8wR1yBtdYEYcve1EpbRr+/HDaSZJ0toNP9OB9wdi0n3YI8jjeK1P2kaUacSVo7HSKOW3UN6N/wa0r3lTZFBtSh3Ou6dibtKtzNpTIZRlZjOuQvf/+cCHyywnDadDXyowHIazb8FQPdF59/+6+6/7ywA8nRh//sm8IsFltOmG4BfKrCcRvPvMwCSxtmGzM9HvnK2W+bnc9e9C1aQnq7vmxcCe0YHMR8LAEnjLPdd+sjnJA7I/Pw4FADH08+rWBPAL0cHMR8LAEnjbE3m50vNqjeKIzI/al6OBQAACc9JREFUn7vuXfDC6AAyHB0dwHwsACSNsx9kfv64IlGM5vjMz+euexf0eTCj3EGoGmcBIGmcrcr8/ImkN3Tativwqsxl3FEikGAHRQeQ4eDoAOZjASBpnN2W+fnFwCklAhnSG8kvPMZhZMdS79NH6HzsvgbYfdH5t/+6+++75aRRDnPycBfwHNKEXm3YGfg+eQ8gTpKeoH8oM5bo/S/3Nc5InX8N0ysAksbZavKvAhxEu8O7/jb5bx/cTP7JX2POAkDSuPtKgWX8LvCiAsuZzzHAfyuwnBLr3AW5r3FG6vxrmBYAksbdpwosY2fg74B9CixrNvsCn6XMJe8S69wFD0cHkGFtdADzsQCQNO6+Q5kH4vYkzaPQRBGw79SyS4wedwuxsxiW9MPoADLcGR3AfCwAJNXgo4WWsxL4FmVvBxwztczDCy2v1Lp2QZ9fZcx9BbUTujAdZM2i82//dfc/LhaTPzXw9u1R4F3kXa5fBLyb9LR4qbgeJI0hUEr0/ndKgRii2usKrH90/uMDqFx0/u2/7v7HyfvIz+fM9kPgLQx30l0MvBW4u4F43j1EHIOI3v9WkF5pLJ2nptsk6RXUXI3m33EAui86//Zfd//jZHfSZdkVDSx7I+ke/jXA94B7gHXb9bs/8DzS0MInUPZX+rSfkIbOXV9wmV3Y/26gf3MCfAN4cYHlhOc/ugKsXXT+7b/u/sfN6eTntKvt1IJ5mtaF/e+cAnG03c4qtO6N5t8rAN0XnX/7r7v/cTMB/Avw0uA4SruWNHlQqZPutC7sf8uAe2nmqkkTNgA/T5nXABvNv28BSKrJNuBN9Pv98pnWAr9J+ZN/VzwM/GV0EEP4c3owBsCgunAJqGbR+bf/uvsfVyfRz4fLZrZJ4DWFc7O9rux/e5F+WUfne772CGWfMQnPf3gAlYvOv/3X3f84u5j8/Ea33y+elSfr0v53YYF4mm7nF17n8PyHB1C56Pzbf939j7MJ4ArycxzVrqT5Zzy6tP8tBL5dIKam2o3AgsLrHJ7/8AAqF51/+6+7/3G3EPh78vPcdvs85U82O9K1/e9A0uuV0fmf2daSP4PjjoTnPzyAykXn3/7r7r8GOwEfIT/XbbVPkAqXNnRx/zsJ2FIgtlJtC2lshyaE5z93mMoSM1vVLHoHsP+6+6/FBOmZgC4/GDhJuuff5qudXd3/zqAb22qSNLZEE3bOjO3REkE8lBnEshJBVCz6ALT/uvuvzavJ/85roq0DXtvges+my/vfacBjBWIctT0OnNng+u2RGd/qEkHckxnEQSWCqFj0AWj/dfdfo/1IgwWVOEmUaNeQBpaJ0PX970RinglYS3OX/acdnBnj3SWCuDUziFeWCKJi0Qeg/dfdf81OAn5EuZPGsO0npF+5kaM59mH/O4A0nXJb2+VGmnngb6YTMuO8eb4OBhkJ8P4RAt/eYZmfl6QI/wCsBN5Lmkq4LauB9wCHAJ/EQm4+dwO/BLyNshMhzbSJNAX0i0lXxpt2aObnc8/dAPwpeVXI/ygRRMWiK3D7r7t/JYtJJ5hbKPMrcrZfbOfTrTHv+7b/7Qm8n7KjBq4HLqGZWSTn8unMuP+4RBDnZQbxAE5IkiP6ALT/uvvXUx0JXArcBGxl9G2zdWoZlwBHtLoGg+vr/rcUOBu4ntHeFpgEvk6a1W9py7FDOmc+OES8O2pnD9LJfF4B/NPQ4T/Z0aT7Jhpe7kHU99no7D+2f81tD+AlwOHAs0mX7ZcBu5OuGgBsJD2o9jCwCrgDuB24jvTGQZeNw/63HDiWdB46jPTMwB7Akql/30C6xXM38H3gBtLsim3e9pnpRaQCJMfLgX/ODWQP8t+3/NPcICRJrevrFYC++xB5ed8KPKtUMN/LDOYhunVfS5I0PwuA9i0hXS3Kyft3B+lokLcAIL2HmmMZ8FuZy5AkadydTf5zB1eXCGTaieRXgvfxxD0xSVL3eQWgXc8kPTifm/dXlQzq6aSRj3KDen/JoCRJjbIAaNcHyM/5w6R5BIoqMVvWY8DzSwcmSWqEBUB7XkCZWQ7/oongXlogsG3AXcBuTQQoSSrKAqAdu5NeQyxxjn1xEwFOAHcWCvALwIImgpQkFWMB0LwFwFWUObeuosGxF95aKMhtwBVNBipJymYB0KwJ4OOUO6/+ZpPBLgT+b8FgPzG1TElS91gANGcnyjxbN93uBRY1HfT5BQPeRppxy2cCJKl7LACasTvlLvtPt3PaCPwZpAf5Sgb+Q+CoNoKXJA3MAqC8F1Dugb/ptooGXv2bzSsLB7+N9PrDH5MGQpAkxbMAKGdX4GLKvOo3sxUd+GcQf1co8JntfuBCHDVQkqJZAORbAryDMiP87aj9bXur8oR9SJP8NLFC20ijGf0ZaQpH3xaQpPZZAIxmgjSl74fIn9hnrrYa2DsnyByvBj5fYDnzWU2an/kG0lzad5Pmat5AGl1QklRe7kl83H+8LSL9wt8DOAB4NulH67FTf9ekbaR5er406gJKbJzLgAsKLEeSJA3mEuBdOQsoUQAsBP6ZNFSwJElq1rWkh/G35Cyk1OWZZwJfBY4stDxJkvRUt5J+cK/LXVDJ+zN7A/8b2L/gMiVJUnIPabKfn5RY2NNKLGTKfcArSAFKkqRy7gFeTqGTP5QtACCNEPgi4HuFlytJUq1uA15CGjW3mNIFAKSBfI4lPRMgSZJGdy1wDPDj0gveqfQCpzwK/DXpPcWXMv7vgkqSVNI24IPAacBPm+igjRPziaT5jp/VQl+SJPXdQ8DppBkDG9PELYCZvggcAXy2hb4kSeqzTwO/QMMnf2j/0vyxpPH9n91yv5IkddldwHnAP7bVYRtXALZ3LfA80kr+qOW+JUnqmnuBc4GVtHjyh9iH8xaRHm54B3BwYBySJLXtB8ClwJUETWrXlafzn08qBk6l+RmUJEmK8AjwBeCTwNUET5nclQJg2tOB44Djp/78Bdq/TSFJUgmTwM3ANaQT/jXA5tCIttO1AmCmZ5GeGTgUOAw4BNiTNP/y7sBi0q0ESZLa9hiwkTQxzwbgAWAVcAfpEv9NpFf6JEmSJEmSJEmSJEmSJEmSJEmSJEmSJEmSJEmSJEmSJEmSJEmSJEmSJEmSJEmSJEmSJEmSJEmSJEmSJEmSJEmSJEmSJEmSJEmSJEmSJEmSJEmSJEmSJEmSJEmSJEmSJEmSJEmSJEmSJEmSJEmSJEmSJEmSJEmSJEmSJEmSJEmSJEmSJEmSJEmSJEmSJEmSJEmSJEmSJEmSJEmSJEmSJEmSJEmSJEmSJEmSJEmSJEmSJEmSJEmSJEmSJEmSJEmSJEmSJEmSJEmSJEmSJEmSJEmSJEmSJEmSJKkV/x/9Ia/t4nOnGQAAAABJRU5ErkJggg==;fontFamily=Space Grotesk;fontSource=https%3A%2F%2Ffonts.googleapis.com%2Fcss%3Ffamily%3DSpace%2BGrotesk;fontSize=27;fontStyle=1" vertex="1" parent="1">
          <mxGeometry x="1645" y="-226" width="178" height="178" as="geometry" />
        </mxCell>
        <mxCell id="StRmfVQufm-jLz1Iqn4o-19" value="ECG/SpO2 sensor" style="shape=image;verticalLabelPosition=bottom;labelBackgroundColor=none;verticalAlign=top;aspect=fixed;imageAspect=0;image=data:image/png,iVBORw0KGgoAAAANSUhEUgAAAgAAAAIACAYAAAD0eNT6AAAABHNCSVQICAgIfAhkiAAAAAlwSFlzAAAOxAAADsQBlSsOGwAAABl0RVh0U29mdHdhcmUAd3d3Lmlua3NjYXBlLm9yZ5vuPBoAACAASURBVHic7d13nF1Vuf/xz0wmPQSSQEJPCKE3pUgH6UgRgoD0DgpIUfRaUEEEe6H9KBevSJGugnQQkN4JvWMogYSakN7n98czc5kbZk7mnP2stXb5vl+v9QIxWedZ++yz97PXXqUJkeoZDGwJbASs3FYGA/2BRRLGJSIC0ApMAqYCE4BXgBeB+4FHgTkeH9LkUYlIASwO7AMcAGwANKcNR0SkIdOAW4DLgNvIkAwoAZCyGwF8GzgS6Js2FBERV+8DfwTOAabX+5eVAEhZDQROA44FWhLHIiIS0gTge8BfsdcH3aIEQMpoJ+AiYOnUgYiIRHQ3cDAwrjt/WO9BpUxagF8DN6Gbv4hUz9bAGOAr3fnDPcLGIhJNb+BK7F2/erZEpKr6YQOePwCeqPUHlQBIGfQHbgd2TB2IiEgONAO7ALOBB7r6Q0oApOh6An8HtkkdiIhIzmwDTMTWDvgcJQBSdP8N7J06CBGRnNoeeBx4fcH/Q+9Kpcj2wd77i4hI1z4B1gXe6vgflQBIUY0Ansfe/4uISG13A9vSYZ0AvQKQoroEWCt1ECIiBbEC8BrwXPt/UA+AFNGOwK2pgxARKZjxwCjalg1WD4AU0cXA8qmDEBEpmEWw9QEeBfUASPFsAdybOggRkYIaB4wE5mgpYCmaw1MHICJSYMsCO4B6AKRYBmDvsAY41vkxcAW2v/ab2PaaIiIp9QKGAV8ARgNfxXfvnmvR+ilSMLthU1g8ynxsH+1Fo7ZARKR+awIP4Xf9m4KtoipSGGfhc/LPAw6MHLuISBa9gavxSwI2ixu+SDZP4XPi/yB24CIiDnoDD+NzHfxh5NhFGtYMTCP7Sf8svu/SRERiWguYS/Zr4aWxAxdp1HB8st79YgcuIuLs72S/Fj6qJyEpiqUc6pgN3ORQj4hISv9wqGNpJQBSFIs41DEWmOxQj4hISs841LGIEgApCo9d/z5wqENEJLUJDnUoAZDC8Ni3Yo5DHSIiqXlcy5qVAIiIiFSQEgAREZEKUgIgIiJSQUoAREREKkgJgIiISAUpARAREakgJQAiIiIVpARARESkgpQAiIiIVJASABERkQpSAiAiIlJBSgBEREQqSAmAiIhIBSkBEBERqSAlACIiIhWkBEBERKSClACIiIhUkBIAERGRClICICIiUkFKAERERCpICYCIiEgFKQEQERGpICUAIiIiFaQEQEREpIJaUgcgIiLdMhjYG9gcGAHMBsYB9wHXAROTRSYiEtDXgNaM5a7oUYtk1ws4BZhK1+f2ZOCH6KGuKgaR/XrYGj1qkQYpAZAqGgjcQ/fP8duB/kkilZhcEgCNARARyadm4Grgy3X8ne2By4GmEAFJuSgBEBHJpyOAHRv4e7sD+zvHIiWkBEBEJH96YO/0G3U6NnZApEtKAERE8mcHbKR/o4YDh/qEImWlBEBEJH8OdqjjR6gXQGpQAiAiki+DgK861LM8cIhDPVJSSgBERPJlX6CPU10no14A6YISABGRfPHo/m+nXgDpkhIAEZH8WB34knOd6gWQTikBEBHJj0MC1KleAOmUEgARkXxoAQ4IVLd6AeRzlACIiOTDDsBSgepeHt+xBVICSgBERPIh9A36x6gXQDpQAiAikt5gfOb+16JeAPk/lACIiKS3L9A7wueoF0D+lxIAEZH0Yj2ZLw8cFOmzJOeUAIiIpLUGsEHEz1MvgABKAEREUjsk8ucNR70AghIAEZGUWoD9E3yuegFECYCISEI7Em7ufy3qBRAlACIiCaWclqdegIpTAiAiksZgYNeEnz8cODDh50tiSgBERNLYjzhz/2v5CeoFqCwlACIiaeRhVT71AlSYEgARkfjWANZPHUQb9QJUlBIAEZH4Dk0dQAfqBagoJQAiInGlmvtfi3oBKkgJgIhIXDsCSzrU8w5wl0M9YL0ABzjVJQWhBEBEJK5DnOq5BHty9/JT1AtQKUoARETiGQzs4lTX5cDDwJ1O9akXoGKUAIiIxLM/PnP/HwBeafv3Uxzqa6degApRAiAiEo/X3P9LOvy7egFEpNS+BrRmLF4DpkQasQbZz+FWYDqw2AJ1b+xUdyvwBjZTQfJrEA7ftXoARETiOMypnr8Bkxb4b569ACPRugAikiPqAZAiawHG4/OEvm0Xn+HZC/A66gXIM/UAiIgUxE74zP0fB9zTxf/n2QuwIuoFKD0lACIi4R3sVM9fgHk1/v9TnD4H4GTUC1BqSgBERMIaAuzsVNflC/n/vXsBNCOgxJQAiIiEFWLufy2evQA/Rr0ApaUvVgB6AgPa/r0ftS9Ws7BpSGAjkVsDxiVSBl7d/5cs/I8An/UCbOfwme29AH9xqEtyRglA+TUBI4DVsek9K7T976WAxYElgEUz1D8ZmAB8BHwA/AcbQfwG8BrwJkoSpLrWBNZ1qGcGcF0df/4UfBIAsF6Ay4G5TvVJTigBKJ/lgM2ATYAvAmsBAwN+3sC2snIX//8kYAzwFPAEcC82HUqkCkLO/a9FvQAiFTAI2Bu4GNse1GsecMjyEnA+sCefvXpYGK0DIEUTY+5/LVoXoLxc1gGIHrW4WBL4FvY0PZf0N/QsZQZwE3Ak9jqiK0oApGh2w+c38g7Qo8EY7nCKoRW/sQySnRKAiukLHIQtAlL0m35XZTZwPTCaz+9IpgRAiubv+Pwufp4hBvUClJMSgIpYDTgbmEj6G3TM8iHwa2xMAygBkGIZAszE57ewSsZY1AtQPkoASm5rrGt8PulvxinLHOAq4HSHupQASCwn4HP+3+8Qi3oBykcJQEntBDxO+htvGYsSAInlKXzO2SOc4lEvQLkoASiZrYGHSH+TLHNRAiAxrInP+TodWMwpJvUClIt2AyyJUcA12M1p48SxiEh2qeb+1+K9R8B+TnWJVFJ/4LfY0rqpn4yrUtQDIKGlnvtfi2cvwGuoFyAlvQIosC2BV0l/Q6xaUQIgoe2Oz7maZe5/LZ5jAQ4KEJ90jxKAAloUW04z9Y2wqkUJgIT2D3zO1Sxz/2tRL0A5KAEomI2wwTOpb4JVLkoAJKQh+L3Syzr3vxb1AhSfEoCC6AGcRnlX7ytSUQIgIZ2Iz3n6QOA41QtQfEoACmAIcBvpb3wqVpQASEhj8DlPj4wQq2cvwIER4pX/SwlAzn0BGEv6m14j5ZMaZV4O4mu0KAGQUNbC5xz1nPtfi3oBis0lAdCXFsYuwJV0f6vbGFqxkcWvYDMQXmr75yfYPgPTgKlt/1yYftg0xkWwi9ViwMrAqti7y1WA4UDe1ploSh2AlJbX3P+/4zf3v5b2dQG2c6hrFLAvcJlDXSKFdiz5eN8/G3uXeBqwFXbDjqkPsBnwU2wHQ6+NUbKUucTpXpVqaQEm4HOOetyQu0u9AMWlVwA59HPS3uAmAGcCO5Kv3gew7Yy3AX6D9USkOkbzgR8HbqtUy2h8zs1xhJn7X4vnWIADIsdeZUoAcqQJ+ANpbmgzgKux1w5FycCbsVXOLsVeO6Q4bmejVwLi43p8zsnTYweOby/AqxTnGlR0SgByogk4j/g3sNeBo4kzYCikAcChwPPEP4bnoiRAshmKvW7zOB9XjRx7O/UCFI8SgJz4DXFvWs9ji2+ULdNuAnYFHiXu8TwLJQHSuG/jcx6Gnvtfi3oBikcJQA6cTrwb1RhgD/I3sj6EnbBRyrGO7W/iNEtK6Gl8zsHUg1PVC1AsSgASO4E4N6dPsK7+Ktz4O2oCDgbeJ85xPiFOs6REvojPuRdr7n8t6gUoFpcEQF2fjdkZuIGwI3ZbgcuB72E3wapaDPgZNr0y5PGeD3wduC7gZyxMX2BrYCXs3XKZkr5J2NoT9wCTE8fi5Ux8EscrgP0d6snqDvymIV4OvOtUV9HMxq7ZTwCPY9cWb4Owh0OJbH1ssZyQT6MvA5vHalBBrI/fUqtdlRnYpk2xDQZ+R7oZETHLdOB8LMEpsl7AB/gck5hz/2vZhPTnR9nKO8A38e8R0SuABIYSfg77ZeRvDn9e9MYG7YU8/uOBZWI1CFsy+q0A7ch7mYB1OxeV19z/t8lXT4/nWACVz8q/sETfixKAyHoQ9scxA72H7q7R2PLFob6Lh7AnvNBWAj4O2I68l6lYAlREN+BzDM6IHfhCqBcgXHkIe4jxoAQgspDT/V4E1ozXlFIYBTxJuO/k7MDxNwNPBYy/KOUV4iRbnrzm/s/H9tDIG/UChCu/reN7qEUJQETbEm4XvHuBReM1pVT6ATcR5nuZj61LEMq+geIuYjkx47GMrQxz/2tRL0C4MhNYtvtfRZeUAEQyCHtPF+JkuAEb+S2N6wFcRJjv5wNgyUBx3xoo5iKW8VgyVxRlmftfi3oBwpXv1PE9dEUJQCTXEuYkuIj4G3+UVRPhXtHcFCje6YHiLWopSi+A59z/PPf8qRcgXLmxju+hK0oAItiDMCfAr9HysyH8F2G+L++VzRYPFGeRS1F6AbxmoVweO/AGqBcgTHm6ni+hC0oAAlsU257T+8u/MGYjKugM/L+zj4AlHGMcEiDGMpS89wKUce5/LZ6rA6p8VsbU8yV0QQlAYOfj/8X/DXX7h9ZEmDEBFzvHqFcAny/vke8xMV49gnmb+1+LegH8i14B5Nw6wFx8v/R7gD4xG1FhPfDbo729zMd34ZqbneMrS8nzWhj/xKeNp8cOPAP1AviXb9f1DXROCUBA9+D7hT8LDIzaAukLPIjv9/gwfmM3NA2w85LXXoBhlHvufy3qBfArM9A0wFzzWuKzvUwBVonaAmm3LPAhvt/nPk6xaSGgrkseewG+g0/b8jr3v5a1gTmkPy/KULy2HlcCEEAz8By+X3gedvmqsq9gT11e3+d/8Fu5bhTVXgq4q5LHXoBn8Wlbnuf+13I86c+LohctBZxz++H7hf933PClC7/C93s9wjG2dYA3neMrQ8lTL8C6+LQp73P/F+ZE1BPQaLkDbQaUaz2wdcm9vvBnyd9TTFW1YF2vXt/tG/hu7zkI6xqc4hhj0cu75GfQ7Nn4tOmvsQMPYH3sZubZq1bm8jbW6+M9+8slAdBiNJ/ZE1v1z0P7iPHHnOqT7EZhr3e8biqHAn9xqqtdH2BrbJDYMIq5WNRWwJec6jqB8JsyLUwv7JXEEIe6tgfudKgnD4YDWwIjKMYCTjHNxra7fhJ4HLsfeBsEfBKg3sp6CL+s75zIsUv3/Ay/7/hFinmDDm1N/DbOysNYgK/h05ZxaA0Q8aNXAI48172eACwWN3zppr7A6/h919vEDb8w/oHfMT4+cuwLuhGfdhRp7r/knxIAR3/F74LlvW68+NoBv+/6+sixF8UX8HtHnLIXwGvufyuwauTYpdyUADgZgi3O4HEw70PdwkXgtUrgXOxdqHyeZy/AcZFjb/fdOmKsVYo491/yTQmAE68FPlqxAVCSf+vg94T648ixF0UZegGeaTDeBUtR5/5LfikBcOK18M9DsQMviIHAwcAF2FPhTcDvgZ3xW1CnEV7rur8SO/ACKXIvwPpOcU9HY4LEnxIAB2vgd4HaOXLsedcLOAWYTNfH7G1s8aUUNqwRV71lo8ixF0WRewHOcYr78ogxS3UoAXDgNS3sKfTuv6PFqG8jngtIsz3qnXXEWKucFTvwAvHclTFWL0Av/PaQ2C5SzFItSgAcvITPQfx67MBzrAW4l/qPodcmGfXYpoE4OytvRo67SL5I8XoB9nSKV3P/JRQlABmNwucAfkTad9l58180dhzbV0+MqQnb3MfjPFgncuxF4tkL8K0I8d7kFKvm/ksoSgAyOg6fA/j/YgeeY/3I1nV6e/yQ3V4D/SR24AVSpF6AYfhteKO5/xKKEoCMbsHnAG4YO/Ac24Vsx3IusFTkmFfC5+b0YOS4i+YGfH5vrYTtBfieU4ya+y8hKQHIoCcwjewH7+XYgefcGWQ/pt+IHnV9Axa7KrOB/rEDL5Ci9AI86xSj5v5LSC4JQIqR13mwLj47WF3mUEeZeDy97+ZQR708vsee2J4S0rkx2Lr6HpYCDnOqq6MNgLUc6pmB386iIsFUNQHwulDf4lRPWQx0qGNrp3rq4fU9bulUT1mdil+348n49wIc7FTP34FJTnWJiLPryN598hHVTaC6cjc+3adHxQ4ceC1DvO2lLHu9h+Q5FuBYx7g091+KRGMAMvCY+nVd9Kjz7118TsqHYwcOXJgh3vbyUfSoiyevYwH2copJc/8lBiUADRqIzwXI8+mjDFbE54RsL2vHDZ+vO8W9fOS4i8hrHwbP3+HNTvFo7r/EoASgQZvic+BWix14znltndpeYg+wHIpPYvjVyHEX0brkqxdAc/+laJQANOgbZD9oH6O1/zvqAbyKbwIwm/hP0x5t+F7kmIvKsxfgmIyxNLp65YJFc/8lFk0DbNBIhzpeoaLZUxcOxRbU8dQT+LFznQvjsa7Dig51VMGp+P2GTgb6ZPj7BzjFcYlTPSISyNVkz5wujh51fi2N9Yh4Pv23lznA6vGawm8dYtZMgO67kfS9AF9y+vzp2C6YIjGoB6BBIxzqeMWhjjLoi815Hhyo/hbg14Hq7ozH96oegO47Bb9egB8AvRv4ewc7fb7m/osUgMdUtdHRo86fAcC/CPPkv2DZI1KbNneIdXqkWMsiZS9AL2zqpsdna+6/xKRBgA2aRfaDFrNbOo9WBp4hzs2/FUvaFo3QrqFO8Q6IEGtZeM4IeJv6egH2dvpczf2X2JQANGAgPgdtSOzAc2RP4FPi3fzby6UR2tYEzHOIdUSEWMvEsxfg6Do+V3P/paiUADRgBXwOWq/YgefAcsCVxL/xdywHBm+lvcfNGuf6EeIskxS9AEuiuf9SXEoAGrAW2Q/YzOhRp9UP+Ck+2ydnLZMJ//rlHYc4twwcYxndhN950p1egO87fZbm/ksKSgAasD7ZD9iH0aNOYyg2V9trgxSvMrYttlBedIhx+4DxldV6xO0FeM7ps47M2G6RRigBaMDGZD9g/4kedTzNwFbYgiYzSX+z76rcR7aFX2p5xCE+LQfcGM9egG/W+JwNnT5Dc/8lFSUADdiS7Afs2ehRh9WE9Yz8DhvNnPrm3t1yI7ZaoLc7HWLbK0BcVRCrF+A8p8+43KndIvVSAtCArch+wMZEj9rfksBB2AXsfdLfzBst12CLBXm6zSGurzvHVCVeI/Nb6bwXoA/wiVP9mvsvqSgBaEAVE4BewAbAcdgN/w3S37g9y4347QkPSgBSC90L4LXts+b+S0ouCYD301NqA7DNfgYC/dv+2dEa0SOKZzGs7Sti7VwDWBMYhf9Tcp7sAtwB7IY92eXBRthNrKOp2EyKT7GBjJNjB1UQTwK3Ajs51LUctlHVBR3+28EO9QL8BVszQqSwirylbU9sI4+tsCVcV8N+8KE9h40l+JTPX+S99QEWbyvD2v65RNs/h7b9+3LYjX9Q4Fg8zMVu0iFG8b+BLdH8XMZ6bgN2yB7OQo0HXgLuB+7BBh/OivC5RbAe8Dg+16d3sJ0qZ2EbV72Nz5P7avjsHinSiEE4PPAULQFoAjbBFoTZm/Q3vVnYSOCJwIy2f/90gT8zDdvbfkEtwCLYyPv2ZW4Xw9o4ELv5l2lJ2dnAvtiT7x2EOfemYdOyrsxQR6wEYEFTgL8BlwH/JnxymXc349MLADYW4EJsw6BfOtT3ILCZQz0ijXJJAIqiB7APcdefV/Er04FdO3yf5wf+vL/S+PQsjzEAWcsrWNd1iFkOReE5FuAtbCyAxxoPrWjuv6RXmUGAO2EXxNQXZZXGyrvYIMSOBmDdpyE/920a27UxDwlAe3mTak8pvAW/Y/lnp3qmE2djKpFaSp8ALIPtsZ36IqzSeLkXe+/ambWxi2noGG7Bdi/srjwlAO3ldmxwZ9V49gJ4Fc39lzwodQKwE/lbglal+2U2tozwwgZbHRYpnjnAn4DhC4kH8pkAtGJjS6o4vdCzF8CjaO6/5EEpE4Am4Azyl/WrdL/cS30b9vwxYmyzsGWO160RT14TgPZyLtWaf56nXgDN/Ze8KF0C0ILNrU39I1dprLyPrS5Y7+j+HviuAd/dcj9wBJ8fLJj3BKAV+Afh9kLIo1tJf8xbgdNDN1Skm0qVAPQEbiD9D1yl/jIJuzBmmZI5AHg4UfwzgeuBo4DlKUYC0IpNFfRcATHP1icfvQCrhm6oSDeVJgFoAi4l/Y9bpb7yEfAT/HZDG0Q+pnnOzkEM3S3/pNyrPHaUuhfggfBNFOm20iQAvyT9hVSl++Ul4DuEWaRoGH77tFel/HdDR7p4NiLtcdbcf8mTUiQAO5OPrj2V2mUGtvPetoRfPXIQtixu6jYXqRzc0JEunlSvZ6bj19Ml4qHwCcDywMddBKWSvkzDBpsdgi1ZHNOiwN0Nxl3FMhVbm77sUvUCaO6/5E3hE4AbawSlkqaMBy7Clu1NPcCsF36rt1WhPEDx9vZoRIpeAM39l7wpdAKwWx0BqoQr47B1879Bfp8gv4ct5JP6WBWhHNbgMS6S2L0AmvsveVTYBKAn8J8Gg1VpvHwE3An8BtuVr0hLy24BvEf6Y5j38gHQv8FjXCQxewE091/yyCUBSNFleDC24E9IHwMTsAvivA7/fRC2sliZvQO81lZexTZSeg7bHKfIhmHL+e6SOpBueA5bGKldExb/MGCJwJ99EvCHwJ+R2kbYuhExrIZtXCWSJ4XcDrgZm0YWIlO/DzgWWK7G528V6LNDl3lYMvMStoLd9cB5wI+x1fe2wS5Uqd/bx3AYti5+6u+kVtmnRvxLYlPKbg/02e9SjVUCQx2/jkVz/yWvXHoAYi8ishX+q2k9DfwX1r0dw9PAxtjNdlDbP/ti04T6YfuOt9D1yPn2PzMdW5t+KvaOezJ2o5+ETY1s/+enwMQwTSmkP2MX/99TzM1xJmADLS8CNgV+i51PXpbGxthc7VhnHp0KbB/4My4JXL9IpVyCb4Z+PjamoLs8egDGNNBuCWNb4FnSPu13Vmr1ACyoGfgFvuth3FTH5xdZyF4Azf2XPCvcIMB+wBSnoFuB7zYQgxKA8mnGXoOMJf2Nv5EEoN0h+CUBcwg/1iAPNibcd6i5/5JnhUsAtnMKuBU4p8EYlACUV08sEXieYiYAYN3aqWMomjsI8x1q7r/kWeESgF84BfwYjW+AogSg/JqxmQI3Y2MqipQANOHXrV2VPQJC9AJo7r/kXeESgAecAt4yQwxKAKplOHAK8CLFSAAA1gLmOsRQpalr3r0AmvsveVe4BGCiQ7B3ZIxBCUB1rYUlAw/jc4MNlQCArc6YNYa52GyTKvDuBfCeqSTirVAJwDCnYLMudaoEQAAGA6OxVRHvw6Zi5ikB2NUpjjUyxlEkXr0AmvsvRVCoBGATh0Dnkn1ksxIA6UwzMBK78b5A+gSgLz5JyVczxlEkXr0AR8YOXKQBLglAc6RgPebTjgM+dKhHZEHzsf0pbsTOs9RmYKs+ZrWoQx1F8TDwr4x1zACudYhFpBBiJQADHOp4z6EOkaLwON8HOtRRJKdm/PtXYytwilRCrASgn0Mdhdv4QCSDjxzq8PjdFcmDwD8b/LuzgF86xiKSe7ESgBkOdQx2qEOkKIY41DHdoY6iORbbOKteJ2O7Z4pURqwEYKpDHUs51CFSFEs71DHFoY6iGQfsSH1JwK+xzaVEKiVWAvCpQx3Lol4AqYbe+MxF9/jdFdEY4IvA36g91ekdYC/gBzGCEsmbWNsBv+FQRwuwM3CZQ10iebY1XW8nXQ+P311RvQfsCayG3eTXw9YjmY2tkng7Nl5gTqoARVKLlQCMx/a7zzoqeW+UAEj57eVQx3zgdYd6iu4l4LTUQYjkUaxXAGDrsWe1M7ChQz0iebUKcKBDPf8BZjrUIyIlFTMBuN+hjibgd8SNWySm3+DTM3efQx0iUmIxb6T3ONWzGXCGU10ieXISfsv33u1Uj4iUVOweAK95yd8HjnCqSyQPRmPT0TzMA+5yqktESipmAjAVuMGpribgIuAs9DpAiu8EbA36Hk713QVMcKpLREoq9s3TewT/8cC/0cBAKaa1gduAM/G7+QNc7liXiJRU7ATgDmx0sqfNsZ3A/gnsj22TKJJXi2DT/K7BFqzZwbn+D7EFcEREaoq1DkC7edh7zgud623C9nLfFZgLvIWtPfA+Nh+63VDnzxXpzAnAHh3+dxO2CM2SwAigZ8DP/iPV3ANARAqgN/A2tkRnEcsY/0MiOXI76c+xRsvHVG8LYJEqGoTDNSPFALpZwH8l+FyRsvsJtuKmiMhCpRpBfxU2+ElEfDyJ/6s1ESmxlFPojkNPKyIeZgFHYmNsRES6JWUC8DpazEfEw3fQ2BQRqVPqRXSuBc5JHINIkV0JnJc6CBEpntQJAMCJWCIgIvW5Bzg0dRAiUkx5SADmAwehtctF6vEEsDv2/l9EpG55SADA9i3fGVsdTURquwfYBg2iFZEM8pIAgD3J7AecmzoQkRy7HNgR3fxFJKM8JQBg05iOA/ZBFziRjmYA3wAOBGYnjkVEJKgVgTtJv7zqguWlkI2W5O4j/Tm2YHkIWCtko0WkUFyWAo4edQP2IV97B4wL21xJbAzpz7H28j5wOLaZkIhIu8okAAC9sJkCr5D+ovxp4LZKWm+Q/hybAHwf6Be4rSJSTJVKANr1AHYCrsC2PE1xcZ6HnsjK7APSnFezgH8Ao7GEV0SkKy4JQJFvZP2BLYCt2v65GvG2Qh0ATIv0WRLXDKBPhM+ZDrwM3A/cDdyLepdEpHsGAZ9kraTICUBnlgZGYYlAf2DRTv7Mb7r47/VYBngvYx2SP72xNSmyaAWO5vPda1PbymTgP8A7nfwZEZHuGIqNEcpivkcgRfM02btONoketcSwKj7v70VEQlqH7NeqSXlbByCGdxzqWNWhDsmfVRzqUM+QiIS2tkMdU5QANMbjRiH5owRARIpgtEMd7ykBaIwSgHLy+F61ToSIhLQW8FWH081c4gAAIABJREFUel5VAtAYJQDl5PG9vuZQh4hIZ3oD/41Nic/qRYc6CmcTsg+emI3NMpDy6AFMJPu5sVPswEWkEnoDV+G39simccPPh/7AXLIfvB1iBy5BrYfPj2qF2IGLSOmtBTyM381/CtCzJWoT8mEa8Cq2cFAWWwG3Zw9HcmJrhzpmYvP8BznUJSLV1RMYBnwR2B3YDd/de28B5lQxAQB4Ep8EQMrDIwHoA3zkUI+ISEiXgW9GUSRPOdSxHrCYQz2SXk9gs9RBiIhEMI623mslAI3rAWzpUI+ktyG2v4OISNn9DpgD1U0AnsB2X8vq6w51SHr6HkWkCsYDF7X/j6omANOwXdiy2p3sGwtJWj1RAiAi1fBdbCdSoLoJAMBtDnX0Bb7mUI+k8xVgidRBiIgEdhdwZcf/UOUEwGsK34FO9UgaB6UOQEQksE+Aw7A1AP5XU5pYcuMdYNmMdbQCI4E3M0cjsQ3C3on1Th2IiEgg84Bd6KTXu8o9AAC3OtTRBHzLoR6J7xvo5i8i5XYsXbzyrnoPwNbYe5GspgEj0CIwRdIPGAsMTR2IiEggPwJ+2dX/WfUegHuwm0BW/YHjHeqReI5CN38RKad5wNHUuPmDEoBW4Aqnuo5DUwKLojc2HUZEpGw+wt75X7CwP1j1BADgEhYYGdmgxbB3LZJ/hwDLpA5CRMTZXdgGQt2a5l71MQDtHgQ2cajnU2BVYIJDXRLGosBLwFKpAxERcTIe69Wsq0dbPQDmooX/kW5ZFFtnWfLrNHTzF5FyGAecCIyigdfZ6gEwvYA3yL4mANjrhG2wAYaSL1/A9oHokToQEZEGTQVuwbb0vZ22jX0aoQTgMyfh9/T+Enazme1Un2TXhL3q2Th1ICIi3TAJmIK9Un4FeBG4D3iMDDd96dwi2HKJrU7l5Ljhy0Ichd93Ow9YI274khPrkv38+U/0qEVkoU7H7yYxB9g0bvjShTWwxZq8vtvL4oYvOaIEQKSkhmHvV7xuFG8Bg6O2QBbUD3ge38RupagtkDxRAiBSYj/F72bRCtyExlqkdDG+3+ef4oYvOaMEQKTE+gFv43vTOClqC6TdQfh+jzOwPR+kupQAiJTc/vjeOOYCe0RtgWyE73v/VuDUmA2QXFICIFJyTcAD+N48pgObx2xEha2J74yOVuBNrHdIqk0JgEgFbIxN9/K8iXyC3ZwknBHAu/h+b63Y5hoiSgBEKuJM/G8k44DhMRtRIUtgC2Z4f2c3xGyE5JoSAJGK6IPvFLL28iawSrxmVMJSwNP4f1cTgeUjtkPyTQmASIWshy3p631j+RgtS+tlVWzNBe/vqBX4esR2SP4pARCpmDMIc3OZCuwYsR1ltAHwAWG+n4sjtkOKQQmASMX0Ap4izE1mFnBgvKaUyq74rtzYsbyB7Q8h0pESAJEKGgF8SJibTStwAdA3VmMKrgX4NTCfMN/FDKxnQWRBSgBEKmprbC34UEnAC2iXuYVZFv81GhYsh0VrjRSNEgCRCjuRsDefydhKhPJ5uwIfEfb4/z5aa6SIlACIVNz/EPYm1ArcCKwQq0E5txRwKeG6/NvLHdjrBZGuKAGQ0tDF7vOGAqOApYEl2/73MGAQNhiwPzAkQhy7ANsAvwB+iw0WrJoW4FvAz4CBET5vaeBWbAzATKw3Zjw29uN94D1scOB7EWIREZFAhgDbAd8HrsJG+U8m/JN9I+UV4CthDkNubQk8Q/pj31mZii06dA3wI2wq59Awh0FyRj0AIgU0EjgU+Av2FJf6JtJIeRT4KrZZUVltB/yb9Me6kfI2cDlwJFrpsayUAIgUQG9ge+BcbOnd1DcHz/IMtkJds9fBSqwJG+D3COmPrWcZB1yIvc7RFM9yUAIgklM9sRvJVeS3O9+zvAGcgvVuFNGy2CuYF0h/LEOXacDfgT2xPSakmJQAiOTMBsD/I/wUsbyW+cD9WNfzYhmPZWgDgIOAO/HfbrkoZSLwJ2CzjMdS4lMCIJIDfYBDgMdIf0HPU5mJvUM/BbvB9Grs8LppATYCfojd9KeT/hjlqTwDfANLjCT/lABIaRRxMNkQ4HjgGGDxxLEUwTRs5bxHgZeBV7FZBVMDfFY/YOW2sgrwJWAL4kzhK7pPgYuAP2BTDyWf1gWezFjHWIr72k5KpEgJwLLASVg3d//EsZTBu1gi8DF285kKTGn756Qaf29R7Gm1vQxqKysBy1OscyqPZmG7EP4WPSnmkRIAkYgGA7/CFmdJ3V2rohKrzMFmECyF5IleAUhp5HkaWV/gB9hI9++jkdNSLS3AUcBrwM/R1sQi4iyvCcCu2NSwX5L/Ue0iIfUHfoyN3TgIvWIRESd5SwCWxZZX/SfaCEekoyWBS4B70JbRIuIgLwlAE3AcNihtr8SxiOTZlti+FT9Cm3mJSAZ5SACGA/8CzsamkYlIbb2AM4AHgVUTxyIiBZU6ATgAeBbYOnEcIkX0Jaw34JjUgYhI8aRKAPoAZwGXoUViRLLoiy2D/Xc0YFZE6pDiHeLKwLXA2gk+u7s+AF4E3sK2eH237b9NxhbJmYTN5/W2FnAytreBdO55rPv7sUD1D8KS0kWxlSaXxRY4Wh5YDVg60OdmNRpYExtD80ziWEREPmc7bCOU1IusdCzjgOuwVQa/jC01nNpXgIdIf2zyVMYAe5D+tdUgYFPgBOAKbFW31MemY5mKJQMShhYCEmnAMdjqZqkvkJOB64GjgRWDtji7LYCrgdmkP24pylzgBmB78j3/fTngcGwK6yekP27zsM2XxJ8SAJE6NANnkvaC+Ck23mA3irmi4FLAT4F3SH9ziVEmYItADfc4eJH1BHYE/gfbZyHlcfwLmiroTQmASDf1AP5MugvgE9hyqmXZPKgZ2+L3LOwmmfpG7VkmAZdiq0D29DpgifXC2nMN1puR4rjeiA0UFB9KAES6oS928Yl9wZsOXIAN2CqznsAO2PoJr5L+Bt5IGQucj90ke/sentwZifWETSH+cf43mm3jRQmAyEL0A+4m7kVuInAqsET45uXSisCxwJXYBSb1zb2z8g424PJEqruAzWLYJlcfEPfYP46mCXpQAiBSQx/gduJd2KZg08IGxWhcgQzFnqx/io1Wf5J4T5/TsVH7VwOnYaPS8zp9LpUB2CY/MWfFPIx6ArJSAiCl4T2yuhe2IMnOzvV2Zj5wMTZv/v0In1cWSwPLAMOwJGFp7GY0AHut0Ifa74xnYTf4ediMimnAeOw7+BCbVvkudqGThRuE9VwdQ5wBew9ggxSnRfisMloXS6azGIu9EhIpjSas+znWk8z6cZolEsWawF3E+f3cgWYHNEo9ACKd+BnhL1zTge9jswtEymgv4kwf/FOsBpWMEgCRBeyLdcmHvGDdS/4X7hHxsAxwM+GTgONiNahElACIdLAO9mQe6iI1FxvIpqd+qZImbLbELML9tuYAW8ZqUEkoARBpM5Cwc9DHYcvhilTVesDrhPuNvYcNCJXuUQIg0uZawl2YHsGWwBWpusHAvwj3W7sL9bB1lxIAEeAIwl2QLqOYa/aLhNICnEO435w2D+oeJQBSeStgc8BDXIh+Rb53fhNJ6ThsDQbv391sNLW2O5QASKX1AO7H/wI0Hxv0JCK1HUSYrbWfo/x7MmSlBEAq7Xj8LzzzgENjNkKk4HbDntq9f4unxWxEASkBkMpaCtu21fvJ/+iYjRApidH4JwGzgNVjNqJglABIZf0N/yeOY6O2QKRc9sZ/TMC9aBxOV5QASCVtj//N/5yoLRAppx/j/9vcP2oLikMJgFROD+BZfC8wD2K7B4pINk3Adfj+Pt8B+sVsREEoAZDK+Sa+F5fxaH94EU+LAC/g+zv9UdQWFIMSAKmUftgN2+uiMgvYOGoLRKphdXzX5/gUGBK1BfmnBEAq5Tv4PlV8J274IpVyIL6/11/EDT/3lABIZfQDJuB3MXkErTkuEtoN+P1mpwBLxA0/15QASGV8G78LySxgjbjhi1TSclj3vddv94y44eeaEgCphBbgLfwuIj+NG75IpR2N32/3E2BA3PBzSwmAVMI++F1AnkVT/kRiasJ3C2Et2GWUAEglPILfxWPryLGLCKyN3yqBrwLNccPPJSUAUnpr43fzvyNy7CLymb/i91veLnLseaQEQErvXPwuGhtGjl1EPjMKvw2Dro4cex4pAZBS64sN+vG4YPwtcuwi8nkX4vN7noWmBCoBkNJo6eS/fRUY5FD3POAnDvWU3UhgE2wVtxWBJYH+QE9gDjad613gDeAZbGzGhCSRxrE4sBHwBex4LIudj+3HYzrwPnYRfQl4GHglSaTF8XNsgaC+GevphQ0O1iZeIiX1D/T0H9rmwNnYhiuNHNsXsIt6WdZVGIXtaPcUjR2PCdhT7rZooFpXvHoBHogdeM6oB0BKa1FgBj4Xim0jx553vYCjgOfxOb7t5R6s16aI+7dvB9yK7372rwEnkP1pt2y+gM/xnY8tNFRVSgCktLzWEX+FYt6QQtkH68L3vPEvWB4BNovVoIzWBe4m7PF4BzgcnYcdPYjPsf127MBzRAmAlNZV6ALhaXngFsLe6DqW+cD52NawedQX+A32Lj/WMbkXWClG4wrgAHyO6b9iB54jSgCklHoAH5P95J4ODI4cex59BZ/j2Uh5FVvLIU+WBx4jzfGYgvXCVF0vbABl1uM5i/wmmaEpAZBS2gyfi+3lsQPPoW/j+167kTIV2Dl0Q7tpM/ymlmYpp4duaAH8AZ9juXvswHNCCYCU0qn4XBj2jBx33vyC9De69jIb2C9scxdqJ6xXKPWxaC8XUO1xAVvgcxzPjR14TigBkFLyGJQ1k+p2DQKcTPob3IJlLrBHyEbXsDEwrRsxxi5VvXmBver7kOzH8JnYgeeEEgApnV74XKhvjh14jhyADcJLfXPrrEwH1g/X9E6tDExyiD1UOSFc03PvL2Q/fvPwWTCsaJQASOlsjM9F9ajYgefEmtg799Q3tVplLPEGZ/YHnovQpixlNrYCYxWNxucY5mWMSUxKAKQ02ldNW9ehrlbgRod6iqYncAV208uzEcTr+v4VlhTlWU9sp7y8f28h3IG9rstqPYc6RCSxP5E9q30tetT58CPSP83WU3YKcxj+18aknwFRT/ljmMOQew+R/dj9I3rU6akHQErnSbKf1FWc/jcUm2Oe+iZWT3mFzjeB8vJwDtpYT5kLrBrkSOTbmWQ/dm9Fjzo9JQBSGs1tZTWHup5wqKNofgIMSB1EnVbGlnwOYTdsJ78i6QH8NHUQCTzuUMfywECHekQkkeH4PElVbUDVIPI5xa075UXCzIX3Wms+dpmHjZGokpXwOXYe44eKRD0AUhrN+KyTPgcY41BPkRwO9EsdRINWA77sXOfaFDcJbKZ6M1hex5aqzmqUQx0ikkALPj/g17BthKtk/wB1jsVmUrRfnIdiN9ZdgCWcP+tAbCthLwc41tVuIrZd8BPAB8BiwArY8VjF+bMO4LOFnKqgFZuq+eWM9WijJZECO53sXVq3RI86rRH4dkG/is3N7kpP4Bh8VnBrLx9i77+9vOoY22Tge9jugV3ZHnjW8TNbib9YUmqXkP2YnR896rT0CkBKoxlYyqGedxzqKJIdHOu6DdiA2lOq5gDnAV8CXnD63MXxu+GNxO9J8E1sKuFvqd2rdAewIXC10+eC7/daBG871OFx/RCRBLwSAI8LSZF4jXR/Evga8Gk3//xYYDtgnNPne7XDq57J2Opy3U1yZmCvYrx6oDZ2qqcoPBJ3JQAiBdWMz7vlqvUAeIx8ng3sja3TX4/xwNEOnw9+PQBeK8Idj81QqMc84FAseciqaq8APH63Qx3qEJEEmvGZx1u1BGBFhzr+TOPvAm/CFtzJaqRDHV71vELji0l9AJzlEMMwqrU0sMfvVusAiBRUMz7b905yqKMolsDnJpH13fVVDjEMd6gDfObQX4s9zTfKayyA1zEpAo/fbZW3/xYpNK8EYLZDHUWxqEMd87G12LN40CEOj7Z41ZO1PS9g0waz8jomReDxu+0J9HGoR0QiawZ6OdQzx6GOoqg1Na27Pib7xfddhzg82uJVz3iHOvJ0TIrAK3Hv7VSPiETUvhdAVlXqAfBYKMbjgunx1DXfoQ7wOSYeiajHMcnyGqJoqpS4i8gCmvG5eFfpQtLdKXu1DMRWtctieYc4PEbOe9WTtT0twDIOcUxxqKMovBJ3j4cIEYmsGZ9NYaqUAHyMT9K0fca/77FozUcOdXjVk7U9m+PTff+hQx1FMQefc1kJgEgBef1wPS4iRTEdn/fVh2X4u73x2YvgdYc6vOr5GtkG4B3uEMNMfMYRFEmVfrsi0oEy98a87FDHDjT+1HsiPtPVXnGoA3yOx2Dgxw3+3Q2AfR1ieA2/cREiIrmmBKAxHovwgC18s0Kdf+fLwM+dPt+rHY841XMSsEedf2cYcB0+53LWqZkiIoXS/h4wS/HeqjbvdsRvB7p3sU1+umMvYJrT584Hlmyo9Z/XD+s+94hrFnBUNz93Dez1g9d3EWKL57ybR/bjNiR61OloN0ApFSUA9euNzQbwuvHMAS4AVu7ks5qwXe/+6fh5rfg9/be70Tm+u4At6fzJfgTwe/ySjlZsRPwgjwNRMEoA6qMEQEqjJXUADkZgT+TDsSV6x2Nd0vcDcwN95izshuf1xNgCfKOtvIq9m/8ES6y+ACzt9DkdXRegvl0c69u6rXwAjAEmYDfokcCajp/T7m58VhLsSjO2a+Jm2Pc5G9tF8w7sOxcRia6oPQDrALfViOk9bNe8HoE+f4san533MgP/76wflrSkblujpd6xB93VBByIbeXc1WffT7qtiNUDUB/1AEipFDEBOJjud//eTLgdy8Z0M4a8lYtDHAzgdzloWyPlTcIkin2AK7oZw1zg2wFiWBglAPVRAiClUrQEYA9sAFs98d1JmNcdu9cZRx7KHGCVAMcC7DyYnIM21luOCHAsmuj+zb9j+WaAWGpRAlAfJQBSKkVKAJbClmptJMbvB4inCdvFLvUNrJ5yfoDj0NFpOWhjPeVlwiSHhzcYz2w6HwwaihKA+igBkFIpUgJwToYYJxLmVcDa2EU79Y2sO2U8tuBOSH2xBXVSt7U7ZT4208BbT2BchriuChBTV5QA1EcJgJRKURKAHtiI8CxxeqwW15lTM8YV62a3e6D2L2hL7J126jYvrPy/QO3fNmNcM7AZLTEoAaiPEgApjSKtBLga2RONLTwC6cTPsXnreXYmcH2kz7oXOCXSZzXqCWzlwRCynmd96P7iUCIiDSlSAuCx1euyDnV0Zh7Wu/BaoPqzuoMwYyBq+QVwTeTP7K53sc2HZgaq32PdhlDnqogIUKwEwKNLNGS36ofYFr95203uEWzmROwtm1ux+e93Rv7chfkY24Tp7YCf4XGeDXCoQ0SkS0VKAIrgTWylt7z0BNyLrZI4LdHnzwZ2Bf6W6PMXNAF7P/9C6kBERFJTAuDvTWBz0u8sdwV28/80cRyzgH2A8xLH8SywCfB04jhERHJBCUAY72Pb9v6B+PvLzwCOwfYpCPWOu15zgWOxmKYk+Pz/wdbhH5vgs0VEckkJQDhzsFHmmxOvy/k+bJpS6MV+GnUFtgqh90ZEXRmL9YIcgSVGIiLSRglAeA8BX8T2L3gj0Gc8B+yN9Tq8HOgzvIwH9sISo3sCfcaHwA+ANYDbA32GiEihKQGIYw5wKbaWwd7Avx3qnA9cC2yD7Yx4LTbyvigewLb73RS4DJ9ZCo9hidbywK/RU7+ISJdCrIEuXZuD3agfwwYLZjEVSyaK7qG2shGwUsa6jsOOrYiILEQzPoPUlEiIFE8PbEOrrGIPdBURB83AdId6hjrUISJxDcMnAZjqUIeIRNaM7d+e1ZoOdYhIXB6/25nEX2VSRBw0Y3PWs4q1y5yI+PH43Y53qENEEmgGXnGoZzSwukM9IhLH0sBBDvV4XD9EJIFm4CWHenpge6v3dKhLRMJqAs7BZ9OivK87ISJdaMbmY3v4MnAhmhEgkmdN2BoJezjVd79TPSISWTPwKD4zAQAOBW4DRjrVJyJ+lsF2ZvyeU33zsR0nRaSAmrHd2jyXS90Ge61wMbAbtipbL8f6RaR7WrCb/leAC4BXsfE6Xh4EPnasT0Qiap8DPBr4e8pARKRwjgIuSh1EZOsCT2asYyzqJZUcaN8L4GZgQspARKRQpmDLWotIQbUnALOBP6YMREQK5TxgUuogRKRxHXcDPB/4KFUgIlIY09ADg0jhdUwApgA/TBWIiBTGz/FZQVREEmpe4H//GduaVUSkMy+ip3+RUlgwAZgP7At8kiAWEcm3mcAB2JghESm4BRMAgLeBI4HWyLGISL4dD4xJHYSI+OgsAQBbE+D4mIGISK79iurN+Rcpta4SAIBzgV/GCkREcutPwI9SByEivmolAGA/+hOxsQEiUj1nA99ArwRFSmdhCQDAWdjAwMmBYxGR/JiBjQU6AT0AiJRSdxIAgGuA9YDHA8YiIvnwArAR1vUvIiXV3QQA4HXsonAsMDFMOCKS0DTg+8AXgWcTxyIigdWTAIB1BZ4HDMfGBmg1MJHim4q9618J+A0wJ204IhJDvQlAuynY2ICRwIHAHcBcr6BEJLh5wL3AEcCy2Lv+8UkjEpGomhzrWgTYoq2sBqwKLNn230UknalYb92r2FK+D2A3f73Kq9+6wJMZ6xiLPTyJJNXiWNcU4Oa2sqDF8E02ymAl4FGHem7HZmkU1dnY8rJZ7Qw87FBP2UxCU/hERHKlCXsqa81Y5gBLRY7dywBsemnWYzAD6BM5dqmmdcl+vv4netQinWh0DIBk1wrc51BPC3CcQz0pHIXPK6JHsI1qRESkm5QApHWHUz3HAoOd6oqlL/Bdp7q8jqOIiEgUi2Nd+Fm7FFuBcyLHntWp+LS7FVglbuhSYXoFICJu/oXPTXAOdnEqglHAdHzarQVrJCYlAFIaegWQ3hVO9bQAl2Fd63nWA7gUvzgvd6pHREQkqn7AJ/h1h18cN/y6nY1fW2cCS8QNXypOPQAi4uqP+N0UW/EbXOfte/i2U0//EpsSABFxNRKYjd+NcT62lWue7IfF5dnGL0ZtgYgSABEJ4H/wfTqeD/yKfKzAeBS+CU4rcEPUFogYJQAi4s67F6C9XEm6gYEt2O6R3m2aD2wQsR0i7ZQAiEgQv8f/ZtkKPAasEbEdYAnN3Q6xd1Yui9gOkY6UAIhIEIsA7xLmpjkH28J5YOA29MUW+ZkRqB2TgaUDt0GkK0oARCSY/Qhz42wv7wLfxP+1QD/gcOCNwPGf6By3SD2UAIhIUNcS9ibaiu1E+Dtg7Yyxrgacie0tHzrmf6PFqyQtJQAiEtQQwr0K6Ky8CVwEHIFd4AZ1EddAYB3gEGxw32sRY/wUGNH9QygShBIAEQluS8LMCuhumQpMwLr03wOmJIxlPrBHtsMp4kIJgIhEcQzpbrp5KqdlPZAiTpQAiEg0IebRF6lch977S34oARCRaJqxHQNT34hTlLuBPtkPoYgbJQAiElVP4J+kvyHHLA9j6yKI5IkSACkNda0WwxxgT+Cq1IFE8m9ge2zgoYiISOU1A+eQ/uk8ZLkO6O11wEScqQdARJI6CphF+pu1Z2nfvVC9UpJnSgBEJLlNiLtYUMjyCTDa9/CIBKEEQERyYTHgQtLfwLOUu4DlvA+MSCAbkf2cfzl61CJSWntRvN6AicCxqMtfimVLsp/7z0SPWkRKbQDwS2Am6W/utco84GJgaJjDIBLU9mT/DTwWPWoRqYQRwAXkb5DgPOAaYM1gLRcJbw+y/xbujx61iFTKsth2vx+R9sY/FRunoBu/lMGRZP9N3BI9ahGppN7AfsDtxNtdcD7wIHA8NlBRpCx+SPbfx6XRoxaRyhsEHABcCYzD96Y/CbgBOA6N6pfy+gPZfyt/jB61iMgCVsBnj4FLgR6RYxdJ4Tqy/15Ojh61SCc0BavaxmKb7mS1GDbIT6TsVnCo432HOkQyUwIgbzvUMdKhDpEi8DjX33SoQyQzJQDyjkMdI9ErACm/ofgMan3ToQ6RzJQAyFsOdfQFVnKoRyTP1nKoYx4+vW4imSkBkLeBaQ71rONQh0iere1QxzhsOq5IckoApBWfzUm+4FCHSJ55JLkvONQh4kIJgAC86FDHxg51iOTZpg51aCMgyQ0lAAI+TyVfAno51COSR8OAUQ71PO9Qh4gLJQAC8LhDHX2BdR3qEckjj6d/gOec6hHJTAmAgCUA8x3q2c6hDpE82t6hjsn4vG4TEXH1AtmXOH0wetQicbxJ9t/HbbGDFqlFPQDS7hGHOjYEhjjUI5InqwPDHep5yKEOETdKAKTd3Q519AC+5lCPSJ6MdqrnAad6RERcDcPGAWTt5rw3duAigT1L9t/FDKBf7MBFRLrrebJf6Objs2OaSB6sSvbfRCtwa+zARRZGrwCko9sd6mgC9nWoRyQPDnSqRwMARSTXNsfnaUdTnaQMWoB38flNrBw5dhGRuvQAPsDngrde5NhFvH0VJcRSYnoFIB3NA/7pVNd3nOoRSeVop3qudqpHRCSoHfB56pmDBgNKca2Jz6yYVmwgoYhI7jVje5Z7XPjOjRy7iJe/4PMbeDpy3CIimfwWn4vfdGBo5NhFshoOzMLnN3BS5NhFRDJZC5+LXytweuTYRbK6CJ9zfxawROTYRUQyewifi+BEYPHIsYs0akVgNj7n/jWRYxcRcbE/fr0AF0SOXaRRV+B33mt7bBEppF7ABHwuhPOA9eOGL1K3jfEb+f8SmmYtIgV2Gn5PQ/diywSL5FEz8Dh+5/thccMXEfE1BJiC30Xx63HDF+m2o/E7zycAfeKGLyLi70z8LoxvAYvEDV9koZYBJuF3nv8wbvgiImEsi9+c6Fbg4rjhiyzU9fid3x+iJFdESuRc/C6QrcA+ccMX6dKh+J7b340bvohzFofWAAAFMElEQVRIWEOByfhdJCcCy0dtgcjnjcT3vB4P9IvaAhGRCE7H90npbjRNStLpBTyK7zl9TNQWiIhEsijwAb4XTA2WklTOx/dcfg5oidoCEZGIjsD3ojkPGB21BSJwAL7ncSuwfdQWiIhE1ox/t+lUYL2YjZBK2xSYge85fH3UFoiIJLIB9uTueQF9D1guZiOkkkZh0/Q8z90p2PbBIiKV4Lk4UHt5Gs2flnCGAq/if96eGLMRIiKp9QfewP9ieieaRiX+BgFj8D9fHwV6RGyHiEgubIXfzmkdy91YgiHiYQDwMP7n6QxgzYjtEBHJlRCvAlqB+9DrAMluMeAhwpyjJ0Rsh4hI7vQGniLMBfZxYHC8pkjJDAYeI8y5eTva2lpEhFWwqXwhLrSPAcPiNUVKYiTwMmHOyQnAkvGaIiKSbyEWVmkvbwPrxmuKFNxGwPuEORfnAF+O1hIRkYIINR6gFZgGfD1eU6Sg9gOmE+48PCleU0REiqMn8G/CXXznA2egDYTk83oSNgFtBa5G7/1FRLo0lDDrA3QsN6FxAfKZ4cADhD3nHkPrU4iILNSK+O8auGCZiI07kGrbE/iYsOfaWDToT0Sk2zbDf8OVzsoVaKpgFS0B/JXw59dEYPVIbRIRKY3R2Kjp0Bfp94BdI7VJ0jsQ/w19OivTsERWREQasCcwl/AX61ZsH4F14jRLElgNuI0459Is4CtxmiUiUl5HEmbPgM7KXOBPwFJRWiYxLAVcSLxEcg6wW5SWiYhUwJHAPOJcwFuxlQlPAQbGaJwEsQTwO6wrPtZ5MxPYPUbjRESqZH/ijAnoWD4F/gCsEKF94mM48EdgCnHPlWnADhHaJyJSSXsQZ3bAgmUucC2wSfgmSoM2xWZ1xE4SW4FJwBbhmygiUm2bEX7udq3yGLaV6zKhGyoLNQz4DvAi6c6Ht4G1QjdURETMKoRfMXBhZR5wH/AttNBLTEsARwF3EW9gX1flSWDpsM0VEZEFDSXs3gH1lLlYMvAzYDtgQLhmV05vrHv/NKz3JeZg0FrlH+h7FhFJpoXwm7g0UuZgN6s/YOMWVsNuZFJbC7Zy3t7Ar4D7STPmY2HJ3o/Qxj4i+hFILhwAnE++n8jmY++LXwdea/vneOATbEzDJ21/bhowO0WAAfUF+mA7MQ4GhgCLt5UR2CyLkcAo8p0ofQzsiy0aJSIiObEy9k429ROiSjnL3cCyiIhILvXGut1jrRyoUv4yG/gB1nshIiI592Wsiz31zUOl2OVZYD1ERKRQ+mIDyVJPFVMpXpmNnTu9EBGRwtoAeJT0NxWVYpS7sHUmRESkBJqBw4EPSH+DUclneQObsikiIiW0KHA6tttf6huOSj7KRGyQX56nH4qIiJMlgfOAWaS/AamkKZOBnwODEBGRylkOOIu4e8arpC2TsAF+iyMiIpU3FHs18D7pb1AqYcrbwEnAQERERBbQGzgIW8c/9Q1LJXuZD/wL2AfoiYiISDesg60qOIH0NzKV+so7wC+AFT/3rYqIiHRTC7AzcDHwEelvbiqdl/HAOcDmaNlekSi0G6BUSQuwBbAbsD2watpwKq0VGAPcBtwKPAzMSxqRSMUoAZAqWxbYFtgK2AjbkVDCmA+8ANwPPIS9238/aUQiFacEQOQzQ4ANsQ1k1gBWx5aV1Zry9ZkFvAg811aewQZmfpoyKBH5v5QAiNTWExgBDG8ry2M9B4OxhGEw0B9bpZC2fy9bwjADmIk9xX8KTAc+xsZUfNBWxnYo77b9WRHJsf8Pm7oVp7wYPGQAAAAASUVORK5CYII=;fontSize=27;fontFamily=Space Grotesk;fontSource=https%3A%2F%2Ffonts.googleapis.com%2Fcss%3Ffamily%3DSpace%2BGrotesk;fontStyle=1" vertex="1" parent="1">
          <mxGeometry x="1132" y="-359" width="154" height="154" as="geometry" />
        </mxCell>
        <mxCell id="StRmfVQufm-jLz1Iqn4o-20" value="RFID reader" style="shape=image;verticalLabelPosition=bottom;labelBackgroundColor=none;verticalAlign=top;aspect=fixed;imageAspect=0;image=data:image/png,iVBORw0KGgoAAAANSUhEUgAAAgAAAAIACAYAAAD0eNT6AAAABHNCSVQICAgIfAhkiAAAAAlwSFlzAAAOxAAADsQBlSsOGwAAABl0RVh0U29mdHdhcmUAd3d3Lmlua3NjYXBlLm9yZ5vuPBoAACAASURBVHic7d13mGVFnf/xd09PgpkhCQyIgIAkkQUEUVlJIq4oiGENCCJm15+KYc0rICqiri5hxbCwCoKrKCZccyILggmRpOTMSJwZZpjQvz+qe+nBnum+fb9Vdc6979fz1IPryvdWnXv71ueeU6fOAJKirQ3sAmwFbDv8zw2BWcBawGxgWrXeSerEw8B84L7hf94GXAVcPdx+M/zft85A7Q5IPWAasM9w2xvYERis2iNJpSwFLgF+CfwMOBdYXrVHE2QAkCZvO+CVwGHA3LpdkdQQtwJnAV8Cfl+5L6tkAJA6MwU4EPgA6TS/JK3Mr4BjgJ9W7seYDADSxAwALwc+SPrlL0kTdQlwNPC/tTsymgFAGt/WwGdJ1/glabK+D7wNuL52R8CFStKqrAZ8AjgVeELlvkhqv62ANwz/54uovFjQMwDS2LYGvg7sULsjknrSxaTLijfU6sCUWi8sNdghwKU4+UvK56mkPQT2q9UBLwFIK3ovcBIwvXZHJPW81YFXAA8Avy794gYAKRkkTfzvq90RSX1lAPgn0pqjn5V8YQOAlP4Ovgq8qnZHJPWtZwCPAX5Y6gUNAOp3A8DngUNrd0RS33sq6TvpVyVezACgfvcx4O21OyFJw/YiPXjo4twv5G2A6mevBv67dick6VGWA88FfpzzRQwA6lfbkbbnXL12RyRpDHcDO5EeLpSF+wCoH80CzsTJX1JzrUdanDw11wu4BkD96D+A59XuhCSNY1NgEXB+juJeAlC/2Zm0uMbwK6kNHiJdsgx/gJCXANRPpgD/iZO/pPZYjXTWMpxnANRPXgucXPD1hoDfAr8gnXW4mrSg50FgacF+SJq86cBsYBPSQ8J2Iz0afLvC/XgOme8KkHrVVOCvpEk5d7sXOAYfISz1su2BE4AFlPleuaDMsKTecwj5/0AXkzYWWqPQmCTVtx7wWWAZ+b9j9i40JqlnDABXkPcP8w/AE0sNSFLjPBW4jrzfM0UfFiT1gj3J+0f5P6SFOpL621rAT8j7fbNlsdFIPeAU8v0xnoR300h6xHTgm+T7zjm63FCkdlsduJ88f4hn4OQv6e9NB35Knu+d6/AOPmlCXkqeP8LLgBkFxyGpXdYmbd6T4/vn6REd9NeLet2zMtRcBLyctOpfksZyL3Aw6cl+0fbNUFPqOdcSn76PKDoCSW32BeK/g35VcgBSG21M/B/ePNLTBCVpIuYCC4n9HlpMwPeQlwDUy0Kukz3Kf5B2/pKkibgT+HJwzenATt0WMQCol20TXG85cGpwTUm975QMNbfutoABQL1sq+B65wC3BNeU1PsuI61HimQAkFYh+gzAz4PrSeof0dv4GgCkVXhscL2LgutJ6h/R3x8bdVvAAKBeFv1UvquC60nqH1cH15vTbQEDgHrVFNI2wFGWA7cH1pPUX24Ortf1DxwDgHrVLGL3y55Puv9WkibjweB6ngGQViJ6n/6Hg+tJ6i/RW4dP77aAAUCSpD5kAJAkqQ8ZACRJ6kMGAEmS+pABQJKkPmQAkCSpDxkAJEnqQ1Nrd0CSWmQQ2IC0z8TapHuxZwGzh/+7NUmbRt0C/B54oE43pfEZACTpEQPAFqQnSW4KbDzcNhluj2Xi35sPA78APgH8KrqjkqSxrUvaujeq3V22+ypgGrAjcBhwPHAucD+xn5uRdhbxD6dSu0wj9jPl7qTSShgA9GjTgN2Bo4ELSVuz5pjsV9auAOZmH6WaygAgFWIAEMDmwBuAM4H7KDvhj9UuJP45FWoHA4BUiAGgf20HHAVcQ/0Jf6z2oWwjV5MZAKRCDAD9ZTPgA8Dl1J/gx2sPAI/JcxjUYAYAqRADQO9bDXg9cBGwnPoTeyftNRmOh5rNACAVYgDoXY8DPg7Mo/5EPtl2VvhRUdM1LgC4D4CkttgZOBx4OenLtM22qN0ByQAgqemeCxwJ7Fq7I4HWr90ByQAgqal2Az4G7FW5Hzn8rXYHJAOApKbZhTTxP7t2RzK6uXYHJAOApKbYkrRv/gtIe/L3sp/U7oAk9SrvAmiPGaRr/A9Rf3V+ifYw6cFC6i/eBSBJo+wJfA7YtnZHCvoCcFPtTkhSr/IMQLPNBU6n/q/x0u2vwDoBx0/t07gzAFKvMgA016uAe6g/GZdu84DtA46f2skAIBViAGieNYH/of5EXKNdjpv/9DsDgFSIAaBZdgOup/5EXLrdArwNmN79IVTLNS4AuAhQUk6DpKf0HUHvfN8sA+4A7iR9Cc8HFgz/53uB+4BbgV8DvyF9WUuN0yt/kJKaZ0Pga8AetTsyCUuBPwO/B64kbdxz4/A/bwOW1OuaFMMAICmHnYDvkZ7c1wZXAb8EfjfcLgcWV+2RlJkBQFK055IW+61RuyOrMI804f8M+DHp170kqQe4CLCO95GukddefDdWuxX4DOmpglNyHQBpJRq3CFDqVQaAsqYDX6L+JP/odg9wGnAAnvFUXQYAqRADQDlzgF9Rf7If3S4BDsHb79QcBgCpEANAGWsCF1J/wh8iXXo4G3hW1hFLk2MAkAoxAOS3Do/c516zLQKOoz13HKg/GQCkQgwAea1Huke+5sS/DDgT2DzzWKUIBgCpEANAPnOBP1Jv4l9Omvi3yj1QKZABQCrEAJDHuqSd8WpN/r8l3cYntY0BQCrEABBvNeAC6kz8C4D34q18ai8DgFSIASDWIPAt6kz+ZwOb5B+ilJUBQCrEABDrRMpP/PcDB5cYnFSAAUAqxAAQ5wjKT/4XA1uUGJxUiAFAKsQAEONVpFX3pSb+pcDReK1fvccAIBViAOjezsBDlJv87wT2LDIyqTwDgFSIAaA7awN/pdzkfzmwWZGRSXUYAKRCDACTNwB8m3KT/49IzxSQepkBQCrEADB5H6Dc5P8FvN6v/mAAkAoxAEzO3qSFeLkn/uXAOwuNSWoCA4BUiAGgc+sDd1Bm8n9zoTFJTWEAkAoxAHTuTPJP/suA15QakNQgBgCpEANAZw4g/+S/lLSvgNSPDABSIQaAiVsHuJ28k/9ynPzV3wwAUiEGgIk7lfy//j9QbDRSMxkApEIMABOzH/kn/y8UG43UXAYAqRADwPhmAzeRd/L/LulRwlK/a1wAmNJtAUmt9W5g44z1LwUOIq38lySpCM8ArNpjgfnk++V/D+7tL43mGQBJjfBRYFam2kPAq4HrM9WXJGmlPAOwcjuQd7vfj5QbitQajTsDIPUqA8DK/YR8k/8vcNGfNJbGBQCfwiX1l/2AfTPVvhc4mP5d9DeHdFllNeA+0hqLJVV7JK2CAUDqLzlPz7+DtKNgr1oLeAqwFbDt8D+3BtYY/v+NZTGwgHS75dXD7SrgCuBPpB0SJUmBvATw955FvlP/Pyg4jlJmkc6YfBL4DfHrJuYBZwH/jxQo1NsadwlA6lUGgL/3Y/JM/veTdz+BkqYAzyDtXvgA+QLTWO0K4Cjg8ZnHqDoMAFIhBoAV/QPpdHOOiesNBceRy7rA0eTfGXEibSnwI+B5wEDOQasoA4BUiAFgRWeQZ7L6Le3eT2R90q/u+6k/8Y/V/ggcindW9AIDgFSIAeARjyetRs8xQT2z3DBCrQUcDyyi/iQ/kfZn4LlZjoRKMQBIhRgAHnE8eSal75QcRKADgJupP6lPpp0NbBp/SFSAAUAqxACQDJL6Hj0RLaF9K9efAPyS+pN4t20+8K+0+9JLPzIASIUYAJLdyTMJnVhyEAFeRNqoqPbkHdl+AWwYeZCUlQFAKsQAkLyR+InnIWBuyUF0YSb5LoE0od0JPDvsaCmnxgUATyFJvW2DDDW/TJp4mm4D4ELgbbU7ktH6pE2Y3lG7IxrXElJ4jvJAtwUMAFJvWxBcbxnwmeCaOWwGnAvsVLsjBQyS3pPjcd+AposMzrd1W8AAIPW2W4LrfQe4NrhmtO2B84Eta3eksLcBp5JONauZLmtoLamnuAYgmUv61R51HJ5Wtvsd25nmbupTqp2JGwc11SHEvc8vKNx3qTUMAI84l5hj8MvSHe/QFsAd1J+Am9A+3+WxVB4zgRvo/v29Gs/0SCtlAHhE1FMAdy/d8Q48FriO+hNvk9qRXR1R5fJyuntfl5M2s5K0EgaAFX2N7sZ/SvkuT9jqwO+pP+E2sb26i+OqfE5k8u/pxyr0V2oVA8CKZpEWDU1m7OcN//tNdQr1J9qmtoeAHSd/aJXJIJ3vT7EcOBYX70vjMgD8vTnA9+ls3N8e/veaqtvTqf3QrqHZ72E/eylwPeO/h9cCB1bqo9Q6BoCxTSGtRB7vS+evw/+7Jt9Xvg3wIPUn2JH2AHA7aS3CPaSd2mr3aaR9ZZLHWPnNAA4Cvk6a6BeS9u+4mvQY75eQacFfk/+4pW6sS+ykPQ9YL7BebYPA04H9SE+Xm0vaK/8q0mr/c0inHJtqgHSv/24VXns58DvScbqY9EV9DbB4jP/tXFJQeRKwJ7AX9T5HBwLfq/TaklSMZwB622sp/yv6j8A76W575SmkEPAlyp+9uJ60YFKSepoBoHc9hjyPOF5ZOxf4p0zj+DDpckGpsRyTYRyS1CgGgN71BcpMljeRHiOc27rAyaRLC7nHtBjYqsCYJKkaA0Bv2oz0VLXcE+UpwOxCYxqxB3BzQN/Ha6eVGpAk1WAA6E2fI+/kuJB090Mt6wI/GqNfkW0JsHmpAUlSaQaA3rMBaWObXBPjvTRju+NB0iWBnCHgC8VGI0mFGQB6z7+Tb0K8h2btmDcAnES+8S4GNio2GkkqyADQW6YBd5FnMlxIM375P9oU0uYwuULA+8oNRZLKMQD0lgPJNxEeVHAcnZoB/IY8476i4DgkqRgDQG85izyT4OdLDmKSNgX+Rp7x71xwHJJUhAGgd6wDLCJ+8ruO9uyM92ryBIDjSw5CkkowAPSOl5Fn8jug5CC6NAD8ivhjcG3BMUhSEQaA3pHj3v+fFB1BjF3IE4Q2LTkIScrNANA7riZ+0tuj6Aji/JD4Y3FYyQFIUm4GgN6wEfET3q+LjiDWXsQfD7cG7lNTandAklbh6RlqfilDzVLOIT3WN1KOY6wWMABIarKtg+stBs4MrlnSEHBGcM3NSPsNqM8YACQ12TbB9S4i7fnfZj8MrjcIbBFcUy1gAJDUZNFnAH4ZXK+GS4AHgmtGH2e1gAFAUpNtGVzvouB6NSwFLg2uaQDoQwYASU01FVgruOZVwfVqiR7HY4LrqQUMAJKaanZwvYXALcE1a7kmuN6c4Hpqgam1OyBJKxE9KY08UKcXzAuuZwCoZwB4NvA84KmkPUxmAjcAfwC+DfwcWF6pf1LruBFQ+21L7HvYS4+/PYDYY/O9st3XsH2BKxn//fk98KzoF/cSgKSmir43/eHgejUtCq43M7iexncs8GMmdqvrDqTnV3yEdMYghJcAJDXVguB6s4Lr1RR9yn5+cD2t2qeAf+3w3xkA/o00b78/ohOeAZDUVA8G1+ul69zRY4k+1lq5F9L55D/a+4D9IjpiAJDUVNG/Stejd7a8fVxwveiNhTS26cBxAXWOI2D+NgBIaqoFxK58HgQ2D6xXU/TGPZ4BKOPFwCYBdbYC/qnbIgYASU01BNweXPNJwfVqeWJwvduC62lsBwbWem63BQwAkprs6uB6ewTXq2EtYMfgmr2yQ2LTRb5v23dbwAAgqcmiJ6ZnBterYU/S5YxI0TsLamzrB9baoNsCBgBJTRY9MT2R+EcMl/bi4HoLgJuDa2psSwNrLem2gPsAaANgV9Kioq1IzwVfA1iTdN90WzcICdssY9hjgHuCa5ayiPQlf/9wu450av1q0qNl76zXtXHl2L3vUOADGeqWMIt0G1mkkZ3olN8NpLtRItwUVEd9ZJB0D+l/kr5cI7cTtbWz/Qk4EXgO8aeWuzULWEzseG+lvbcDvp749//TRUfQ304g7n07unDf1WLbkP7Qb6f+hGNrbruNtEtZk54Pfx7x43xD0RHEGCRdEok+Fl2vJteE7UHc+7ZT4b6rhXYATiNde6o9udja05YBZwNPob6jiR/fdbTv8tZhxB+HJfTWDoltcDHdv2/nFe+1WmUT4CzqTyS2drflwDeI33muE3uRZ2xHFhxDt9YC7iD+GFxQchAC0pqrbn6QLQOeXrzXaoWpwHtI26jWnjxsvdMeJO1fXmPh8FTyXLp6iGZd6liVz5HnfX1nyUHo/7ybyb9nIQ8CUu95HHA+9ScLW++2i4HHU96nJ9HXibQ/AqsVHMdkHEA6ExM99iUE3EuuSTuCzt/XY6r0VI23PzCP+hOErffb3aQ7BkraMajvY7WTC46jU1sB95Jn3D8oOA6NbX/S7XzjvVe3AC+q1Ec13GGkNF97YrD1T1tK+ZX0fwjq+1jtyILjmKgNSYsVc435oHJD0SrMIO1N8W3SXTjLSGcGbgW+M/z/a9uCVRXyXupPBrb+bcdSTo574Ee3Jl0P34C8gedWnFSaKnoTM/WoI6k/AdhsH6SMacCNmcdyPPW/gDcjz/3+o9s7io1GUrg3Uv+L32YbIp2ufB1lHF5gPN8F1ik0nkc7APjbBPrYTZsHzC41IEmx9seNfWzNakspszBwddKzC3KP5wZgnwLjGTGbdPYhx2r/RzdvI5NaamNc7W9rZvsbsCn5lTz79VXS31wuU4CXkVZ5lxjPjaTnK0hqmal4n7+t2e0i0rX6nKYAvy44psXAf5FuyYsyHXgF6UFMJd8fbyWTWuoD1P+Ct9nGa/9Kfk+mzmWwC4E3kxbqdWomsDfpSZw1zuK17b7/aeQPk32t9mpXTdwmwJ/x9J2abyHwRNLp5pyOB96W+TVW5XrSzohXAX8B7iJtmTzygJ05pMsH2wDbkfZvr7Xr4EPA9sBfK73+RMwg7U3wAuBpwPqkOeou4DLge8AZpGMs9ZXvUP+Xnc020fYN8psJ/K7S+NrWXjvJY1zKy5nYLZ53Am/CH6/qI7tS/wvEZuu07UJ+WwIPVBpfW9rXJn1085sCHEfnYzqddMZA6nnfpf6XiM3WafsmZby84Jja1q4B1pj8oc3uk0x+bGdU6G9P8TRK821P2hK0xHt1DelSw0WkZ4/fAiwo8LrKaxbpWvRcYDfghcATCrzuctLn988FXusE4K0FXqdN7gV2B66o3ZGVeD7px0033kx6VLLUk04g/6+E75Oetqb+8WTSqvDcn63PFBrPFNKp7tq/uJvSFpIm/6YaJAWTbsd5N2mxpdRzppFWwOb6krgR2KvUYNRI+wA3k+8zdgdp/4oSpgE/yjiWtrSlNP9+/0OIG++bCvddKuL55PuSuJB0SljakLwb6zy33FCYA1yQaRxtaEuBV3V9FPMaIPbujbbtbyBNyBfJ8yVxPj4KVCtajbT2I8fn7aSC44D0vIDvB/W9TW0R8M8Bxy+3/Ykd9x1luy+V8RfivyRuwF/+GtsGwE3Ef+auLDmIYYOk7XtrT8ql2r3AHiFHLr9ziR37MtwxUD1mE/J8UTR5YZDq25s8n7uNSg5i2ABwNGmCqD1B52zXAk8KOma5PZX48S8hBT6pZ7yE+D+U7xQdgdoqx+nzmovSngncvpJ+tb19C1gr7lBl9z3ij8GtRUcgFfBvxP+htOVXguragfjPXu1n0K8P/IT6E3ZUWwQcHnqE8ns6aW+I6GNRYttpqajTif0j+WPZ7qvl/kzs5+/LRXs/tkHgLcB91J/Au2m/ALYNPja5DZAenJTjeLyq4DikIi4k9o/ko2W7r5b7OLGfv/PKdn+VNgBOI8+v0ZztduBQ2rmDa+R9/6PbPHxCqnpQxC5Zo9t+Zbuvlou+Vevyst2fkN1Jv6ZrT+zjtfuAj9DsPf1XZTXS3Uc5js0R5YYhlRO9O9s/lO2+Wm4nYj9/NxTtfWd2A86meWcE5gFHAWtnG3kZHyLP8VkArFtwHFIx9xL7x7J+2e6r5eYS+/n7W9nuT8qOwPHk3X57vLacdLnkDcDsvMMt4vHAg+Q5VieUG4ZU1nxi/1i8TqZOzCb28/dg2e53ZRpwAHAm5RYMXk46nb15gfGVMgD8mDzHawmwabmhZLUaaSHjt0gbcS0m3eVxI+kOh0OAGdV6pyoMAKqpnwPAaIPArsD7SLcR3k/3x2IZ6dHb/wUcRFqU2IveSr7A9JWC48jplUzscu8NpL1hQrVxNWm/mE/spD2bdM1MmojZxE7a8+mdx7ZuCGwDbAVsTdqIZzbpWv1s0hmEB0ljng88QPqSv5o08V9N+oXXy7YA/kCeHx7LSWtU2nxr81TgRDp/kuFngPeQQqR6mGcAVJNnADRZU4BzyPfr/9RyQ8nmJCY//k9W6K8KMwCoJgOAJus95Jv8FwIblxtKFhF7IrygeK9VlAFANRkANBl7kxbo5QoAHyk3lCxmEvPEzb8C0wv3XQUZAFSTAUCd2pi8t1DeSXs3QxpxKHHHo+sHbE3ptoAkqe/NBM4C1sv4Gh8iLahsswMbWksN4xkA1eQZAHXiZPL98h8iPZxqarHR5HMDccekidtrK4gBQDUZADRR7yTv5L+ctLag7QaAh4g7LveU7b5KMgCoJgOAJuKVpHvScwaAk4qNJq9pxB6Xh8t2XyUZAFSTAUDjeT55V/wPkU6Z98oGUo0LAC4ClCR1am/g6+S9Lj8EvBHDo/qQZwBUk2cAtDJPJa3Gz/nLf4i0sLCXNO4MgJrLAKCaDAAay57EPBBpvHYr6dkKvaRxAcBLAJKkiXgB8CPyb8azHHg1cG/m15EayzMAqskzABrtEPIv+BtpRxQaU2mNOwOg5jIAqCYDgEa8i/SrvMTk/yN698y0AUATZgBQTQYAzQC+QJmJf4j0kJx1i4ysjsYFgF7YWlGSFGsj4JvA0wq93hLg5cC8Qq8nNZpnAFSTZwD61+7A7ZT75T8EvLnIyOpq3BkANZcBQDUZAPrPAPAOyi32G2mfLzG4BjAAaMIMAKrJANBfNgV+RtmJfwg4m/65FG0A0IQZAFSTAaB/vIT0ZLnSk/+v6a/vJQOAJswAoJoMAL1vA+C7lJ/4h4ArgHXyD7FRDACaMAOAajIA9K7pwDtJO+3VmPxvATbJPsrmMQBowgwAqskA0JteAFxLnYl/CLgb2D77KJvJAKAJMwCoJgNAb3ki8EPqTfxDwJ3AP+QeaIMZADRhBgDVZADoDTsCXwOWUXfyvwXYOvNYm84AoAkzAKgmA0C7PYN0i12pPfxX1W4EnpB3uK1gANCEGQBUkwGgfQaB5wPnU3/SH2nX0p8L/sbSuADQLxswSFKv2ho4DDgUeGzdrqzgcuA5wG21OyK1jWcAVJNnAJptDeC1NOvX/uh2NjAn2+jbyTMAkqRJ2QzYFzhg+J8z6nZnpU4g7TOwrHZHtGoGAElqpnWAXYF9gP2Bbep2Z1wPA28CvlS7I5oYA4Ak1bcasANpwh9pW1btUWfuBl5EuiShljAASFLnpgBrDv/nh4EFK/nfzSBdr58DrD38z42BzR/VmrR4r1MXAq8g3e6nFjEASNLE7A68BtiDNGmPZSGwePg/zyLtu9+rlgEfAz4CLK3cF6mneBeAavIugEdsDpxD/ZX1TWo3kDYb0sQ17i4ANZcBQDUZAJJ9gfupP+E2qX0dWKubg9qnDACaMAOAajIAwNOJ/ztsc5sHvKqrI9rfGhcAXAMgSX9vNeB0DM6QJpvTgXeRVvurRxgAJOnvvZuVL/TrJ38E3gxcULsjijeldgckqWGmkLbZ7WcLgQ8DT8HJv2d5BkCSVrQr/fsEuyWknfyOBm6t3BdlZgCQpBU9qXYHKlgOnAV8kPQIX/UBA0AzDeDlGamWjWp3oKAh4FvAEcCfK/dFhRkAmuntpFXIkspbPP7/pPWWAd8l7eT328p9USUGgObZHjimdiekPnZX7Q5kdA9wMnAS7t0vNcos4ErybOLh/czqRD9vBLQ19TfdiW5XAYfj90BNjdsISM3yZfJ9AfiHr070cwAYAK6g/qTdbbuPtKJ/r9Cjo8kyAGilXkreLwMDgDrRzwEA4NXUn8An0xaQ9up/ITAz/KioGwYAjWlz8j9wxACgTvR7ABgEzqP+hD6RNp+0oO9g0vumZjIA6O9MBS4i/5eEAUCd6PcAAGkzoFuoP8E/ui0BLiRt1rMHMD3XAVAoA4D+zico86VhAFAnDADJZsA11J3w55Mm/OOB5wNrZB2xcjEAaAV7k+7HNQCoaQwAj1gd+BSwiPx/p3cAPwKOBV5GuiPBTcF6Q+MCwEC3BTRp6wF/ADYs9HqzSQuEpImYTeykPR+YE1ivhseQrrPvDmxD+tudQvpFPriSf2cJaewPkQLEA6R9Bm4FbgJuJl1muHm4tTkoadWmEfurfQle/mmlAeBsyvzy9wyAJsMzAJ2bDaw9qkmjNe4MgDsB1vEuYP/anZAUan7tDkhqtp1Je42X/PXvGQB1yjMAUqzGnQFwcUlZs4Ez8LqNJKkyA0BZJ5FW9UqSVJUBoJyXAa+s3QlJksAAUMoWwBdrd0KSpBEGgPymka77u3uXJKkxDAD5fRx4au1OSJI0mgEgr38C3lm7E5IkPZoBIJ/1gS/jdsuSpAYyAOQxBTgd2KB2RyRJGosBII9/Bfat3QlJklbGABBvF+AjtTshSdKqGABiudWvJKkVDACxPg9sVbsTkiSNxwAQ5zDg4NqdkCRpIgwAMZ4AnFC7E5IkTZQBoHszgK8Dc2p3RJKkiTIAdO9Y4Mm1OyFJUicMAN15DnB47U5IktQpA8DkzQW+hFv9SpJayAAwOW71K0lqNQPA5LwHeFbG+suHmyRJWRgAOvcU4MOZX+PTwEOZX0OSJE3QmsB1wFDGdilpK+H5wXVnZTge6l2zif38PVi2+1LjTCP2b+rhbjvkGYDOnARslrH+fOAVBLyxkiStytTaHWiR15Am55zeBFyT+TWkGqYBb6jdCamiwdodeDRvYZuYLYHLyLvb36mk5wmMmE/safvZwILAeupts/G0vdRkS+jyybNeAhhfgAz0eQAAGHxJREFUia1+/wK8NWN9SZJWYAAY3yeBnTLWXwIcgr+2JEkFGQBWbT/y/zJ/L3Bx5teQJGkFBoCV2wg4jbzrJH4EHJexviRJY/IugLFNAb4CrJvxNW4HXkW6n1MTNxXYAdh2uG0NbAqsRVq4Nou0MGYBcB/p0spdwFXAlcDVpAWd95fuuCQ1iQFgbO8H9s5YfzlwKGli0vi2Il2O2QfYE1hjAv/ODGCdUf/3vqP+8zLShks/B34GnDv830mS+tiupI14cu729/EJ9KPfdwJci3Tf+PmkwJTz/bgNOB7YscjI2iF6J0CbzRbb3DAu2FrA9eR9035N2hRlPP0aALYA/gtYRJ0/qvNIZxv6nQHAZmt2MwAEO5O8b9h9wOYT7Eu/BYCtSIsul1D/D2sIuAQ4IOuIm80AYLM1uxkAAr2e/G/YwR30p18CwGrAUdT7xT9e+wVpsWG/MQDYbM1uBoAgTyStGs/5Zv13h33qhwDwXPI/XTGiPUQKKV1tu9kyBgCbrdnNABBgBvA78r5R19L5VsK9HACmAseSf3FfdLuUiV/CaTsDgM3W7ObjgAN8mryrvxcDL8WtfkdsQrrt7r2072FUO5PC4ktqd0SSutXvAeBA4M2ZX+O9pElD8DTSsXh67Y50YQ3Sw6HeX7sjkqTJ2Qi4m7ynaH7A5H/l9tolgH2AB6h/2iyynUjvhmgvAdhszW5eApikQeAM8m71extpt7+hjK/RFi8HfkjeRyrX8BbSrYuDtTsiSZ3q1wDwQdKWsrksJ+3zPy/ja7TFvsCpTGzzozY6GDipdickqVP9GACeAXwo82t8nLTHfL97KvBtev/2uTcAH6ndCUnqRNtWYXdrbeD3pJXouVwE7AEs7bLOfGKv288m7XVQyhOAi1nxgTy97g2kbYx7wWxi71xZAnwpsJ7UNlOA1wXWW0Lv/7gK9TXyLsq4D9gsqK9tXgQ4g/TI3dqLZEq3RcCTA45fE0QvAvQ2WPW7qcT+TbkRUAfeRP4J4KDA/rY5AHwuuO9tatcCa3Z/CKszAEixDACVbAcsJO8Xf/Sp37YGgBcF97uN7StdH8X6DABSLANABTNJ1/1zfuFfQ/rCjNTGADAHuCW4321t+3R5LGszAEixDAAV5D4dvYg8Wwm3MQAcF9znNrdrSOGzrQwAUiwDQGEvJP8X/Vsy9b1tAWAH0qrUkpPsncDppNX3/whsSNqqdyZpk6d/IO3b/ynSosTSDx/6YFdHtC4DgBTLAFDQxsDfyPsF/13y3UrZtgDw7eD+rqwtB74PPI/Od+DbEvgYcE+hvt5LexcEGgCkWAaAQgZJT5zL+eV+M/CYjGNoUwDYnjK/rs8lPZGvW2uQNu5ZVKDPbT0LYACQYhkACjmKvF/qS4G9Mo+hTQEg9/4KC4E3En+2ZWvg0sx9v5v4BaIlGACkWAaAAkZ24cv5pX50gXG0JQA8jrzH+3rSGYZcZgAnZ+z/EGkPirYxAEixDACZrQPcRN4v8/NJb2RubQkA7w/u5+h2BemxzbkNAMdkHMdFBcYQzQAgxTIAZJZ7Idq9wOMLjaUtAeDK4H6OtJtICzlL+kxQ38dq2xQcRwQDgBTLAJDRm8k7+Q8BLy42mnYEgF2D+zjS5gPbZujveKYAP55EfyfSPlpwHBEMAFIsA0Am2wMPkXfy/3yx0SRtCABHBfdxpL0qQ18naj3gjpX0q5t2WclBBDAASLEMABnMBP5A3sn/CmD1UgMa1oYAcF5wH4dIv8BrO4T4cS0jbU7UFgYAKZYBIIMvkHfyX0jeVegr0/QAMJv0AYzs41Kaca18ALiY+M/SS0oOoksGACmWASDYP5N38h8C/qXYaFbU9ACwb3D/hoD/Ce5jN55P/PhOLDqC7hgApFgGgEAltvr9Pvm2+h1P0wPAO4L7N0Taz78pphB/S+nPi46gOwYAKVbjAsCUbgtUMpX0a3GdjK9xM3Ao6UDr720dXO8vwIXBNbuxHPhqcM0adzZI0pjaGgCOJO+vxeWklej3ZHyNtou+Vv8Dmhe2ohckbgisFVxTkvrGXuTf6veoQmNZlaZfArgxuH8vCu5fhBnEL3TcsegIJs9LAFIsLwF0aW3gVDp/DGwnziM9KU6rFv2Y2z8F14uwGLguuOac4HqSNCltCgADwJeBTTK+xj3AwaR7trVqkU+4GyI99KeJovu1RnA9SZqUNgWAt5BuzcrptaTFf1q11Yk9C/MQsCSwXqT7g+t5BkBSI7QlAOwAfDLza3wO+E7m1+gV0bsiLgyuFym6b6V3lJSkMbUhAMwi3fI3M+NrXAG8K2N9tVf0nQm19pWQpBW0IQAcT977pxcBryCdhpYkqS80PQD8M+m6fE6HA3/M/BqSJDVKkwPAxqQH/eT0LeCLmV9DkqTGaWoAmAp8jfxb/b4+Y31JkhqrqQHgaGC3jPWXAgfhVr+SpD7VxACwJ/CezK9xNHBB5teQJKmxmhYA1iM9gS3nVr/nAsdkrC9JUuM1KQAMACcDj834GvcCr8StfiVJfa5JAeBw8m71OwS8Grgp42tIktQKTQkA2wMfz/wa/wl8N/NrSJLUCk0IALOAM8m71e+fgPdmrC9JUqs0IQD8J7BNxvoLgZfiVr+SJP2f2gHgJcBhmV/jcODKzK8hSVKr1AwAmwP/lfk1vkm6s0CSJI1SKwBMBU4H1sz4GjcDb8xYX5Kk1qoVAD4KPD1j/aXAy3GrX0mSxjS1wmvuC7w782scCVyY+TUkTdwAsHbtTkgV1ZhvV6l0h9YDTiXvmYdzgE9krC+pc7PwjJzUKCUvAQwApwAbZnyNecArcKtfSZJWqWQAOBw4IGP9ka1+b8v4GpIk9YRSAWBb8j+B7wTg+5lfQ5KknlAiAEwjXfdfLeNrXA68L2N9SZJ6SokA8CHgKRnrLyDtKLgo42tIktRTcgeALYD3ZH6NtwJXZ34NSZJ6Su4AcDwwI2P9bwBfylhfkqSelDMAPG+45XId8PqM9SVJ6lm5AsAA8LFMtQGWkO73vz/ja0iS1LNyBYAXAjtkqg1pYeHFGetLktRk93VbIEcAGACOyFB3xM+AT2WsL0lS03W96V2OAPAc8v36vws4FFieqb4kSW3w624L5AgA/5KhJqStfg8Dbs9UX5Kktvh2twWiA8CmwHODa444AfhhptqSJLXFb4GfdlskOgC8DhgMrglwBW71K0nSMuAdBFwKjw4ABwXXgzTIw3CrX0mS3g2cG1EoMgDsQtr6N9oXgUsz1JUkqS2Wkc6E/0dUwalRhUgP5In2AOmef0mS+tVFwDsJWPk/WmQAeH5grREnAvMy1JVU1hABG5dIfWIe6Y63S4DvAheQ/oZCRQWAjYBtgmqNWAh8JrimpDoWAOvU7oSkR0StAXhmUJ3RzgDuyVBXkqS+FxUA9g6qM9oXM9SUJEnEBYCnBNUZcQ2u/JckKZuIADCT+Ov/3wiuJ0mSRokIANsTezcBwA+C60mSpFEiAsB2ATVGexD4TXBNSZI0SkQAeHxAjdEuAZYE15QkSaNEBICNA2qM9rvgepIk6VGaGACuCK4nSZIeJSIArB9QY7Qbg+u11cPB9WYH1poTWAvixypJGkdEAIieDG4OrtdWDwbXe2xDa0F66JMkqaCIALBGQI3R3P43mR9cb5fAWrsG1gIDgCQVFxEAIk8tg5PBiNuD6x0YWCv6yY93BNeTJI0jIgAMBNQYbVlwvba6JrjefsCOAXV2BfYMqDPa1cH1JEnjiAgA0Qu4BoPrtdVVwfWmAJ+gu8A2SHpEc3ToMwBIUmERASB6057Vguu11WUZaj4bOLqLf/9TwD8G9WW0HGOVJK1CRABYHFBjtHWD67XVJcQvBAT4IPBROnvvB4FPA+/I0J95wB8z1FV3op4UOmIouJ6kLkX8kc8LqDHa3OB6bbUEOD9D3QFSCPgx6UFO49kZ+AXwzgx9AfgVsDxTbU1e9P4eC4LrSepSxFP87gqoMdqWwK+Da7bVt4DnZKr9LOD3pCDwXdJp+NuG/3+PA54CvADYh/hr/qOdlbG2Js+9HqQe18QAsHVwvTb7BnACMDNT/SmkuwP2y1R/PA+QwoeaZ6vgetEbW0nqUsQlgFsCaoz25OB6bXYf8J3ancjoTOCh2p3QmPYPrhe9r4WkLkUEgOjb1Z5G3lPObfMpenMB1XLSwkI1z+rAvsE1vdVTapgmBoC1idmwplf8Fvhh7U5kcBbxnx3FeCMpBEQyAEgNExEArgyo8WjRpx/b7kh6a6X8EuDDtTuhMa1Fuksk2p8y1JTUhYgAcC9wXUCd0V4QXK/tLgW+WLsTgY4HrqjdCY3pk8BjgmvOJ32GJfWgr5CuU0e2idyj3k/WJj00J/o4l243Ef8AqZxOIXb8ry3b/Y68mTzv+f+WHISkiYna7euCoDqjvSZDzTa7FziUdl8KWAocTJ4dDtWdlwLHZar9s0x1JTXAk4j/1XA/6XqkVvQx6v+Kn2x7f4bjkVuvnwEYID0fYjl53vNlpI2lJPWw63HCKGEQ+Db1J/NO2xnE7y9fQi8HgGcAF5H3ff9psdFIquYE4r887gXWKzmIlpgJnEP9SX2i7cfA9CxHIr9eCwDrAoeRbi0t8d6/ssioJHUscsOdZ5En7X8BeFOGum23Jmkb3T1rd2QcPwFeRHsfBnMKsetRzqH8PfEzSXv7P5a01fZgode9GXgC8HCh15NUyTTyrFJfCuxQcBxtMpP0wKDav/BX1s6gvb/8R0SfAein9pZJHG9JLTWybW10+2XJQbTMIPAR0mKr2l/4I20JaTOZNl7zfzQDwOTarcBqkzjeklrqieT7QnlxwXG00b6kB67U/uK/Gdgj81hLMgBMrr1iMgdbUrtdQJ4vlOvI91jcXrEW8FnSZZPSX/hLgM8Ac7KPsiwDQOftF/hAL6kvvYh8Xyw59ijvRU8Gzibfvd2j2zLSOoRe3bnRANBZWwBsM6kjLan1ppAeEJTjy+VBYKNyQ2m9HYHTgYXkeS++BGxXbDR1GAA6a7Vvc5RU2WvI9wVzWsFx9Io1gFeTzgrcz+SP/b3Ad0j3ds8qOoJ6DAATb1+Z5DGWVEGu63TTSY//3DJD7SFgN+DXGWr3g6nALqTLBNuQ7gufS7p2P7L18n3AA8CdwFWk+9YvBX5LOuXfT6L3AehVFwP70N79HiQFej75fmlcSm/cYqbm8wzA+O0aYP3JHmBJdeScRL9Hvn3AdwYOyVRb0sRdR7oF9a7aHZHULNuStgHN8avjDtK1bSmnk6n/C7up7XJclCu1Vu7T6FcCn89Uey7w3ky1Ja3az4B/JO34J0ljWhu4mzy/QBaTZ6GhNMIzACu25cCxlHugkKSW+3/k+0I6q+A41H8MAI+0G4Fndnc4JfWbQeAP5Pti2rfcUNRnDABpHc/x9N42z5IK2Yd8X1B/wFOSyqOfA8Ay4GukxbyS1JVvk+/L6l8KjkP9ox8DwELSNs9bBxw/SQJgC2AReb607iYtOJQi9UsAWAr8irSX/5oRB06SHu3j5PsSO67gONQfejUA3EPaTvt44EAe2QZaUp+o8czuOaS95TfMUHsJsANp/wEpwsnEPuHuNOCCwHoTMUR6vsODw+1a3LlPUiWHke+XTa7th9Wfos8A+LhcSY1Q64E6pwKXZKr9LGD/TLUlSeoJtQLAEPD24X/mcBwwI1NtSZJar+YjdS8Cvpqp9hbAWzPVliSp9WoGAEgP81mQqfYRwAaZakuS1Gq1A8CtwCcy1Z4DHJ2ptiRJrVY7AAB8CrghU+3XArtkqi1JUms1IQAsAt6TqfYU0kYnNfY7kCSpsZoQAAC+AZyTqfZuwEsz1ZYkqZWaEgAg3Ra4LFPtfwdmZaotSVLrNCkA/B44JVPtxwHvylRbkqTWaVIAAPg30p7lObwP2DRTbUmSWqVpAeBu4COZaq8GHJOptiRJrdK0AABwIulpgTkcBOyeqbYkSa3RxACwhHzX6wdItwU2cdySJBXT1Inwf4EfZqq9E/CqTLUlSWqFpgYAgHeSzgbk8HFgzUy1JUlqvCYHgKuAz2aqPRf4QKba6i2DwfWWB9eTpJ60BnA7MJShLQa2KjcUtdQ3if3cHVy2+5I0tiafAQB4ADgqU+3pwCcz1VbvmBNcb3FwPUnqWYOkXQJznAUYAp5VbihqoQuJ/bztX7b7ktRue5EvAPwJmFpsJGqbPxP7eXt62e5LUvt9g3wh4C0Fx6H2GAQeIvaztmXREUhSD3g88V/GI+1vwDrFRqK22IL4z9paRUcgSSvR9EWAo91AeqxvDusAH85UW+21bXC9+8n3sCtJ6mmzgVvIcxZgCbBduaGoBd5N7Gfsd2W7L0kr16YzAADzSY/1zWEqcFym2mqnPYPrXRdcT5L6ygBwHvkWBB5YbihqsKmkfSgiP1teZpKkLu0MLCNPAPgrMKPcUNRQuxP/2Xpx0RFI0iq07RLAiMuA0zPV3hx4e6baao9nZ6j5xww1JanvzCWtqs5xFuABYMNyQ1HDDAB/IfYzdddwXUlSgA+Qby3Afxcch5plb+I/T2cVHYEk9biZpGv2OQLAMmCXckNRg5xG/OfJy0qSFOxF5DsLcAGetu03a5FuN43+LEVvKiRJAn5MvhDwioLjUH3vIf4z5P3/kpTJ9sBS8gSAm4HVyw1FFU0FbiT+M3RCyUFIUr85iXxnAdzApT+8jDyfn38sOQhJ6jfrAPPI8wW+kPQ0QvW2i4j/7NyI60gkKbu3ke8swNcLjkPlPZU8n5tjSg5CkvrVVOBy8oWAPcsNRYV9jfjPy3LgCSUHIUn9bB/yBYDfAYPlhqJCNgIeJv7z8sOSg5AkwdnkCwGvKzgOlXEseT4rPllSkgrbAlhEni/1O0mbxag3rE6exaPX4dkiSariU+Q7C/DvBcehvN5Mns/I20oOQpL0iDnAbeT5cl8MbF1uKMpkALiS+M/H/cAaBcchSXqU15HvLMDZBcehPJ6HZ4gkqSdNAS4hXwjYr9xQlMFPif9MLAU2LzkISdLYdiPdj50jAFwJTCs3FAV6Enk+F98oOQhJ0qrl2ORlpB1ecByKczJ5Pg/u+y9JDfI48jzjfQi4B1i33FAUYD3S8x2iPwuXlhyEJGlijiLfWYCTyg1DAY4gz+fgFSUHIUmamNWAG8jzxb8UeGKxkagb08lze+itw7UlSQ10EPnOApxVcByavFeS5/3/QMlBSJI6MwCcT54JYDnw5HJD0SRdRPx7vwB4TMlBSJI6txOwjDwh4KsFx6HO7Uie9/1zJQchSZq8U8gzESwBNik4DnXmc+Q58+P6D0lqifWB+8gTAo4sOA5N3DTyPPXvByUHIUnq3nvIEwCuJ601ULMcQJ73+9klByFJ6t4M4FryTAq7FRyHJuY04t/nKzDsSVIrPZ88AeDYkoPQuAaBu4l/n19fchCSpFg/Ic8vQzXHbsS/x38DVi85CElSrCeT56lwc0sOQqv0YeLf3xOLjkCSlMX3iZ8gXlR0BFqVXxD//u5UdASSpCx2J36C+ETREWhlppF26ot8b39XdASSlMGU2h1oiPOBm4JrbhdcT5OzA/HX6k8PridJxRkAkiHgG8E1DQDNsEOGmj/JUFOSijIAPOLnwfU2AaYG11Tndgyudyfwp+CaklScAeARvw2uN4W05bDqij4T83PSGSNJajUDwCPuBG4PrrlBcD11bvPgeucE15OkKgwAK7oruN6s4HrqzDTgccE1/xxcT5KqMACs6J7geu4UV9dGpG2AI10dXE+SqjAArGh+cL3pwfXUmfWC6/2N9EwBSWo9A8CKohd3+aS4utYNrveX4HqSVI0BQL1sneB69wXXk6RqDADqZasF13swuJ4kVWMAUC+LXoNhAJDUMwwA6mXROzFGLxKVpGoMAOpl0Z/vZcH1JKkaA4AkSX3IACBJUh8yAEiS1IcMAJIk9SEDgCRJfcgAIElSHzIASJLUhwwAkiT1IQOAJEl9yAAgSVIfMgBIktSHDACSJPUhA4AkSX3IACBJUh8yAKwo+nnvDwTXU2ceDK7n+ympZxgAVnRbcL1bg+upM7cH14v+fEhSNQaAFV0WWOse4PrAeurcZcDywHqXBtaSJDXImsBiYCignVa47xrbhcS8nzcDA4X7Lkkq6LN0P1ksA55cuuMa04uJCQBvL91xSVJZc4F5dDdZnFy811qZAeAcuns/rwJmlO64JKm83Zn8pYDfAauX77JWYS5wE5N7Px8AtivfZUlSLfsD99PZZHEesH6NzmpcWwJX0tn7eSuwa43OSpLq2hr4AeNPFA8CRwLT63RTE7QmcCLwMOOv4fgKsGGdbkqSmuJpwL8DvwXuJF0euAH4EfBW/NXfNpsB7yOtDbiF9H7eBlwEfBhP+UvqA/8fQoQjLqqEvgsAAAAASUVORK5CYII=;fontFamily=Space Grotesk;fontSource=https%3A%2F%2Ffonts.googleapis.com%2Fcss%3Ffamily%3DSpace%2BGrotesk;fontSize=27;fontStyle=1" vertex="1" parent="1">
          <mxGeometry x="1250" y="-45" width="207" height="207" as="geometry" />
        </mxCell>
        <mxCell id="StRmfVQufm-jLz1Iqn4o-21" value="LCD display" style="shape=image;verticalLabelPosition=bottom;labelBackgroundColor=none;verticalAlign=top;aspect=fixed;imageAspect=0;image=data:image/png,iVBORw0KGgoAAAANSUhEUgAAAgAAAAIACAYAAAD0eNT6AAAABHNCSVQICAgIfAhkiAAAAAlwSFlzAAAN1wAADdcBQiibeAAAABl0RVh0U29mdHdhcmUAd3d3Lmlua3NjYXBlLm9yZ5vuPBoAACAASURBVHic7d17sGV1eebx79t9oGmbS/fIeAG5qeANEUGCig7jFQkFYo1jYSwyDqJhBFOZyYRRMWFIQlSMsVLjDS/REWMIo6WAGUWETBKJojS0iIQBVFoFo8Hp5tJybd75Y62G7uZ0n8v6rb3X3r/vp2pXKX3Wu5+zT/d+n7Mva0dmIkmS6rJk3AEkSdLoWQAkSaqQBUCSpApZACRJqpAFQJKkClkAJEmqkAVAkqQKWQAkSaqQBUCSpApZACRJqpAFQJKkClkAJEmqkAVAkqQKWQAkSaqQBUCSpApZACRJqpAFQJKkClkAJEmqkAVAkqQKWQAkSaqQBUCSpApZACRJqpAFQJKkClkAJEmqkAVAkqQKWQAkSaqQBUCSpApZACRJqpAFQJKkClkAJEmqkAVAkqQKWQAkSaqQBUCSpApZACRJqpAFQJKkClkAJEmqkAVAkqQKWQAkSaqQBUCSpApZACRJqpAFQJKkClkAJEmqkAVAkqQKWQAkSaqQBUCSpApZACRJqpAFQJKkClkAJEmqkAVAkqQKWQAkSaqQBUCSpApZACRJqpAFQJKkClkAJEmqkAVAkqQKWQAkSaqQBUCSpApZACRJqpAFQJKkClkAJEmqkAVAkqQKWQAkSaqQBUCSpApZACRJqpAFQJKkClkAJEmqkAVAkqQKWQAkSaqQBUCSpApZACRJqpAFQJKkClkAJEmqkAVAkqQKWQAkSaqQBUCSpApZACRJqpAFQJKkClkAJEmqkAVAkqQKWQAkSaqQBUCSpApZACRJqpAFQJKkClkAJEmqkAVAkqQKWQAkSaqQBUCSpApZACRJqpAFQJKkClkAJEmqkAVAkqQKWQAkSarQTNcBEbEK2BWI7nEkSdIcErgzM9d1GRKZOf8vjtgbeDVwLPBU4InATl0CSJKkRbkX+BlwM3AxcGFm/ni+B8+rAETEK4GzgOcvMqQkSerft4AzM/Nrc33hdgtARBwMvB94ablskiSpZ5cDv5uZa7b1BdssABFxIvBxYFk/2SRJUo/uA96cmefN9oePehdANN4LfAaXvyRJk2oZ8JmIeG9EPOqF+rO9DfCPgNN7jyVJkkbhdJrdvoUtngKIiBOAvxphKEmSNBqvz8zzN/2fhwtARDwduBpYPqZgkiSpP/cAh2TmDbDlUwDvweUvSdK0Wk6z64H2EYCIOAL4xvgySZKkEXlRZl6x6RGAd401iiRJGpV3QXP+/l2B24EdxhpHkiSNwgPA7kuAX8flL0lSLXYAfn0JcPS4k0iSpJE6egmw77hTSJKkkdp3CbDHuFNIkqSR2iOAu4EVHQfdCcz9ucKTYQUw03HGr2heZNHFcmDHjjPupfkwiC6WATt1nHE/zQkoutgBeEzHGQ8CGzrOWArs3HFG0vyb6WLTC3i7uqPAjN0KzLgLeKjAHKkGJf79bwjKLO5Vmbm+wJyxi4ivAkd1HLPF6RYXmeOjwG91zPGOzHzP3F+23RxvB97dMce5mXlKxxwlTlN9SWa+qmOOg4FrOuZYm5n7dsyxEljXMQeZ+agPCFlElvV0LwH7ZeYtXbNINSj173+2DwOSJElTzgIgSVKFLACSJFXIAiBJUoUsAJIkVcgCIElShSwAkiRVyAIgSVKFLACSJFXIAiBJUoUsAJIkVcgCIElShSwAkiRVyAIgSVKFLACSJFVoYgpARHT+3HJJkvo0SbtqZtwBticijgZeBrwAOCQi1gLfbC+fy8y7x5lPklS3iNgZ+A2aPfUCYJ+IuJpmT12WmV8ZZ77tGWQBiIgnAx8BXrnVHz2tvbwReFdEnJqZF484niRJRMSxwIeAvbb6oxe2l9+NiK8B/ykzfzjqfHMZ3FMAEfEG4Doevfy3thdwUUR8pv9UkiQ9ot09F/Ho5b+1VwLXtbttUAZVACLiSTS/+S9fwGEnRsRJPUWSJGkL7c45cQGHLAc+0u64wRhUAaB5KGWXRRz3pxHxhNJhJEnaXLtr/nQRh+5Cs+MGYzAFICJeCBy3yMNXAWcUjCNJ0mzOoNk5i3FcRBxeMkwXgykAwMs7Hn9MkRSSJG1b113zwiIpChhSATiy4/H7RcTjiiSRJGkr7Y7Zr+MYHwGYxYqBzLjfGc6YgBkPDGQGDOc2kfpWYsc8q8CMIoZUAH5VYMaDBWZcV2DGtQVmDCXHNH0vJXLcRPdl1fl7ycwNwI86jilxe0D372ddZt5WJInUrxI75gcFZhQxpALQ9c7sXzLzJwVyXN3x+HWZefMAciRwVYEcV7Wzuuj6vdDepusGkOMB4Hsdx3yna45W1++n8+3R6vr9lMoh9ardMf/Sccw1JbKUMKQC8Ncdj/96kRTdl+a3i6Rolsx9HY6/MTPXdw3Rzrixw4j76L4wN+l625YoRNB94V1ZJEX3HKWKSNfvp1QOaRS67prBFN4hFYDLgLWLPDaB95YIkZm3AJ9a5OEPAX9YKMd9wJ90GHFmiRwFZv1J+72U8Ic0t/FifKr92ZbwPmCxn0Pxt8DfFcrxMWCxD53fDJxXKMeXWXy5+n/AnxfKIY3Ce1n8o6JXAv+7YJbOssBlZWbS9ULz9ogHFnH955a4/s1y7EpTRhaa4/2Fc8zwyEPwC7l8oWSONssXFpHjKmCmcI73LyLHWmDXwjlOWUSOu4H9Cuc4ehE5NgJHFM5xIM2jPQvNckLpv6tevPR9Ac5dxN/1e4FnFLr+lYu4/tkuRYYUKQDtN3YaCysBlwI79PADPhJYv4AcVwDLe8jxDODWBeS4AXhcDzke186eb45bS/1l3yrH8va2nm+O9cCRpXO0WT63gBz3ASf2lOPdC8jxEPCOnnK8leZFUvPN8pE+cnjx0vcF2KHdPfP9u/4AcErB65/OAtB+c8+heb53e9e5EXgPsGOPP+S9aJ7vmeuO/R3A0h5zrAI+O4879j+jhxKyWY7l7XU8NEeWzwKresyxtL3N5/qN8+vAXn3laLO8EbhjjhzXAAf1nONo5i6KP6SnMrRZjl8D/mmOHL8A/l2fObx46fsC7NjuoI1z/H3/Zul//xQqANH+j65WZYEXnG0uIpbQfMbykTR3Ks+iucO/BbgY+HRm3lDyOreRI9oc/xY4tM1xF80LOVYDf5mZpd5ONVeWo2nOQnUoTUl6gGa5XA18PjP/cUQ5Xgi8FjgEeC5NG/4uze3xNzmiz7+OiAOBN9DcHofQnGv7+22O/wN8Ltt/LT3n2Bt4U5vhEOAJNI+WrAb+EfhkNu8e6DvHKuAtwGFtjn1p3nK0muaFdudm5mJfu7CQHDu1OQ6n+dnsT1NOVreXj2XmL/rOIY1CRDyd5heBY2n+zS2jeYvtt2le8/PXmbnY1y5t6zpX0v1dUQy2AGwtInbMzLGfLCQiZjKzxHtBu+ZYCjw0igU3R44AlmTmxnHmaLMM5WezwygWvjmk4RnFripVAGYKZBmJISx/gCEsGIAhLFyAtoAMJctQfjaDWHbmkEZvKLtqPob0NkBJkjQiFgBJkipkAZAkqUIWAEmSKmQBkCSpQhYASZIqZAGQJKlCFgBJkipkAZAkqUIWAEmSKmQBkCSpQhYASZIqZAGQJKlCFgBJkipkAZAkqUIz4w7Qh4hYAbwUeAqwJ7DHZpdlY4wmSRqu+4DbNrvcCvwAuDwzN4wzWB+mpgBExO7AccDxwCuAncabSJI0gQ6Y5b/dGxGXAl8CLsrM20ecqRcBZIE5qzJzfYE5CxYRzwTOBo4Flo4jgySpGhuBi4EzMvP6cQSIiJXAuq5zJvY1ABGxZ0R8AriW5rd+l78kqW9LaXbOtRHxiYjYc9yBFmviCkBELI2Is4CbgDfh4pckjd5Smh10U0ScFRETt4sm6imA9mGP84Gj+r4uSZIW4BLghBHuwnqeAoiIpwFX4vKXJA3PUcCV7a6aCBNRACLiJTTLf7ZXZ0qSNAQH0JSAl4w7yHwMvgC0beqLwG7jziJJ0hx2A744CY8EDLoAtM9zXITLX5I0OXYDLmp32GANtgC0r6g8Hx/2lyRNngOA84f87oDBFgDgD/AFf5KkyXUUzS4bpEG+DbA9scJNwPJSMyVJGoN7gP0z89ZSA6f9bYBn4fKXJE2+5TQ7bXAG9whAe27/a/EMf5Kk6bAROKjUZwdM8yMAZ+PylyRNj6U0u21QBvUIQPuRvv+MBUCSNF02Ak8o8VHCpR4BmOk6oLDjKL/81wJXAN8BVgN3FZ4vSZoOuwCHAocBRwD7FJy9lGbH/UXBmZ0MrQAcX3DW/TQvvDgnMx8sOFeSNL3+ASAiZoDTgTOBHQvNPp4BFYDBPAUQESuA24GdCuT5J+B1mXldgVmSpEpFxIHABcAzCoy7F9g9Mzd0zDR1LwJ8KWWW//24/CVJBbS75HU0u6WrnWh23SAMqQA8pdCcs1z+kqRS2p1S6r38pXZdZ0MqAHsWmLEWOKfAHEmSNncOzY7pqsSuK2JIBWCPAjOu8AV/kqTS2t1yRYFRJXZdEdNWAL5TYIYkSbMpsWMsALMocaOsLjBDkqTZlNgxFoBZLCsww5P8SJL6UmLHlNh1RQypAEiSpBGxAEiSVCELgCRJFbIASJJUIQuAJEkVsgBIklQhC4AkSRWaGXeAwj4UEdt7n+ZDwE3AGuAa4LuZWeLjkOcUEbsBhwEHA88FHjuK65WkCfBLmvvkNcB3MvOOUVxpRATwHJr75IOB/dn+L8a7FLjakeyc+QjKhFmVmes7BYm4BdinQJaF+HvgpMz8QZ9XEhGvBz4I/Ks+r0eSpsA64Lcz87N9XklE7Ad8Cjiyz+uZxdrM3LfLgIhYSXM7dVL7UwD/Brg2Ik7tY3hE7BYRFwCfw+UvSfOxCjgvIr4UEav6uIKIOBm4ltEv/0GpvQAAPAb4YEQc1cPsDwP/voe5kjTtXg18tPTQiHg58HFg59KzJ40F4BEfj4hdSw2LiNcCv1FqniRV6HUR8bpSwyJiF+CTpeZNOgvAI/YCziwxKCKWAx8pMUuSKveh9j61hP8O7F1o1sSzAGzp5YXmHATsXmiWJNVsd5r71BJK3cdPBQvAlp5ZqGkeXGCGJKnR+T61vW9/ZoEsU2NIBWAI742coUzTtABIUjkl7lMPYhjnvhnCrgOGVQB6fS/+ApR420kvb12RpEpN0/3yUHbdoArAVeMOIElSzwaz64ZUAFaPO4AkST0bzK4bUgH4CrB23CEkSerJWppdNwiDKQCZeTdw8rhzSJLUk5PbXTcIgykAAJn5dXo49aMkSWP20XbHDcagCkDrrcDbgA3jDiJJUkcbaHbaW8cdZGuDKwDZ+CDwbODzwM/HHEmSpIX6Oc0Oe3ZmfjAzB/P+/02GcFKEWWXmj2g/SS8inkRzIoi5Pr3pPcA+PUcblU8Cg3q4SJIW4eXAm8YdopC1wNvn+Jq7gTWZ+dMR5OlksAVgc+0NOeeNGRFvZ3oKwFWZef64Q0hSFxGxkukpAOun6X55cE8BSJKk/lkAJEmqkAVAkqQKWQAkSaqQBUCSpApZACRJqpAFQJKkClkAJEmqkAVAkqQKWQAkSaqQBUCSpApZACRJqpAFQJKkClkAJEmqkAVAkqQKzYw7gIYnIpYABwDPAZ4K3AxcDdycmTnObFuLiBXAwcAhwCpgDbA6M28dazBJGjgLgB4WEQG8BXgvsNssX/LLiPi9zPzUaJM9WkSsBN4PvJFZHsmKiO8BJ2XmVSOOJkkTwacABEBEPBm4DPgosy9/gMcCfxERX46IJ44s3FYi4njgeuAktv13+NnANyPi7IjYcWThJGlCWABERDwb+BbwknkecgxwaUQs6y/V7CLid4AvAvMpIDPAO4Fzeg0lSRPIAlC5dvlfBvzrBR76LOCs8om2rV3+H1jEoW+LiBeVziNJk8wCULEOy3+T/xoRzysYaZs6LH9o/p5/yqcCJOkRFoBKFVj+AEuB15RJtG0dl/8mT6V5V4MkCQtAlQot/00OKTBjmwot/016zSpJk8QCUJnCyx96XKqFlz9YACTpYRaAivSw/AEeLDjrYT0sf+gpqyRNIgtAJXpa/gDfLTyvr+UPPWSVpEllAajAZif5Kb38oTn1bjE9Ln8onFWSJpkFYMpFxA7A+fSz/B8E/lepYT0v/+uxAEjSwywA0+8M4LCeZr8vM68pMajn5b8R+I+ZeX9P8yVp4lgAplj7qX4n9zT+BgqdCbDn5Q9NUfl2j/MlaeJYAKbbkcCePcz9KXBsZt7XddAIlv/ngd/vcb4kTSQLwHR7Wg8zfwq8JDNv7jpoRMv/9Znp2/8kaSsWgOm2S+F5Ln9JmhIWgOnW+SH6zbj8JWmKWACm298VmuPyl6QpYwGYbtcCv+g4w+UvSVPIAjDFMjPp9lY9l78kTSkLwPQ7l8WdA9/lL0lTzAIw5TJzI3AMcN0CDvs+Ln9JmmoWgApk5q3Ai2nO25/b+dKNwLuBQ1z+kjTdZsYdQKORmeuB10XE04G3Ac8FDgDuB1a3lwsn5Nz+4PKXpE4sAJXJzBuAU/u8Dpe/JA2fTwGoKJe/JE0GC4CKcflL0uSwAKgIl78kTRYLgDpz+UvS5LEAqBOXvyRNJguAFs3lL0mTywKgRXH5S9JkswBowVz+kjT5LABaEJe/JE0HC4DmzeUvSdPDAqB5iYhX4fKXpKlhAdCcImJX4GM9XoXLX5JGzAKg+TgH2Kun2S5/SRoDC4C2KyICeH1P413+kjQmFgDN5QBg1x7muvwlaYwsAJrLoT3MdPlL0phZADSXZYXnufwlaQAsAJrL6oKzXP6SNBAWAM3leuCeAnNc/pI0IBYAbVe7sL/acYzLX5IGxgKg+TgNWL/IY13+kjRAFgDNKTNvA357EYe6/CVpoCwAmpfMPA84BbhrHl/+APAHuPwlabAsAJq3zDwXOBC4ZDtfdg1wWGb+kctfkoZrZtwBNFky88fAqyLiscDzaE4UtIzm7YKrM/PWceaTJM2PBUCLkpm/pHkkYHuPBkiSBsqnACRJqpAFQJKkClkAJEmqkAVAkqQKWQAkSaqQBUCSpApZACRJqpAFQJKkClkAJEmqkAVAkqQKWQAkSaqQBUCSpApZACRJqpAFQJKkClkAJEmq0My4A8xHRDwJOBjYeY4vXTmCOKPyvIg4YdwhJKmj5407QEEr53G/fDewJjN/OopAXQy2AETEfsA5wIuBx485zji8qb1IkoZhH+Cv5vOFEfFz4B+A0zPzR72mWqTBPQUQjdOA7wGvpc7lL0mabI+n2WHfi4jTIiLGHWhrgysAwIeB/wGsGHcQSZI6WkGz0z487iBbG1QBiIiXA6eMO4ckSYWd0u64wRhMAYiInYFPjDuHJEk9+US76wZhMAUAOJrmBRaSJE2jfWh23SAMqQAcOu4AkiT1bDC7bkgFYJreKypJ0mwGs+uGVACeMu4ArXUDmSFJakzT/fJQdt2gCsAQ3iP5IHBtgTlrCsyQJDVK3KdeS3MfP25D2HXAsArAEFyfmfcUmGMBkKRyOt+ntvft1xfIMjUsAFv6eqE51wK3F5olSTW7nTKPzEK5+/ipYAF4xE+As0oMapvmqSVmSVLlTi30yCw09/E/KTRr4lkAHvHmzLyz1LDMvAC4oNQ8SarQBe19aRHtffybS82bdBYA+BVwWmZe0sPsU4ALe5grSdPuQno4NXx7X38azX1/1WovAH8PHJSZH+pjeGauy8zjgRMZzltQJGnI1gEnZubxmdnL/WZ7n38QzQ6oVgBZYM6qzFzfKUjELXQ/FfBq4O7t/PlG4CbgqvZr12Rmie9/ThGxG3A4zVmgDgV2H8X1StIEuJ3mPnk1cGVm3jGKK20/ovdgHrlfPgBYup1DVtD9RD63ZOZ+XQZExEoK/FI5bQXguZnpW/AkScVFxMHANR3HrM3MfTvmKFIAan8KQJKkKlkAJEmqkAVAkqQKWQAkSaqQBUCSpApZACRJqpAFQJKkCg2pANxXYMYuBWZIkjSbEjumxK4rYkgF4LYCMw4tMEOSpNmU2DEldl0R01YADiswQ5Kk2ZTYMRaAWZS4UY6IiJkCcyRJeli7W44oMMoCMItbC8zYBzi9wBxJkjZ3Ot0/rwbK7LoihlQAflBozpkRcWChWZKkyrU75cxC40rtus6GVAAuB+4tMGdH4AJLgCSpq3aXXECzW7q6l2bXDcJgCkBmbgAuLTTuGcDqiHinrwmQJC1URMxExDuB1TQ7pYRL2103CENbjl8Cji00a0fgbOAtEXEF8B2aH+RdheZLkqbLLjRv9TuM5gV/JZ7z39yXCs/rJIAsMGdVZq7vHCZid+CfgaXdI0mSNBgbgSdk5u1dB0XESmBd1zmDeQoAoL1hLh53DkmSCru4xPIvaVAFoHUGTVOSJGkabKTZbYMyuAKQmdcDnx53DkmSCvl0u9sGZVCvAdgkIvYEbgKWl5opSdIY3APsn5nFTgA0la8B2KS9od437hySJHX0vpLLv6RBPgIAEBFLgb8Bjio5V5KkEbkEOCYzi76ubaofAQBob7ATgBvHnUWSpAW6ETih9PIvabAFAKB9VOE44I5xZ5EkaZ7uAI4r/ch4aYMuAACZ+X+B12AJkCQN3x3Aa9rdNWiDLwAAmfm3wOH4dIAkabhuBA5vd9bgTUQBgIcfCTic5kUVkiQNySU0y3/wv/lvMjEFAB5+TcAxwB/SvLdSkqRxuodmJx0z9Of8tzZRBQCadwdk5pnA/sAn8bTBkqTR20izg/bPzDOH/Gr/bZm4ArBJZt6amScDB9F8xOLE3fiSpImzkWbnHJSZJw/1JD/zMdgTAS1U+1HCxwHHA68AdhpnHknS1LgXuJRm8V807k/1K3UioKkpAJuLiBXAS4GnAHsCe2x2WTbGaJKk4boPuG2zy63AD4DLM3PDOINtzgIgSVKFpv5UwJIkqT8WAEmSKmQBkCSpQhYASZIqZAGQJKlCFgBJkipkAZAkqUIWAEmSKmQBkCSpQhYASZIqZAGQJKlCFgBJkipkAZAkqUIWAEmSKmQBkCSpQhYASZIqNDPuANsSEQG8FngR8BzgmcBtwJr28j8zc934EkqSahcRq4D/ABzcXvYArge+C3wD+Hxm5vgSblsAJYKtysz1BeYAEBEHAh8FjtjOl/0C+C+Z+ZelrleSpPmKiDcAfwY8bjtfdgVwSmZeV/B6VwKdfwEe3FMAEfFbwDVsf/lDc4N/NiIujIjBfR+SpOkUEUsi4kLgs2x/+UOzy65pd9ugDGpxRsSTgQ+wsKcmjgPe2k8iSZIe5a00u2e+ZoAPtDtuMAb1FEBEfA14xSIOvRt4Vmb+uGsGSZK2JSL2Br4P7LyIwy/NzFcWyDBdTwFExItZ3PKH5gfxewXjSJI0m//G4pY/wCsi4kUlw3QxmAIAvLjj8YcXSSFJ0rZ13VUvKJKigCEVgK43ykERsUORJJIkbSUidgWe1XHMr5XIUsKQCsDjOx6/DNi7RBBJkmaxO9335tNLBClhSAXgRx2PfwDwRYCSpL78BNjYccaNJYKUMKQC8MOOx1+fmQ8USSJJ0lbaHfOTjmOuLpGlhCEVgC90PH51kRSSJG1b11317SIpChjaeQC+DByziEPvAJ6dmV2bmSRJ2xQRj6N5yvoxizj8q5l5dIEM03UegNYZwIZFHPc2l78kqW+Z+Qvg3Ys4dD1wcuE4nQyqAGTmd4GjgDsXcNifZ+Z5PUWSJGkLmfnHwNkLOOQu4Dcz89aeIi3KoAoAQGZeAbwUmOuTk24Hjs/M3+k/lSRJj8jMdwH/mbkfir8SeG5mXtx/qoUZ1GsAthYRrwBOBZ4C7ArsQPP5yl8FLsrM20tfpyRJ8xURK4DfBN5Ac56AXWg+n+ZrNLvqksx8sPB1FnkNwKALgCRJ2tK0vghQkiSNgAVAkqQKWQAkSaqQBUCSpApZACRJqpAFQJKkClkAJEmqkAVAkqQKWQAkSaqQBUCSpApZACRJqpAFQJKkClkAJEmqkAVAkqQKWQAkSaqQBUCSpAoFcDewouOcO4HsHkeSJM0hgF07ztgwA/wMeGrHQV2DSJKk0fnZEuC2caeQJEkjddsS4JZxp5AkSSN1yxLgK+NOIUmSRuorm15IcDuww5jDSJKk/j0A7L4kM+8ELht3GkmSNBKXZeadkZlExBHAN8adSJIk9e5FmXnFEoDMvAK4cMyBJElSvy5sdz6R2Zy/JyKeDlwNLB9jMEmS1I97gEMy8wbY7FTA7X84aVypJElSr07atPxhq88CyMzzgbNHHkmSJPXp7HbHP2y2DwP6feCc0eSRJEk9O4dmt2/h4dcAPOoPIk4EPg4s6zeXJEnqwX3AmzPzvNn+cJsfB9we8Hzg8p6CSZKkflwOPH9byx+2UwAAMnNNZr4MOAr4VuFwkiSprG8BR2XmyzJzzfa+cJtPAcz6xRF7A68GjqX5COEnAjt1CCpJkhbnXuBnwM3AxTTv8f/xfA9eUAGYdUDEKprPE4hOgyRJ0nwkcGdmrusypHMBkCRJk2e7rwGQJEnTyQIgSVKFLACSJFXIAiBJUoUsAJIkVcgCIElShSwAkiRVyAIgSVKFLACSJFXIAiBJUoUsAJIkVcgCIElShSwAkiRVyAIgSVKFLACSJFXIAiBJUoUsAJIkVcgCIElShSwAkiRVyAIgSVKFLACSJFXIAiBJUoUsAJIkVcgCIElShSwAkiRVyAIgSVKFLACSJFXIAiBJUoUsAJIkVcgCIElShSwAkiRVyAIgSVKFLACSJFXIAiBJUoUsAJIkVcgCIElShSwAkiRVyAIgSVKFLACSJFXIAiBJUoUsAJIkVcgCIElShSwAkiRVyAIgSVKFLACSJFXIAiBJUoUsAJIkVcgCIElShSwAkiRVyAIgSVKFLACSJFXIAiBJUoUsAJIkVcgCIElShSwAkiRVyAIgSVKFLACSJFXIAiBJUoUsAJIkVcgCIElShSwAkiRVyAIgSVKFLACSJFXIAiBJUoUsAJIkVcgCIElSM00YugAAAJZJREFUhSwAkiRVyAIgSVKFLACSJFXIAiBJUoUsAJIkVcgCIElShSwAkiRVyAIgSVKFLACSJFXIAiBJUoUsAJIkVcgCIElShSwAkiRVyAIgSVKFLACSJFXIAiBJUoUsAJIkVcgCIElShSwAkiRVyAIgSVKFLACSJFXIAiBJUoUsAJIkVcgCIElShSwAkiRVyAIgSVKF/j+Al4kLR28TWAAAAABJRU5ErkJggg==;fontFamily=Space Grotesk;fontSource=https%3A%2F%2Ffonts.googleapis.com%2Fcss%3Ffamily%3DSpace%2BGrotesk;fontSize=27;fontStyle=1" vertex="1" parent="1">
          <mxGeometry x="1946.5" y="-15" width="229" height="229" as="geometry" />
        </mxCell>
        <mxCell id="StRmfVQufm-jLz1Iqn4o-22" value="" style="shape=image;verticalLabelPosition=bottom;labelBackgroundColor=default;verticalAlign=top;aspect=fixed;imageAspect=0;image=data:image/png,iVBORw0KGgoAAAANSUhEUgAAAgAAAAIACAYAAAD0eNT6AAAABHNCSVQICAgIfAhkiAAAAAlwSFlzAAAOxAAADsQBlSsOGwAAABl0RVh0U29mdHdhcmUAd3d3Lmlua3NjYXBlLm9yZ5vuPBoAACAASURBVHic7d13uGVVefjx771TmAozQx+aIGWkKkVRQUCxU0VNbNg1GmOJRk0xMYkFYy8pamwYfyrERrGhiDQLoCJtAEH6DB1mmN5+f7z3hsv1llPW2mufs7+f53mfuVxm1n73Pufstc7aqwwgqVfMALYEFoyKLUf9fh6wxdC/mQrMHfp5OjB7RFkzh35eBawe+nkFsHbo5+XA+qGfHwQeAO4D7h2K+0bF8O+Gy5JUYwOlE5D0f+YDC4Htgd1GxPDvdqU3PrP3A0uAO4AbR8Tw724CNpZKTlLohZuJ1E9mAI8B9gb2HfpzT2AXHv5G3u9WEY2A64CrgSuH/rwGWFMuLalZbABIeUwDFvHIin4/4hv9lIJ51dkG4AYebhAM/7kYWFcwL6kv2QCQ0lgIHDQUTx6Kpnyjz20d8HvgIuCyobiqaEZSH7ABILVvNvA4Hq7wDyOez6s6S3i4MXAZcAExSFFSi2wASJPbjPhG/3TgaOCxxOh61cd64LfAT4BzgItxPIE0IRsA0th2Iyr7o4FnApuXTUdtWkU8MvjJUPwG2FQ0I6lmbABIYTuioh+u9Lcrm44SW0r0DJwD/Bi4s2w6Unk2ANRkOwMnAscAR2K3flNsJB4XnAV8Dbi+bDpSGTYA1DS7AccCLwCehJ8BxVTD04HThn6WGsGbn5pgH6LCP4YYtS+N50aiZ+B0YgyB4wbUt2wAqF8tJCr9VxML8Ejtuhb4BvBlYuVCSVJNbUZ0759GLB6zyTASxAZi8ODJwCykPmEPgPrBPsDLiG/7WxXORf3tQeCbwFeBCwvnInXFBoB61dbAy4FXEA0AqWpXAV8CvgLcUzgXSep7ewGfJPatL901bBibgNXAqcD+SJKSGiQW5zmTmMNd+oZvGOPFhcTgU9eUkKQubA68jtgOtvSN3TDaiRuBdwELkCS1bC/g34HllL+RG0Y3sQz4NLAHUs04CFB1sh/wD8DziW5//ak1xFa4dwP3jRP3Dv25dihWDP3bVcTzaoCHiKmSANOAOUM/zwBmDv08G5hOTK9cME5sOfTn1sT+CZslPNd+spGYnvo+YvCgVJwNANXBvsA7gRcDUwrnUtpq4A6iC3k4loz43c3EvPS6mk8st7wQ2H7o591G/a7JNgFnA+8FLiubiprOBoBK2p+Hv/E37b14P7Hu/FUj/ryS2LWunw03EPYhlmXee+jnpjUMhhsC/wJcUjgXNVTTbrqqh8cD7wGeS/+/BzcQFfwvgcuBa4AriC58PWwboidob+AA4AlDP/d7j9AmYu+BfwEuLZyLJGVzEPB9yg/MyhlLge8BfwscBcxNcuWaaS7wVODvgTOAOyn/+uaMs4HHJblyklQTOxELpWyg/E02dVxFLEz0IuBRia6XxrcbMVbk00RvSunXP3VsIFYW3DHVBZOkEmYTg51WUv7GmiruIkZzvw7YOdmVUqe2JRbe+SxwG+XfH6liJXAKsRaGJPWMQWLntCWUv5GmuBGfQyzqchD9P2ah1+1GNM5OI+bgl37/dBt3A2/BlQUl9YCjgd9T/sbZTdxHVCAnE70Y6k0ziO2hP0vvjx+4hujpkKTaOQD4KeVvlJ3GEuC/gKcTC+Oov0wDnknvNwbOIRbMkqTiZgMfIVaVK31zbDduBj4OHI4rDzbJFOApxODNWyj/Pmw31gIfAmalvjCS1KrnAn+k/A2xnVhFdO8fjc/zFQ2/w4iegV7be+I24HnpL4kkjW97Ylpf6RtgO3EpMTjMefkaz+bEuI9z6K1tp88kptpKUjYDRCX6IOVveq1+QzoFd2JT+3YmZn7cSPn3cSvxADFboN9XTpRUwAHEcralb3STxQZiRbVn4XN9dW8QeDaxgmUv9Ar8gthjQ5K6Nh34IPUf5De87/qeeS6DxF7AZ6j/WIF1wAeIz64kdWRvYsvS0je0ieIGoqt2QaZrII22OfEobDHl3/8TxRVEz50ktWz4Wf8Kyt/ExosLiYVRXCFNpQwSs0nOpL6PB1YRDWQfh0ma1E7AuZS/cY0X5wCHZDt7qTMHENNL69oQ+AnOFJA0gRcA91L+ZjU6NhLfsg7Od+pSEvtR350vHyB69iTp/2wBfJXyN6jRsYGo+A/Md+pSFvsSDYH1lP8cjY7TgC3znbqkXnEU9dtGdT3wNWIQotTL9gG+Tv16BG4Fjsx32pLqbAB4N/X7hvJtYFHG85ZKeAzwXcp/vkbGOuBvcElsqVE2B/6X8jegkXEJcETOk5Zq4FDgIsp/3kbGGcC8nCctqR4OAK6n/E1nOG4lBiY5TUlNMUAMuK3TMsPX4wqCjWPXT7O8HPhPYGbpRIj9BD5IbMm6unAuvWgmsAuwFbEI0lixJbH50fBaCfOIz/wgMfBzpAd5eArbA0O/W0+ssHjfGHHv0J/3ENsq+xq2bybwVuJR3OaFcwFYCfwFMSBYDWADoBk2Az5FPaYArQM+B7yXqDw0tpnEWIhdRsTOI2LbcqmN6U7glhFx81DcRKyYZwNhfNsQn4fXUo+Frf6LaJisKZ2IpO7sRGwQUrqLcROxrPBBeU+350wDdgOOJSqB04CrqN/gzG7jDmIRp08SW+4eRD16oupkf+r1Wd017+lKyulw4lt26ZvJA8Ab8Dn/VOCxRDfrl4iKvu6bLOWMdUPX4EvA64nxKU3fznYQ+EviM1P69bkbOCzv6UrK4SVEt2vpm8g3ge0zn2tdbQ+cCHwIOA94iPKvR93joaFrdQpwArBdm9e8XywETqf867EaeHHmc5WUyACx+UfpNclvIyq/JplFbA5zCnAp5V+DfokbgM8SI+dHD17sd88B/kjZ67+ReDzlmDGpxqYDX6HszWId8Zx3TuZzrYMpxLPsdxHPt+vQ49LvsY5oXJ1CNLamTfoq9b6ZRAW8hrLX/hvAjLynKqkTC4iu05I3iKvo/3X7NwOOAb5IPcZXND3uBr4APHfotelnBwFXU/Z6/wyYn/tEJbVuN+Aayt0UNhJdtLNzn2ghM4lR+qdSj8FZxtixgtg86mRi/YN+NIPo/Si5t8D1wF65T1TS5J5MfAsqdTO4leiK7TczicFP3yEWSClduRntxUpiX4k/pz+7rZ9B2U287gKelP0sJY3rRMo+d/46/dcdeCixEIrf9Psn7idWwDyU/rKAmGVT6rquImZqSKrYiyg3h/wB6rGqYCrbA28Bfkf5ysrIG4uJAXW70D9eQCzNXOJ6rieWGJdUkddT7hngucCO+U8xu0Hiuf7Z9N+qe8bksX7otT+O/ligaifKDQLeQH99IZBq602UmV++kZjeV4e1yrsxl7hZlR5NbdQnbiCmcvb646wpRO9GiS8HG4G3Zz9DqcHeRZkb5IPASRWcX06PJkZP30/5CseoZywjZrPsTW87ltipscQ1PKWC85MaZQD4CGU+0L8jKs9edTRwFmWnTRm9FRuI6YS9PLtld+Byyly/D+OqgVISA0TXe4kP8leJ5W170dHUZ2c1o3fjt8Qgu16s0GYAn6fMdfss/TG2QipmClEJV/3hXU1vDuoZIAZ1XUL5isPor/g10bXeiw2B11NmuvBXcXdHqSMDwH9T/Yf2FuDgCs4vpQFiTYTfUL6iMPo7fkPMfe+1hsDBxGe76uv13/TetZKKez/Vf1gvofe27j2Ocs86jebG5USPQC/ZnthIqepr9a9VnJzaZ8usnl5DPLur0neBlxLrqfeCg4iBkUcWzqOk1cRSzLcRS7PeRywIc9+oWE0sGvXQiH+3alRZs3h4M505xC57M4jV5rYc+nNkbEOsB7Ez/b8Jz0R+BryD6BnoBbOBrwHHV3zcVwFfqviYmoQNgPrZl3jeOLPCY34M+BtiLm/d7UT0jryEZgwyWgpcSWz2dBPRjTscS8ul9QjbEw2B4XgU8BhgH2C7cmlVZiPwP8A/EA2yuptCjNR/W4XHXAkcQqy/IWkMs4gtdavqmlsHvKGSM+ve5sAH6N+NeZYR3yY/A/wF8BTim3av2xI4gnif/TuxWt1yyl/vHLESeB+9sxPhG6l2FcwrqPaLjdRTTqHaCufZ1ZxWVwaJGQl3Uv4Gnyo2EN/qv0A87tmPZo2WngLsD7wW+CLR6O2ndRqWEq9rL/SwPoe4F1R1bd5fzWlJvWVPYA3VfAhvIW7AdbcvcBHlb+jdxgbisc77ifUJNk95kfrEFsQWtx8kBqr1Q4PgQuIxSN0dQDy6qOKarCYWKZI0wtlU8wG8GtihonPq1CyiIlhL+Zt4p3EjsRjKC+iPrvyqbQm8kBgMexPlX89OYy3R8Kt71/eOxDiTKq7JGRWdk9QTDqGaD95vidHbdfYsYnOW0jfudmMD0VvxdvyGk8OexEDVX1BmM6xu4w9ED0edbUN1W2IfVNE5SbV3Ovk/cJcQ36rqalvgVMrfqNuJ9UQ371uof69KP9kaOJlYr7/XeonOpN7vlXnAxeS/Dt+o6oSkOtuN/CNxzyXmdtfVC4n566Vvzq3ERmIk+6uod4OqKbYiBtydT+/0DNwDPD/HxUhkLjEjJec1WA/sWtUJSXX1T+T9oH2f+j5/3Jx4Tl76htxK3EbM0rB7v752IrbM7pVHSKcB87Ncie5tBnyHvOf/nsrORqqpxeT7gH2P+q7S9mTqf6NeRdykj6VZ0/R63SBwGNG4fIjy76OJ4mbgqDyXoWvTifd/rnO/prpTkernceT7cH2FelZaM4CPUu9pXn8kBvPNy3QNVJ35xODBmyj/vhovNhAr89WxsT4F+DL5zr0XpiNLWbyDPB+q71HPZXIPIFYDK33DHS9+RuwqWMeGk7ozBTgJ+Dnl32fjxe+JRaHqZpC4p+Q45yqXI5Zq5QzSf6CupJ5Lkb6G6FIvfZMdHauILUsPyHfqqpnHERvTrKb8+290rAReke3MOzeXPMuUf6fKk5DqYoDYqS3lh2kj8PgqT6IFM4glb0vfWEfHCuDj9N72x0pnB+CT1HN/ic8Rn506eSLpz/PuSs9AqomFpP8w1a01vTPwK8rfTEfGQ8RNf2HG81Zv2ZqY4bGC8u/PkfEbYppwneTotaz74mRSck8h/Qfp8ErPYGLHkL6Ho5tYTtzkt8550upp2xKD8eo0c+BeYsOeujiS9Of45CpPQKqDV5H+RlGHwWtTgH+lPouyrAU+QSwYI7Via+DT1GeVwQ3AP1OPgb1TSd+wf3mlZyDVwN+Q9kN0erXpj2ku1W1q1Ep8C9gj6xmrn+0FfJfy7+PhOJN6rOj5bdKe19urTV/D6tCibKrUH+SbE5fXroXEErl16K68lOiqPAm4vmwq6mHXAicQg98uLpwLxGO1i4mxNSWlvtfUoVHTSDYAykn9pr8zcXntOJDYbOjAgjlA3JheRMyE+HnhXNQ/fkmsLPhS4NbCuexHNAIeWzCHJYnLq+O05UawAVDOhsTlTU9cXqueRSygU3JU/XrgU8TN8RtEt6KU0ibga8Ai4EPEe66UHYhdKI8tdPzUKxaWvJaNZgOgnBWJy9s2cXmteB3xXHLzAsce9lvgScSWvMsL5qFmWAm8GziYmOJaymxi2u+bCxw79doZDyUuT6q9vybtQJofVpj7IPGNu+SAqAeBN2EjVuVMISrgZZT9LHyCaj8H5yTO/60V5i7VwotJ+yFaRXwryG0q0RVa8ob3bVzIR/WxI+VnC3yV+GzmNof0Syj/WQV5S7XyeNLfBJ6XOecq9gifKB4AXpb5HKVOvYLomSr1+fg2+XcUfEGGvA/KnLPGMVA6gQabTyyokdJlwCHEhyq1WcQN5pkZym7FxcDJwA2Fjl93M4FHAdsBC4Ath2LBUAyPtJ5HfO4HgS2GfvcgDy/c9MDQ75YR78/7iEWmhn9eQsy2WJXzZHrYLsT2uUcWOv7PgOPI81x9gLjHPC5xufOI96DUKDeTvjX9wgx5bg6cnyHXVmI1sW2yz/qj0Xg48HpiI6NvE2se3EX1r8udxNTPbwEfG8rpsKEcm24QeCewhjKfmZ+TZ2DuizLkemOGPKWe8FXSf6DuBXZPmON84BcZ8mwlriT9t41esRtxw/0o8GPgdsq8Bp3EbcCPhnJ/EbBr4mvTK/YhZqmUeA0uJe3y17sSO/elzvNLCXOUespryVdxzkuQ3/bA7zPlOFl8nvpth5rLDOAo4O+J3dbupMw1zxlLge8Bf0d0j+d+Vl0XMym3HfbvSTNlbx5xT8mR46sS5Cf1pJ3Jt2nOtcSiJZ06hPgmV/VNayUxmKrf7Uaso3Aa5aeRlYiVxHSydxGDwPp9PNJriHETVV/nW4k1Czq1F7A4U24biBkUUmNdQL4P/wPAG4BpbeQzi7gpl7hZ3UDZJU5zmgkcD3yF+DZcotKtcywhuoOPo397fg4knnlXfW1XEmMSZraR6zTgjcQ9JFdeLtetxnsj+W8ANwB/xcTPYhcRFf8dFeQzVpxJ/w0gm0Us13oqZaeH9VqsJN4PJ1N2lckcFlBux8xbiQG1E40R2plYYOv6CvL5i7aunJLr9263XjAfuIXqdsS6nvgWspQYrbw9cUN4VEXHH20j8I/AB4ibQq+bSkyVfAWxe1u/fputympiXMRXiIGFqffQKGEQ+AfgvZS7B/+B+GJwJ/EZ3IZ4LNXNY8N2LCemTN5f0fGk2vo45b91lYjVxCjxfrCIuKHnmNppRNwBfBI4oLWXpPZOIno7Sl/XEvGRBNdP6gs7Um7OcKm4h5g33sumAy+h3DTJJsfFxHLapXbBTOUJNG9MyFriUYOkIZ+m/AezqriKco8cUtiGGC9xK+WvZdNjKXAKsUVur9oVuJry17Kq+Hiayyb1j/mUWdGt6vgJadYoKGE/YpnX1JuhGN3HKuCLwL7jvXg1Nx/4KeWvY+64k979/EtZvYbyH9Cc8UXam5JYF/sRI/nXU/4aGhPHRmIGQS9uMDOdGOxY+hrmjFcmu1pSnxmg/LaiueLf6b31/PcnFurJtViTkS+GGwKH/MmrWm8D9O+g4LNw5pk0ofn030jyU5Jeofz2ISqP0tfN6D42EksQ701veS/lr13KuJXYnVLSJA6jf54zvzvxtclpK2Ka2TrKXzcjbWwgHuNsR+/4O8pftxSxCnhS4msj9bXj6O1nzhuBtya/KnkML3/san39Hw8RPVJVLbzVrTcQjZfS163T2AA8P/lVkRrgDZT/AHcS6+mdwT4vpMymR0bZuJXeqZheRe9+GXhDhushNcYr6K0u6dVEpVp3OwDfpvz1MsrG2fTGmhTH01urBq7Htf6lJI6jNz789wNPyXQNUpkKvIVYi7z09TLqESuIQXd1X1XwCPLuzpcqVtM7vSuN5pSM3nEI8HXg0aUTGcfvgD8Hri2dyAQOAr5A/6wlP9pqYmOpW4jtde8bFSuJZ+DDf3fV0M8zeXjTojnEmIgFo2J7YvnWnenfDY5+B7wa+E3pRCawCPgmMUW1jm4A/gy4rHQiUr+ZC/wP5Vv4o+NUotKoq6nE7mtrKX+tuo0NxE5u3yN2UHwx0TjcNtnVmtx2wOOJfRA+SOzWdwO9PVhtONYSo++nJLta6c0gZquUvlaj49v035beUu08D7iJ8h/4K4Gn5T3Vru1ObBxT+lp1GrcCpwNvJ6aH1rmhNZvI8e3A/9LbeyVcRGyPW2dPBxZT/lrdRNyTJFVkJvHcssTUtbuIKX51X9b3dfTes/47iOVgX0pvb3AzbEfgZOCrxGOJ0te3nVhGPBKos+nAO4ndNau+Pg8C/0y9G6VSX5tHLLZTxc31RuBN1P8DvznwLcpXIK3EBuB84K/p3Y1s2rEf0UNwAb3zyOA04vFbnc0B3kY1U1rvIh6puamPVBNTgKOJ5/Epv/U+MFTmsdT/Gz/EIKmrKF9pTBTrgQuJ2QgL81yGnrAV0TtwJrCG8q/LRHEt0XipuynEY5jPEj0Yqc5/NfE6nUz9vwBIjTaLaAz8C/Az4G5a/6AvAX5ItPAPp/5To0Z6MTHKvXRlMV5cRaw4uE2uC9DD5hOPbC6j/Os0Xqykdxa4gnhM+FTiPvBz2ntMcD8xDuKDwDPpnZUT1QanATbHPGAPYkOOucAWxHK9y4lneXcD1/PwNLFeMh34GPCXpRMZw33EzI0vEdPMNLnHEQtgvYx6jir/NPAOYsZAr1kA7En0vswhHpdB3AdWEI2E64n7gSTV2nyil6P0t8PRcS3RxT8736n3vc2ILucrKP96jo4LiUpUklTAo6nHNKjh2EjMiT8ae9dSGiCmvJ1NXOPSr/NwXEP9pwpKUt85FLiT8pXAcMV/JrHSoPLajxiUWpfNce6h/stfS1LfeD712BthA1HxPy7v6WoM+1CfhsBqYlVESVJGb6Ye3cA/oBnz9utuf+DHlH8/bCTWyJAkZfAuyt/orwaOyX2iatvRwOWUf3+ckvtEJalpPkDZG/tdxLKwdd4kpummEGsJlFgWd2S8P/eJSlITDAAfp9zNfCPxrHnr3CeqZOYTK+GVfFT0H8Bg7hOVpH41QNzIS93EFwNH5j5JZfNUYj2GUu+fz+J0UEnqyPspc+NeTzxy2Cz/KSqzGcRz+VKzBXwcIEltejNlbtg3AE+u4PxUrcOBP1LmPeXsAElq0eHAOqq/UZ9K/bd9VefmUuaR0jpihz5J0gS2Am6l2hv0g8BJVZycauGFpN0qt5W4hdiIS5I0jm9T7Y35CmJ3NDXLImJ75irfa9+q5MwkqQc9k2pvyF/D3fqabCaxTXOV77nnVHJmktRDZgB/oJqb8Hrgr6o5LfWAt1LdLIHrcHaJJD3C26jmBrwMeHZF56TecQywnGreg2+u6JykCblIhepgOjH9bsfMx7mNuNFfnvk4pc0EdgF2Iq7pliNi3tDfmQNMG/p5HfDQ0M/3A/cC9w39eRsxgO1mYte7fvZY4Cxgh8zHuRXYHVib+TiSVHuvJv+3rsuAhVWdUEWmAYcArwU+CfwEuIN81/B24BzgE0PHPJiHGxH9Ygfgt+R/P76yqhOSpDq7lLw32/OBzSs7m3zmAMcCHwMuAlZRTZf1RLESuBD4KPDcoRx73RbABeS9br+u7GwkqaYWkfdG+yNgVmVnk97ewN8RjZi1lK/wJ4u1wM+Hcn5MhutRldnAj8l7rZx+KqnR3ke+G+x36c0R1/sSa8hfQ/kKvdu4euhc9k16haqxGfEeynVt3lvZmUhSDf2OPDfX04GpFZ5Ht+YDbwQuoXylnSsuGTrH+YmuWRWmAv9LnutxaYXnIUm1sgDYQPob62X0Trf/XsQAvhWUr6CritXEvgsHJLh+VZgB/Ir012E9D8/KkKRGOZ70N9UHyD+Nq1sDxHTEn1G+Mi4d5xKDB+tuR2LPiNTnf2yVJyFJdfEvpL+h/l2lZ9C+o4kR4KUr3rrF5cALqPfaJO8h/Xm/t8oTkKS6+AZpb6Z3U9+1/Y8GfkP5irbucRnwtA6vcW6zgXtIe77/r9IzkKSaSF0h/ne16bdkEXAa5SvWXotzgP07uN65fZG053lJtelLUj3cTdqb6QnVpj+hucSKeVVtMtOPsQ74OPVaXOhE0p7jndWmL0n1kHolu52rTX9cxxJr55euQPslbgdObusVyGdX0p7bymrTl6TyppL2RrqRmK5V0lbkmzNuxNoOW7X8auQxg/Tn1UvrVUhS1+aQ9iZa+pvUc4AllK8k+z3uoPx2zql7rur0iEOSsptCfGtPeSMtMQNgM+A/SH8uxvixEfgMZZZ5Tt1w3QgMVnoGklQDqVe/273a9NmF/l66t+7xa6of97FnotyH46Fq05ceZstTJS1LXN4TE5c3kWcSc9YPrvCYeqRDiNfgGRUeM/V77MHE5UktswGgkm5KXN5xicsbz+uAs4AtKzqexrcV8H3gzRUdL/V77I+Jy5OknvAV0nenbpsx3ynApxLnbKSLTwy9RrlsR/rHVl/KmK80IaefqKTrEpc3G/gH4K8SlwswE/gmvbV5y73A9UPxR2KmxANDf64a+hliR7qZxA6K84jruCuwx1AsqDTrzr2FyPvPifNL7T2k32Uy9WdAknrC00j/LXAN8LjEec6h/jv33Qh8GXg18HjSVtoLgCcAryF6bf5Yg/OdKM4l/dS6g4C1GXI9KnGektQTZhEVduqb6s2kexQwH/hFhhy7jaXA54CXEFvVVm1n4KXA54nlbEtfj9HxC6I3I4VtgVsy5LiK6HmRpEa6gDwVwKXAwi5z24XYprZ0ZTYcDxDPjJ9B3mfd7ZpKzIr4MjGqvfR1Go7LidewGwuJ91KO/M7rMjdJ6mlvJ18FcDtwaId5HQXclTG3VmMj8EPgeZRf6rgVM4DnAz+i/LXbRPROPKXDczmUeA/lyu2tHeYlSX1hIXl3zNtAbMfb6iJBewGnDv27khXXBuBMYq57r9qfuJbrKHstNxLvgT1azHsn4LPkfV+uJ2YVSMUMlE5AIvZ+PzrzMTYAFwFnA78ivhneA2wNbE982zuGGOxWcn2MFcAXgI8RYxn6wa7AXwOvIv0o+nZsIMYGnMnD74E7gW2I5/yHEO+Bw8g/Q+rHxGMTSWq04yj7DbEucSb12dI4h4VEj4D7JsBzu7yWktQXBoArKH9TLhW/BQ7v+ir2jqdQr8GVVcfl2PsqSf/nxZS/MVcd9wJvpF4j+qsyFXgTcB/lX4eq488SXD9J6huDwMWUvzlXFecBO6S4cD1uR+DnlH89qoqL8Nu/JP2JA8k78roOsQE4hWZ+6x/PFOC99P9rvx54bJpLJkn95xOUv1HnituAI9Jdqr5zFHnn3ZeOj6W7VJLUfzYDfkP5m3Xq+Amxda0mtjWxln/p1yt1XEq8tyVJE9idei0p2218EZiW9Ar1t6nAf1H+dUsVy4kFpiRJLXgueXZfqzr+KfWFaZB/pvzr122sBZ6d+sJIUr97Cb27aMxGYp8DdedN9PZ74BXJr4gkNcSb6b0KYD3wuhwXo6FeR+/NENhIvHclSV14Cb3zOGA18II8l6HRjgdWUv71bSXWEfseeBWaeQAAIABJREFUSJISeCZwP+Vv7hPFXTRrSd+qHQHcTfnXeaK4D3hGrgsgSU21M3Ah5W/yY8XPcGW/KmxL7B5Z+vUeKy4Bdst36pLUbNOA9wFrKH/D30R0S/8druxXpanAPwKrKP/6byLei+/HqZ6SVIk9gLMpe+M/E7/xlfRo4CzKvgfOBfbJfaKSpD/1bKrfTObHxLK1qoenU/3qgRfg/H5JqoVDga8BD5Hnhv8g8GXgcRWdj9p3KPA/5HsPrAS+jgM9JamWZgMvBk4DltLdDf82olFxEjCjypNQV2YTU0e/SffvgbuA04GTgblVnoSUm/tSq98tAh4P7EnsMfAoYHOikpgLLANWDP35R+APwGLgV8AN1adbidlDMWfovx8irsGKYhnltTcPvwf2AHYB5hHXYCaxdsMKYprprcB1wPXAr4GriIaA1HdsAEj9aybwJKLLem+iAtyL8XszVgPXEhXg1cD5wMVDv5ckSTU2j1g696ekmSa3itjK+DXAFhWehyRJasFBxAC1nHPjVw0d48CKzkmSJI3jScAPyFfpjxffJ0bdS5KkCi0APkvZnRI3AqcC22Q+V0mSBLyM2HSmVMU/Ou4lpt1JkqQMZgCfpHyFP16cSkytkyRJiewI/J7ylfxk8TtgYaZrIElSoywCbqZ85d5q3ESsNyBJkjq0H3A35Sv1duNuYN8M10OSpL63E3AL5SvzTuN2YullSZLUoi2JZXlLV+LdxmJiyqIkSZrEAPA9ylfeqeJs3HdEkqRJvYvylXbqeHvSKyRJUp85AFhL+Qo7dazFQYGSJI1pADiP8pV1rrgAHwVIkvQnXkX5Sjp3nJzsakmS1Aem0VuL/XQatwDTE10zSV0YLJ2AJABeAexcOokK7AS8tHQSkiTVwSBwPdV+E18L3DoUVQ86vA6/fEiSxNHkr3TXA2cCryY2FhptR+A1wFlDfzd3Pk/t+GpJktQnTiVvZXsOsH8b+SwCTsuc05fayEeSpL4zG1hOnkp2NfDKLnJ7FbAmU27LgVld5CZJUk97Jnkq2IeAwxPk95ShsnLk+IwE+UnqkANxpLJyPAvfRDzrvyBBWecTc/c3JShrtKMylClJUk/4Nem/WX84Q54fy5DnrzLkKUlS7Q0Cq0hbqd4HzM+Q6zzgnsS5rgKmZMhVUgt8BCCV8yhgRuIyPwzcn7hMgAeIXoCUZtCMxY+kWrIBIJWzKEOZ38xQZs6y98xQpqQW2ACQylmYuLwrgRsTlznSDcBVicsca1EiSRWwASCVs3ni8n6fuLyxXJG4vDmJy5PUIhsAUjmpK787EpdXxTFSN4IktcgGgFTOZonLW5a4vLE8kLi81IMgJbXIBoBUzsrE5W2TuLyxbJe4vIcSlyepRTYApHKWJy5vh8TljSX1wMXU10BSi2wASOWk7rI/lLyf6cGhY6RUxWMLSWOwASCV88fE5W0PPD5xmSMdSvpHADmnLUqagA0AqZzFGcp8RYYyc5Z9XYYyJUmqvftJu77+WvKsrrcIWJc41/sy5ClJUk/4Iel32fshaXv3pgDnZMjzBwlzlNQmHwFIZZ2XocxnAh9MWN6HgKMTljfs3AxlSpLUEw4h/Tfr4fh7YKCL3AaAf8iY30Fd5CZJUk8bBG4lXyX7/+hsud3NgW9kzOsW7IGUJDXcKeSraDcBdwFvorWlhzcD3gzcnTmnD7R1hSQl1033oKQ09ib9NrtjWUYMvPshsQbB0qHfbwfsBjxrKKrYoGdv4JoKjiNJUq2dS95v3HWKcxJdM0mSet7TKF8xVxVHprlkkiT1h19QvnLOHRcku1qSJPWJQ4ANlK+kc8UG0m8mJElSX/g85SvqXPGfCa+TJEl9ZUtidH7pyjp13AEsSHidJEnqO0cB6ylfaaeKDeRZSliSpL7zL5SvuFPFPya+NpIk9a0pwP9SvvLuNk7DJX8lSWrLdODHlK/EO42f0dryw5IkaZQtgIsoX5m3GxdSzZLCkiT1rc2Ab1G+Um81zgBmZbkSkiQ1zFRiHn3pyn2y+MxQrpIkKaHnAfdTvqIfHcuAF2U8b0mSGm8P6rV74E+AR2c9Y0mSBMAA8BJgCeUq/tvxW78kSUXMBt4C3EZ1Ff+dwLtwoJ8kScXNAF5DbLe7kfSV/kbgfODVOLdfkqRa2g34W+LZ/Eo6r/RXAucA7wZ2rfQMJGU3UDoBSVltBhwC7A3sORRbAXOGAuAhYDlwL3AdcC1wDXAJsKbifCVJkiRJkiRJkiRJkiRJkiRJkiRJkiRJkiRJkiRJkiRJkiRJkiRJkiRJkiRJkiRJkiRJkiRJkiRJkiRJkiRJkiRJkiRJkiRJkiRJkiRJkiRJkiRJkiRJkiRJkiRJkiRJkiRJkiRJkiRJkiRJkpTYQOkEWrAVsBewCNhzKLYHZgNzgC2AucDUUglKQ1YAtwO/Ab4LfAdYWzSjR5oGnAAcDxwC7DD0+9uAS4AziLzXFclubNOBE4m8DyRynl00IwnWA8uBB4jP/QpgCXAdcO1QLAbuLZVgr9oBeBnwJeBmYJNh9GjcAJxEPTwP+AOT53w9UeHWwfOBGyn/OhpGp3ET8EWiTluIxrQIeD/Rair9ghlG6vgIMIUyBoF/ayHH0fFvQ/+2hCnAR1vI0TB6LRYD7yN6tRttS+BNwK8o/6IYRu74N8r4cBs51iVnK3+jCfFL4C+JurAxdgQ+STwzKf0CGEaVUXXX+vMS5HxCxTmflCBnw+ilWAF8gofH5FSmykGAjwLeBrwOmFHhcaW6+CPwGGBNBceaBlwN7N5lOTcSOVcxmHE6kfOjKziWVDdrgW8Sjwiuq+KAVTzjmwt8jBhc9Gas/NVcuwLHVXSsE+i+8gfYjepyPhErfzXXdGKw4JXEo7s5uQ+YuwFwLHEyb8NpehLEFLxeO06VjRap6aYB7yAGxZ+c80C5GgA7Az8m5hXvnOkYUi86uKLjHJKwrMcnLGsiB1Z0HKkXLAS+AvyQGDuXXI4xAMcAX6ZhIxulFj1EPBbLbTnpuhB7MWepn9wLvBw4O2WhKXsApgLvBb6Hlb80no0VHWdTwrKqylnS2LYEziRm0E1LVWiqBsA2wPnAPyUsU+pHSyo6zh0Jy+rFnKV+M0AMpP8ZsUR+11JU1rsQlf8TE5Ql9btf9+BxfpmwrIlcWtFxpF72ZOIz2fWMmW4bAPsBF+OyhlKrzujB45yZsKyJfK+i40i97tHAz4F9uymkm0GATyQGJMzvJgGpQa4H9qGa3famEFNwF3VZznVEzuu7zmhyLgQkted+4Dl02EvXaQ/Aflj5S+3YRMztrWqr3Q3Au+luMOAm4G+opvKHWAntbyo6ltQP5gPfp8OegE52KNsJ+CmwbScHlBrqQ8B/VHzMa4GZwGEd/vtTqD7nxcBs4jmnpMnNJBbR+jbwQM4DbY1b9hpGO7GRqEhLzY4ZHDr+xglyHCvnD1I25w9NkqNhGI+Ma0g0O2As04gBf6VP0jB6Ja6jumV0J3McrTXeFxNLeNfB8cQ1LP06GkavxAW0sex+O4MAPwK8vY2/LzXNcuA24DLgu8RI/Kqe+bdiKtEQOJ5YKnh4edHbiGmDZwxFVc/8WzGNyPd44CAi5ypWJZR61YeI8T+TarUBcAxxY6hy++DRVhCtm98Q32QWA3cBDxI33jrdtCRJ/Wsq0RCdRyyEt9dQHESMuZldLjU2EnX2D1IUthNwD2W6M5YAHyUGBCVb/lCSpEymEY2AjwNLKVN33gXskOJkflQg+fOIFoxbCEuSetVUYkzN+VRfj3a9cdALK074XDqfsiRJUl09hVi9r8o69cROk51LDA6qIsklwMmUHWMgSVJuxwK3Uk3degsdbrH90YoSPA3YopMEJUnqQfOAb1FNHXtKu8k9mpi+lDOp1cAb2k1MkqQ+8VfAGvLWtWuIXXtb9rnMCS0HntFOQpIk9aGnEtPZc9a5/95qMjsS385zJXIXcGDr10aSpL52MHA3+erdVcDCVhL5RMYklhELJUiSpIcdTNSRuerfj0yWwJbEins5Dr6a6OqQJEl/6unkGxPwELBgooO/KdOBN+GAP0mSJvMW8tXDfzHRgX+V6aCnd3ExJElqklxTBC8a74B7ZTrgHTjPX5KkVs0nzz4CG4E9hg8yOOKAJ2c6kbcTUxwkSdLk7gfemaHcAeClY/2PxaRvbZyb4QQkSep3A+TZROiq0QdamOEgm3BjH0mSOnUkeR4DbD/yIC/LcJDzEl4ESZKa6ALS188vhofHAByVIemPZihTkqQmmXQBnw48Yk2em0jbulgKTM2QtCRJTTKNWEI/ZR19I0QPwJa0uVNQC74GrE9cpiRJTbMO+HriMncFFgwS8/9T+06GMiVJaqIcdeqeg8CixIWuBH6duExJkprqYqJuTWmvQWDPxIVeAKxNXKYkSU21lgmW8e3QXjkeAVyWuDxJkpoudd261yCwXeJCr01cniRJTXdd4vK2HQTmJC40dZKSJDVd6i/XcweBuYkLXZK4PEmSmm5p4vKyNACWJy5PkqSmW5a4vLkDwBpgesJCN8NZAJIkpbQZsDpheWsGiGUBUxpIXJ4kSUpcXw9O/lckSVK/sQEgSVID2QCQJKmBbABIktRANgAkSWogGwCSJDWQDQBJkhrIBoAkSQ1kA0CSpAayASBJUgPZAJAkqYFsAEiS1EA2ACRJaqCppRNQMbsBLwSeDewObAPcB9wC/Bj4BnBFseweaQ7wAiLXg4F5Q79fClxK5PpDYGOR7P7ULsAJwBHAjsAsYAlwNXAmcB6wvlRyYzgKOInIdyEwG7iTyPcs4JvAPcWy+1ObAU8FjgS2B7al7JeZ1cR78QbgB8DlBXMZy/7AnwHPAHYCtgTuAm4Evk+8vjcWy05FbUocqrd5wL8Da5n4ddwIfB3YoUyaQGwt/TriZjXZ+24xUYGVtBD4AlG5T5TrdcDzC+U40uOA85n82j4I/C3lvzDMBN5NNFRT37dSxuVEY7W0HYnKfSMT57sW+AywRZk01Ybk9bUNgObYg6go23k9lwBPLJDrdOLm1U6uG4mKqoTDiG+B7eT7OWBaiWSBFwOrWshxZJwDzC+RLNFjdWULOdYpPk+8j0t4Iu2/H68h7hGqr+T1dfICVUvbAbfS2Wv6ILBPhbkOAKd1mOsm4F0V5gpwKO1XpsNxGnG+VToB2NBhvhcRXfBV2p3WeoHqGN8HpqS/JBN6DPBAh/neTvRkqZ5Svz/TF6jaGQB+Rnev6/XAjIryfXOXua4jKuUqbE30knST7zsryhVgV2B5l/l+rMJ8ZwNXdZlv6fi35FdlfDOBP3SZ77kV5qv2pH5vpi9QtXMiaV7bd1SQ63w6//YyMi6tIFeATyXI9SGih6YKX0+Q7zriW2YV/jFBvqVjPdX1oL0rUc4nVJSv2pP6vZm+QNXORaR5bW8nf3f12xLlugl4cuZcFwBrEuX6gcy5QgzonGxAWKvx6QrynQ0sS5Rv6fh64mszlkG6740ajgsqyFftS/2+TF+gamVbOn/eO1Y8PnO+P0+Y6+cy5/qShLlekzlXgDcmzPc28jcGT0qYb+lYTv5HaE9KmO8GquuVUuuSvi9dCKj/PY60c6SfmrCs0RYQN7FUjiHv/PCnJyxrETE/O6eDEpa1A7F2RE5HZC6/SnOAQzIfI+XrOwgckLA81ZANgP6Xeh7/gYnLG+k5pJ1rvj15eyxS3nAh/5oL2ycuL/do8R0zl1+13OfTa6+vCrMB0P82JC4vdaU30vEZyjwuQ5kQq/ulHgiXe02A2YnLm5u4vNEWZC6/armvV6+9virMBkD/W5q4vF3JsxjMDOBZGcrN0aiA6B5NPb879WvV66peHyG3JaUTkEayAdD/Ficub4A8jwGeSjwnTW1vYiGZ1FL3hKzABkC/u650AtJINgD6302k38glRwMg57zjHL0ABycu73ekf1yj+rgeuLZ0EtJINgCa4XeJy0vdABgkRuznkqMBkLoH4LLE5ale/rt0AtJoNgCaIXXlkrryewLpRzCP9CRgq4TlzSKm7aVkA6B/3UI1CydJbbEB0Ay/SVze7sS2wqnkGqg3bArw3ITlHUD6rXFtAPSndcDLiM2ipFqxAdAMqSuXAeCxCcvL3QBIfYzUPSAr8flwP1pNrBZ5fulEpLHYAGiGG4H7EpeZahzAHqTvTh/LM4mu+xRSNwB+R2wYo/5xDbGS4emlE5HGYwOgGTZR34GAJyYqZzKzSLeMsQMANZYNxF4WrwX2B35dNh1pYqmfY6q+fkPadfxTVYJVdP+PPNZZXZYxAwcA9qq/Bq7IVPZS4FbgwUzlS8nZAGiO1JXMnsRSocu7KGMbYgZAVY4DXk9sidupx5J+yV4bANW4DJ/HS//HRwDNkXomwCDdDwQ8jvTL6U4kRYMjxwDA1Ks1StKkbAA0x/Wk757sdhxAld3/w7rdHCj1IkiX4wBASQXYAGiOHAMBu/k2nHJQXju6bXQ4AFBSX7AB0CypHwN082045bS8djyGGL/QiRnE5kIp2QCQVIQNgGZJXdksovM9yEt0/w/r9DHA/jgAUFKfsAHQLKl7AKYQy+J28u9SLs3brk4bH6m7/1fjAEBJhdgAaJZr6W7a3lg6eQxwGGk352nXk4BtO/h3OVYAXJe4TElqiQ2AZtlIjDpPqZNKsWT3P8T7/jkd/DsHAErqGzYAmid1pdNJD8AxiXPoRLvjADYD9kmcQ+pHMpLUMhsAzZO60tmH9kbz70dsAFTaM2gvbwcASuorNgCaJ3WlM4Wo1FtVuvt/2CzgaW38/RwDAK9OXKYktcwGQPMsBlYkLrOdyrEuDQBoL5fUDYDf4wBASQXZAGieDUTlk1Kr4wB2IH1F2o1jaX0vAgcASuorNgCaqdRAwOOBgcTH7karmwNNJ/0AQBsAkoqyAdBMqQcC7ksskzuZOnX/D2slp/2JRkBKNgAkFWUDoJlSVz7TiEbARDYHjkx83BRamQ6Yuvt/DXBV4jIlqS02AJrpamBV4jInqySfQ/pv0SksAvaa5O84AFBS35laOgEVsR64Anh8wjInGwdQx+7/YccBH57g/zsAsD98FHggYXkrgduBXwBnA/clLFvKzgZAc11G2gbARJXkNOBZCY+V2vGM3wBwAGD/ODhTuW8A1gKfBf4VuDvTcaSkfATQXKkHAu7H+F38RwLzEh8vpScC243z//YllgFOyQZA/5kO/BUxtuMphXORWmIDoLlSV0ITfVOuc/c/TLw5UOru/7U4ALCfbQ38iNjxUqo1GwDNdRUxGj2lsSrLAdrfeKeE8RopnWx2NJEriEaA+tcM4FvAwtKJSBOxAdBca4nKKKWxKssDgZ0SH+dnwJ2Jy3w6MHuM36d+bnxp4vJUT9sQ4wGk2rIB0GypxwGM1QOQo/v/O8D3E5c5Ezh61O9aWd+gXT7/b46XA48qnYQ0HhsAzZa6ATDWlrk5GgBnAt/LUO7oRxWtrnDYDhsAzTEFOKF0EtJ4bAA0W+rKaAbwmBH//SiiUZDSb4GbgB8T87BTOoZHbg7kAEB164jSCUjjsQHQbL8n/YC0kZVmjm8/w9/8VwE/SVz2NsChI/47dQPgCtIPvFS97Vg6AWk8NgCaLcc30pEDAXN0/4/s+j8jQ/kjc3YFQHVrrIGlUi3YAFCugYALSD8X+mbg8hH/fSawIfExThz6cxqxuFFKNgCa547SCUjjsQGg1JXSAcQS08eQfqnp7wGbRvz3XcCvEh9jd2KDoH1wAKC6t7h0AtJ4bAAodQ/ALGJ3vdzd/xP9rlvHk2cA4JWJy1T95XhMJSVhA0CXk35r2icRC+uk9ABwwRi//07i40BMB0zdALgSBwA2zQ3EolVSLdkA0GrgmsRlvh2Ym7jMsxm7oXI9cG3iYx1K+gZM6p4W1d/fkr5xLSVjA0CQ/tn0XonLA/juBP8v9WOAQWIsQEouAdwsXwZOL52ENBEbAIL6fztdQ+ywNp5eeM5a92usdP4XeH3pJKTJ2AAQ1L9yOhdYPsH//wWwtKJcOrGO9BsvqX5WAO8GXog7PqoH2AAQwO+A9aWTmMBkXfwbSb85UEpXEWMt1J+uBU4B9gA+xCOnqkq1lXqetnrTSuImtk/pRMawCTirhb/3PeBVmXPplPP/6+GvSdsTcyewBLgnYZlSZWwAaNhl1LMB8Gvg9hb+3jlEF2wdl161AVAPlwHnl05CqgsfAWhYXccBtDrCP8fmQKnYAJBUOzYANKyulVQ7U/xyrArYrfU4AFBSDdkA0LDfEYPp6uQPwNVt/P2zSL85ULeuInonJKlWbABo2EPAdaWTGGWixX/GcjfwyxyJdKGuPSuSGs4GgEaqW2XVSZd+3R4D1O2aShJgA0CPVKeBgHcRC/y0K8fmQN2wASCplmwAaKQ6VVadPs//A/XZg3098PvSSUjSWGwAaKTfUp+BgN105dflMcDVOABQUk3ZANBIy4g9zEvrdk5/XRoAdepRkaRHsAGg0epQaf2IWJ64U7+iHpsD1eFaStKYbABotDoMBOz2G/xG4OwUiXTJBoCk2rIBoNFKV1obSFN5l34MsAEHAEqqMRsAGu0yym5nejGxoE+3fkJsDlTK1XT3GEOSsrIBoNEeBG4sePxU39xXETsEllK6J0WSJmQDQGMpOQ7gjIRllXwMYANAUq3ZANBYSlVeVwHXJyzvTGIxnhJsAEiqNRsAGkupHoDU39jvpbPlhLvlAEBJtWcDQGMpNRAwR5d9ykcKrbqGsgMQJWlSNgA0lvuAmys+5h3AJRnKbXdL4RTs/pdUezYANJ6qHwOcQZ5ehz8Q38irZANAUu3ZANB4qq7Eco7Yr3o2QB1WU5SkCdkA0HiqrMQeAs7LWH6VDYCNwOUVHk+SOmIDQOO5tMJjfR9YnbH8XwNLMpY/0mKiQSNJtWYDQOO5B7i1omPl/oa+ETgr8zGG+fxfUk+wAaCJVFGZrQN+UMFxqpoOaANAUk+wAaCJVDEO4Hzg/gqOcw6wvILj2ACQ1BNsAGgiVVRmVQ3QW0PsEJiTAwAl9QwbAJpIFQ2AMys4xrDcjY1rqaaXQZK6ZgNAE7mTWKEvl98CN2Usf7SzyLs5kN3/aaVeGKrE8tZSbdkA0GRyTgesep3+e4GLM5Zf9wZA6umJyxKXN9q9icu7O3F5ddNrr68KswGgyZyXseyqV+jLfcyfZyw7hdS9ObcnLi9n+ZvI25tVB6nXusj9+qoGNiUO9ZddiKl6qd8nv63yJEZYSAwITH0+VwEDFZ5HJ/6CdOd7E/nP94SE+f4qc651cCjprtd6YOtq01cLktfXyQtU3/kG6d8nJ1d6Bo906gR5dRqvrfQMOrMQ2ECa8/1UBfnOBh5MlO87K8i3tEGilyPF9Tq/4tzVmuT1dfIC1Xd2IZ4HpnqP/JKyj58WEmsPpDqfS4AplZ5B5/6H7s93LbB7Rfn+fYJ87wTmVpRvae8gzXv62KoTV0tsAKiIV5Lm/XEvsGfFuY/lJcS8/W7P5wFgn4pz78aj6L4x95EK850FXNFlvn9eYb6lzQCuo7vrdU7lWatVNgBUzHvo7r2xDDi88qzH9y66O5+HgKdWnnX3nk084+3knC8Aplec727Et/hO8v1AxbnWwSKiYdrJ9boJ2KbyjNUqGwAq6pXAKtp/X9wI7F8g38m8BFhB++dzM3BggXxT+TPaP+8fAPNKJAvsSExJbTXX9UQDr6meQPvjAa4EHl0iWbXMBoCK2w34Nq0NKFtGfAubVSTT1uwCfJPWvhUvBz4EzCmSaVr7A+cy+TnfRzxbLj3OYQbwdmKnyvFy3QicDexXKMc6WUiM+Zjsc7oG+DjNGSfRy5LW1wOkr7TrPhVK6ewKvBh4CrA3sBVRiS4hFsX5KVGx9sryuDvz8PnsC2xJ3DyXEtMWh8/nwVIJZnI4cBJwBLADURHcAVxDLNV8OtEIqIvpRK5HEvnOIl6jxUS+VW1j3Sv2AV4IPINo7C4gFkW6Hvgh8Z6+uVh2akfS+toGgCRJvSFpfe1KgJIkNZANAEmSGsgGgCRJDWQDQJKkBrIBIElSA9kAkCSpgWwASJLUQDYAJElqIBsAkiQ1kA0ASZIayAaAJEkNZANAkqQGsgEgSVIDDQJrE5c5PXF5kiQ13WaJy1szCDyUuNA5icuTJKnp5iYub/kgsDxxoamTlCSp6TZPXN7yQWBZ4kK3T1yeJElNt13i8pbneASwZ+LyJElqur0Sl7d8EFiauNBFicuTJKnpUjcAlg4C1yUu9KDE5UmS1HQHJy7v2kHg2sSFHkb66QqSJDXVDOBJicvM0gCYBTwhcZmSJDXVE4GZicu8bhBYnLhQgBMzlClJUhOdlKHM//vy/0dgU8K4E5iWIWFJkppkOnA3aevoG+DhvQDOTZzwNsBzEpcpSVLTPBfYKnGZj6jzX0ra1sUm4OLECUuS1DQXkr5+/vORB9g+wwE2AUckvQySJDXH00hfL29kjFUFr85woPOBgVRXQpKkhhgALiJ9vXzF8AGGxwAAfCvDCRxOPF6QJEmteyXp5/7DOHX9nuR5DLAUmJ/hJCRJ6kdbAneRp/v/0eMd9BcZDrgJOBMfBUiSNJkB4DvkqYsvnOjAb8x00E3Amzu/HpIkNcI7yFcPv36iAy8gtgfOceA1wDM6viSSJPW3ZwNryVMHL6eFx/Efy3TwTcAK8gxqkCSplx1CVNK56t8Pt5LEQmB1xiTuHjpRSZIUG+jdQ756dyVjzP0fz39mTGQT8Zjh2a1fG0mS+tLRwDLy1rmfaiehXcn3HGI41gJvxdkBkqTmGSAG/K0jb127Gtip3eT+LXNSw/FdYvChJElNsCVwBtXUse/vJMFZpN8meLy4F3gLj1yZUJKkfjIAnAzcSTV1683A7E6TPamiJIfjQuCoTpOVJKmmnkbskltlnXpct0l/v+KENxEbIJwATOs2eUmSCpkOnEj1Ff8m4hFD13Ygz5rErcT9mhsaAAACaUlEQVTdxOjFo4AZKU5GkqSMZgBPBT5D3ql9E8WdwPaTJdrqCPxnA2dR9hn9KqIVdSlwHbCY2GhoGbF4wppyqUmSGmQzYC6wOVHR7jUUBwFPpuwX1o3As4BzJvuL7UzBOwV4V6cZSZKk7N4HvKeVv9hOA2AqcC5weCcZSZKkrM4jFhba0MpfbncRni2BC4DHtPnvJElSPlcTX9Dva/UfdLIK3w7EKP1dOvi3kiQprduJjfZuaecfdTKo73bgObTRypAkSVncCzydNit/6HxU/9XYCJAkqaT7iLr4mk7+cbcb8TwG+BEdbDQgSZI6dgcxRf/3nRaQYie+hcAPgf0SlCVJkiZ2DTHXv+1u/5FSLOxzB7FS3wUJypIkSeM7DziMLit/gCldpxJWAacSSxA+hTQ9C5IkKWwCPg28DFiRosAcFfVTga8B22UoW5Kkprmb2Eb4hykLzbG2/7nEeshnZyhbkqQmORM4gMSVP+Tb3OcO4BhiL+KbMh1DkqR+dTvwcqIeXZLjAKnGAIznOuDzQ8d5fAXHkySpl60BPgS8kNj9NpsqKuR1wE+JQYJTgP2BaRUcV5KkXrEW+ALwAuC7RN2ZVYnR+tsAbwTeCmxR4PiSJNXFCqLi/xDx+LwyJafrzSe6OE4Gnlg4F0mSqrIJuBj4KvBN4IESSdSl0t0deCnwfGCfwrlIkpTaJuBK4FvA/wA3lE2nPg2AkbYBjgCOJlY72rtsOpIkdeRG4CLgQuD7wG1l03mkOjYARpsH7DUqtgXmAJsT4wjmAJuVSlCS1ChrgIeAB4FlQz8vJWa+XQssHvq5SNd+q/4/p+a/wmfOOjAAAAAASUVORK5CYII=;" vertex="1" parent="1">
          <mxGeometry x="1775" y="-414" width="140" height="140" as="geometry" />
        </mxCell>
        <mxCell id="StRmfVQufm-jLz1Iqn4o-25" style="edgeStyle=orthogonalEdgeStyle;rounded=0;orthogonalLoop=1;jettySize=auto;html=1;exitX=0;exitY=0.75;exitDx=0;exitDy=0;entryX=0.96;entryY=0.7;entryDx=0;entryDy=0;entryPerimeter=0;fontFamily=Space Grotesk;fontSource=https%3A%2F%2Ffonts.googleapis.com%2Fcss%3Ffamily%3DSpace%2BGrotesk;fontSize=27;strokeWidth=6;" edge="1" parent="1" source="StRmfVQufm-jLz1Iqn4o-24" target="StRmfVQufm-jLz1Iqn4o-15">
          <mxGeometry relative="1" as="geometry" />
        </mxCell>
        <mxCell id="StRmfVQufm-jLz1Iqn4o-24" value="Webapp" style="shape=image;verticalLabelPosition=bottom;labelBackgroundColor=none;verticalAlign=top;aspect=fixed;imageAspect=0;image=data:image/png,iVBORw0KGgoAAAANSUhEUgAAAgAAAAIACAYAAAD0eNT6AAAABHNCSVQICAgIfAhkiAAAAAlwSFlzAAAN1wAADdcBQiibeAAAABl0RVh0U29mdHdhcmUAd3d3Lmlua3NjYXBlLm9yZ5vuPBoAACAASURBVHic7d15uBxVnf/x95eQyBJkl0UdVEBlD4uAigLiBgjiho4riDquuK8oIiooI5siODoyorgj4oaAPxQUFZCggqJsgwiCaARZhEAg398fVTgxyc3te6u6T3fX+/U8/dzH0HXO13u7+3y66tQ5kZmovyJiVWBP4LHA+os81gVmFSxNkkq4B7gRuGGRx8+A0zPztpKFdUkYAPojItYCngc8C9gFmFm0IEkafvcAPwROA76emTcXrmesGQBaFhErA28F3gasUrgcSRpVtwEfBY7JzDtLFzOODAAtiYjlgVcBBwPrFC5HksbFDcAhwImZeV/hWsaKAaAFEbE68HVgt9K1SNKYOhN4fmbeWrqQcWEAaCgiHgV8B9i4dC2SNOYuB/bKzCtLFzIOlitdwCiLiF2B83Hwl6RBeBRwQf3Zq4Y8AzBNEbE51W0rTvSTpMG6HdgxMy8rXcgoMwBMQ0SsDVwAPLx0LZLUUVcD23ur4PR5CWCKImIW8A0c/CWppA2BU+o7sDQNBoCpezfwhNJFSJLYlWrNFU2DlwCmICIeRHXaaXbpWiRJQLVg0IaZOa90IaPGMwBTczAO/pI0TB4IvK90EaPIMwA9ioiNgMtwTX9JGjYLgE0y8+rShYwSzwD07lU4+EvSMJpJ9RmtKfAMQI8i4graWfDnL8CPgIuAXwF3tNCmJI2SVYCtgW2BJwFrtdDm7zNzkxba6QwDQA8iYhOq0/9NnQwcmJm3tNCWJI28iFgTOB7Yt4XmHukywb3zEkBv9ml4fAIvysyXOPhL0v/JzL9l5vOBl7fQ3N4ttNEZBoDePKnh8cdn5pdaqUSSxlBm/g/w2YbN7NJCKZ1hAOjNQxocezXwjrYKkaQx9mbgjw2Ob/JZ3TkGgN6s3+DYL2bmna1VIkljKjNvB77SoIkmn9WdYwCYRETMplpoYrrmtlWLJHVAk8/MtSPC27V7ZACYXNNEaQCQpN41+cwMYN22Chl3BoDJrdTw+L+1UoUkdUPTz8yVW6miAwwAkiR1kAFAkqQOMgBIktRBBgBJkjrIACBJUgcZACRJ6iADgCRJHbR86QI0/CJiA2Ab4KHArcBVwM8zc2HRwiRJ02YA0IQiYjPgMOAZLHm26JqI+BhwQmbmwIuTJDXiJQAtVUS8ELiQan/tpb1OHg58EvhWvV+CJGmEGAC0hIh4IvB5elsGeS/gxP5WJElqmwFA/yIiHgh8GZgxhcOeFxGv6FNJkqQ+MABoce9jejsgHhYRq7VdjCSpPwwA+qeI2Bg4cJqHrw0c3GI5kqQ+MgBoUUcCsxoc//qIeHRbxUiS+scAIAAi4qlUE/qamAkc1UI5kqQ+cx0AERHLA8e01NzuEbFHZp7eUntDLyKWo7oEEqVrUXELgb+6NoZGgQFAAK8FNmmxvaMj4geZuaDFNodKRKwLvBXYHtgaWKVsRRoit0XEL4HzgY9l5rzSBUlL4yWAjouINYFDWm72kcAbWm5zaNSLJP0WeBvwRBz89a8eCOwMvBP4bUQ8q3A90lIZAPRBYPU+tHtwRKzdh3aLioh3AF8E1ihdi0bCg4BTI+JVpQuRFmcA6LCI2ALo1wfTqsCH+9R2ERGxKXBo6To0kj5Wb6olDQ0DQLcdy9RW/JuqAyJiTh/bH7QTgAeULkIjaRXg46WLkBZlAOioiHg2sGufu1mOKmSMvIhYGdipdB0aaU+OiH4GbmlKDAAdFBEPAD42oO6eGBH7Dqivftoa3y9qZiXavdtGasQPtG56K9V2voNyRESsOMD++uFRpQvQWPB1pKFhAOiYiFgfePeAu92A6pa5UXZ56QI0FnwdaWgYALrncGB2gX7fFREPKdBvW35FtcqbNF13Ab8rXYR0PwNAh0TEDsBLCnW/EvDRQn03lpl3UK3sJk3XjzLzvtJFSPczAHRERATVjPyS69W/MCIeV7D/pl4D3FO6CI2kfzD9rbalvjAAdMeLgR1KFwEcW4eRkZOZl1CtnChN1bsy8+rSRUiLMgB0QH0P+0daaOp8oOkuZ9sB+zUvpYzM/BBwAHBr6Vo0Em4GXpiZx5UuRFqcAaAb3gOs37CNO4HnAV9oXg6HRcTIbqCTmScCmwPHARcC88tWpCFzF3AB1SW3zTLzy4XrkZYq3LZ62eqlbH/ZoIkVM7PYABERD6eaedx0CduDM/OD9W2El9P8ToIjMvOdDdsYChGxPPBgys6v0HBYCNyQmfeWLmRURcRqwC0NmtgkM3/fVj3jzAAwiTEIAN8Ant2wmWup3lR31W2+GzisYZv3UH07uqphO5LGiAFgcLwEMMYiYleaD/4A77h/8K8dBVzTsM1ZwJEN25AkTZMBYEzVm44c00JTP87Mry36D5l5N+2s7Ld3RDylhXYkSVNkABhfrwK2bNjGQuBNS/sPmXkq8KOG7QMcXV9DlyQNkAFgDEXE6sChLTT12cxc1vyHNwJNVzbbjGqBHUnSABkAxtP7gbUatnEr8N5lPSEzLwU+3bAfgEMiYo0W2pEk9cgAMGYiYhPgdS00dWhm/qWH572PZjN2AdagnTMWkqQeGQDGz9FA02vqVwCf6OWJmfk34AMN+wN4dURs3kI7kqQeGADGSEQ8A3haC029JTMXTOH5n6T5Nqdt3bUgSeqBAWBMRMQsqvvzmzojM783lQPqVc/e3ELfu0XEPi20I0mahAFgfBwIbNywjWkP5Jl5JvDdhv0DHBkRTZctliRNwgAwBiLiQVST8Zo6ruESmm+hWuK3iUfQztkESdIyGADGw2HAAxu2MY+Gk/ky80rg4w3rADgoItZroR1J0gQMACMuIrYB9m+hqfdl5t9baOeDQC+3Dy7LbODwFmqRJE3AADD6jqX53/ES4DMt1EJm3gYc1EJTL42Ix7TQjiRpKQwAIywiXgDs1EJTb8zMpkv6LupEmm2hDBDAxyMiWqhHkrQYN2EZURGxInBEC019IzPPaaGdf8rMhRHxRuDHDZvaEXgRcHLzqtoXEQ8BHgNsC2xIFVrG3R3Ar4C5wC8zc37heiRNU5EAUG9V+yDgwcB6wMol6ujRBqULmMA7gIc2bGMB8KGIWK2FehZ3KfAdYK+G7XwkIr6Zmf9ooaZWRMRs4KNUmxh1YdCfyB8j4uWZeXbpQqRF7BERc6bw/ASuBi7JzKZ3MU2qXrNlDrAOcCPwJ+AvLZ+F7a2WzOxvB9VWrzsD+1B9o1uf6v/4jL52PDxWyMy722wwIh4KXA6s2Ga7Q+xDmdnGbY6N1csVfxt4eOlahkQCR2fmW0sXovFQfyFpur/IdNwNXAy8NzN/2HbjEfE0qj1P5gCzFvvP9wE3ATcA5wOnAefWi6z1TV8CQESsDDydatDfE1i99U5Gx4ptnyaNiC8DL2izzSE3H9gkM/9Qsog6uf8C2LJkHUPqBZn51dJFaPQVDAD3S+B44B2ZeWfTxuozhkcCr5riobcA36MKA2f04yxoqwGg/oB8NdWiNE23ox0XrQaAiNgJ+Elb7Y2QUzLzeSULiIhDaWfBpXE0D9isxx0kpQkNQQC430mZuV/TRiLiS8C/N2xmHtUt1p9q8zJFK3cBROX5VBvCHIuDfz8dW7qAQp4bEU8s1Xl9N8KBpfofAWtRTdiUxsXLmu5NEhHPofngD9X761jgdxHx/LbujmocACJiW+BC4CtUy7iqTyJiZ2Cb0nUU9JaCfW8ErFqw/1GwXekCpJb1tC36MrS9w+kjqMbaC+uxt5FGASAiXgich2/8QWljxb9RtmdElDq75Gt8cv6ONG4eUt/uO2X1cdM6tgfbAefVY/C0TSsA1Kf8DwO+CKzQpABNyRalCyhseWCTQn33/fagMeDvSONout+0+x2IVwC+GBGHTfeSwJQDQD2j8TTg3dPpUI2sX7qAIVDqdzC3UL+j5KLSBUh9MN2NydZttYqJvRs4rR6bp2RKAaDep/0sYO+pdqRW3FS6gCFQ5HdQ34I4r0TfI8SQpHH06wEfNx17A2fVY3TPpnoG4NPAY6d4jNrzu9IFFJbA7wv27w6FE7se+ELpIqSW3Ue19PV0/Lo+flAeSzVG96znABARbwNeOtWK1KrPlS6gsDMz888F+z8G+FnB/ofZKzPz1tJFSC37bmbeNZ0D60WEvttyPZN5aT1W96SnhYAiYg+qdd3dPXDqWlsIqJ7ocQHVBjRdsxDYNTObbjDUSEQ8HDiFbt+OuagFwEGZ+Z+lC9F4GKKFgOYBm2fmtC87RsR6wG8Z7Gq4C4G9MvP0yZ446YAeEQ8GvtzLc9VfWaW15wE3l66lgENKD/4AmXkNsANwMM56vwTY3sFfY+hu4IAmgz9AZt5ItQTwglaq6s1ywJfrsXuZJj0DEBGfAV7RUmFd1I+9AB5F9S108zbbHVILgLdn5tCtgBgRKwFb0dHtgOswJLVqCM4AzAVelpm/bavBiNgKOInq82JQ/jszX7msJywzAETEJlTbuvZz575bqTZ7GVbLA2s2OL71AAAQESsALwZeCWwNzGy7j8L+DHwNOD4zLy9djKTBaCEAzGNqk+/u3w74Qqqd+E7txy58ETETeC7VGcTtgU3p7+qi9wFbZOaEk8cnCwDfot1b/u4EzgBOpVpB8KZ+DI5tqveV/mWDJvoSABYVETOAhzIeizIlcGNm3la6EEmD10IA2CQzS94t1LP6i9w6wE7As6l20V2pxS6+nZnPnLD/iQJAy7vO3UO1veKHMvNvLbU5EKMQACRpXHQpACwuItYE3gu8FpjVUrNPyMzzlvYfljWx76CWOr8E2DQz3zxqg78kSYOSmX/LzDdTXR64pKVmJxzLlxoAImJVYLcWOv4W8PjMvLqFtiRJGnv1mPl4qjG0qd3qMX0JE50B2IPmk8rOBp6bmXc0bEeSpE6px87nUo2lTcykGtOXMFEA2Kdhh5dTDf6tz6SUJKkL6jH0uVRjahNLHdOXCAARMQvYvWFnr8nMvzdsQ5KkTqvH0tc0bGb3emz/F0s7A7ALsEqDjs7IzB81OF6SJNXqMfWMBk2sQjW2/4ulBYBHNegE4KMNj5ckSf+q6di6xNi+tACwfoMObqa9tQMkSVLlJzTbB2aJsb3tAHBGZg5y/2NJksZePbY2uQzQUwCYdAehZZhwzWFJktRIkzF2ibG97TMAf2pwrCRJmliTMbanMwDrNOig0d7JkiRpQk3G2CXG9qUFgCZb/y5scKwkSZpYkzF2ibF9WZsBSZKkMWUAkCSpgwwAkiR1kAFAkqQOMgBIktRBBgBJkjpo+dIFdMC5EZGli6jdBFxUP87OzHtKFhMR6wO7AtsCc4CVStYjaSg0uRUdYFg+b4eeAaD/ti9dwGL2rn/+JiL2z8yLShQREa8G/hOYXaJ/SWMrShcwKrwE0F2bAz+PiNcOstOImBER3wFOwMFfkooxAHTb8sDREbHlAPt8G/CMAfYnSVoKA4BmASdFRNPrbpOKiE2BD/S7H0md5hyAHhkABNUEvEGcBXg+8IAB9COpu5wD0CMDgO637Zj0IUnqgQFA99tmTPqQJPXAAKD73TwmfUiSemAA0P3mjkkfkqQeGAAE1azZXwygnwsH0IekbvMugB4ZAATwycy8fgD9nAhcMYB+JHWXdwH0yACgq4B3DqKjzLwL2A9YOIj+JEkTMwB028XAXpl556A6zMyfAy8C/j6oPiVJSzIAdNOtwKHAjpn5+0F3nplfAbYATgfuHXT/ksaacwB65G6A/fd2hmeQu3874Ksys+ibpJ5zsGdErEC1CqHbAUsCWBE4rMHxzgHokQGg/47LzPmlixhW9e/mQrxDQBIQEavRLACoR14CkCSpgwwAkiR1kAFAkqQOMgBIktRBBgBJkjrIACBJUgcZACRJ6iADgCRJHWQAkCSpgwwAkiR1kAFAkqQOMgBIktRBBgBJkjrIACBJUgcZACRJ6iADgCRJHWQAkCSpgwwAkiR1kAFAkqQOMgBIktRBy5cuQNMXEVsCewLbAnOA2WUr0oi5AbiofnwlM28rXI+kATIAjKCImAm8D3g3/g01fesAWwOvBA6KiFdm5lmFa5I0IF4CGDERMQv4MVUAcPBXW/4NODMi3lG6EEmDYQAYPe8HdixdhMbWhyNim9JFSOo/A8AIiYitgXeWrkNjbXngpIjws0Eac77JR8vewIzSRWjsbQ5sXLoISf3lNeTRsl3pAtQZ2wGX96vxiAhgQ6o7WB6JwXYU3Q1cCszNzBtLF6OpMwCMljmlC1BnzAG+2I+GI+IlwJHA2v1oX4MXEZcBB2Tm+aVrUe+8BDBaVildgDqj9ddaRKweEd8GPo+D/7jZFDgvIg4vXYh6ZwCQNCjHAXuVLkJ9MwN4V0T8R+lC1BsDgKS+i4h9gBeWrkMD8bGIeETpIjQ5A4CkQTikdAEamNmAC0qNAAOApL6KiBWBzUrXoYHyjqURYACQ1G9b4R1HXbNFvWy5hpgBQFK/rVy6AA3cTOABpYvQspnKu+NQ4Jeli9BAHQjsWroI4OLSBWjgrsjM20sXoWUzAHTHzzPzjNJFaHDqmffFZeYtEfG/gDPDu2Nu6QI0OS8BSBqET5UuQAOzEP/eI8EAIGkQjgJcJrYbjsnMn5QuQpMzAEjqu8y8D3gZcE3pWtRXPwQOKl2EemMAkDQQmXkFsCVwPJCFy1G77qSadPrkzJxfuhj1xkmAkgYmM+8AXhcRxwA74HbAo+yf2wEDP8vMmwrXoykyAEgauMy8ErgSOLl0LVJXeQlAkqQOMgBIktRBBgBJkjrIACBJUgcZACRJ6iADgCRJHWQAkCSpgwwAkiR1kAFAkqQOciVAaQIRsSKwHfBgYH1gvfrnAuBG4Ib657XAxfWGN5I0EgwA0iIiYnXgGcA+wNOBlXo8dF5EfAc4DTjLDVEkDTsvAUhARGwYEV8G/gJ8Hng2vQ/+AGsB+wPfogoDR0XEmu1XKkntMACo0yLiQRFxHPA74AW0c1ZsZeDNwNUR8Z6ImEqQkKSBMACosyJif+Bq4HXAzD50sSrwYeDKiNi5D+1L0rQZANQ5EbFcRBwJnAjMHkCX6wM/iIhXDqAvSeqJAUCdEhEPBL4LvGXAXc8EPh0Rx0bEjAH3LUlL8C4AdUZ9Lf5HwDYFyzgQWBt4YcEahkpEzMIvI6Po3sy8t3QRmj4DgDohIgI4ibKD//3+PSIuy8wPlS6khHp9hdcCjwW2BR5WtCBN130R8XtgLvCDzDy5dEGaGgOAuuL9wHNLF7GIQyPit5n5zdKFDFJE7EgVxB5ZuhY1NgPYrH68NCJeArw8M/9Utiz1ytNuGnsR8Uzg4NJ1LCaAL0TEJqULGZT673AeDv7j6qnAJRGxQelC1BsDgMZaRDwAOIZqwB02KwNHlS5iECJiLeDTVN8aNb7WAD5XX3LTkDMAaNy9nuG+xvz0iNitdBEDcCTwoNJFaCB2AV5dughNzgCgsVWv639Q6Tp6cEQHvjHtWboADZR/7xFgANA4eyuweukierAN8JzSRfRLRDwMcF+Ebtm2dAGanAFA4+wFLbZ1L/BrqtUDvwxcAWSL7bdZ67DZtHQBGrh1I2KN0kVo2bwNUGMpIjYFNmyhqZuBNwKnLL7Fb72q4OupbjGc1bCfp0XEAzLz7obtDKNrSheggbsVuKV0EVo2zwBoXD2zhTbOALbIzJMXH/wBMvO2zDwM2B64tGFfs4EnNWxjWF0O3FG6CA3UxZnZ5hky9YEBQONq74bHXwTslZk3TPbEzPw1sBvw14Z9Nq15KGXmQqr7/9Ud55YuQJMzAGhcbdXg2PnAS6eyznlm/hX4jwZ9AsxpePwwexNwV+kiNBCXA0eULkKTMwBo7ETEasCKDZr4WGb+bqoH1cv6frdBv+s1OHaoZeblwHtK16G+u5cqPBv2RoABQONo/YbHn1Po2PXGeT2AzDwGOIBqgpjGz1XALpl5YelC1BsDgMZR0wAwt9Cxs6iWUh1bmXkisDnw38BvgfvKVqSG5gMXAocBW2XmTwvXoynwNkCNo7UbHHtDZv69wfG/bXAsVMvl/q1hG0MtM68HXgkQESsDj8A9AkbR3cCVU5kro+FiANA4anL/8ToRsWKDa5gPa9A3dOze6cz8B81voZQ0DV4C0Di6scGxM2h2B0GTJVDvA/7S4HhJ6pkBQONo0nv3J7FDoWNvqu+Zl6S+MwBoHM0DFjQ4/l0RMeXNayJiDvCiBv02DS6S1DMDgMZOvQTpFQ2aWBc4fioHRMQs4PPAzAb9Xt7gWEmaEgOAxlWTBXkA9o2ID0XEpAN6RKwKfAHYomGfTWuWpJ4ZADSuvtVCGwcBF0TElhM9ISJ2p7r1b9+GfS0Avt+wDUnqmbcBalxdANwErNOwna2BiyPid1SL/MylWmZ42/rRxpbDAOdkpivkSRoYA4DGUmYujIjTaL5BD1S3Bm5eP17WQntLc2qf2pWkpfISgMbZR4F7ShfRg+uAz5UuQlK3GAA0tjLzGqY4m7+Q92Xm/NJFSOoWA4DG3YcY7t3nLqW6g0CSBsoAoLGWmX+jCgHDKIG3uvqfpBIMAOqCIxnOSXaHZOYPShchqZsMABp79cqALwV+VbqWRXwN+GDpIiR1lwFAnVBvO/tMqrUBSrsY2K8OJpJUhAFAnZGZfwSeBFxdsIyfAE/PzLsK1iBJLgSkbsnMyyJie6pT8LsNuPtPA6/PzCY7FY6FiFieamGlxwCPplpsSaPlbuDXwIWZeVXpYjR1BgB1TmbeHBFPB44C3jCALhcAb87MTw6gr6EXEa8E/hNYtXQtakdEXA0ckJnnlq5FvfMSgDopM+/NzAOBnYCf97GrU4HNHPwhItaMiDOpzoQ4+I+XDYEfRcTRERGli1FvDADqtMz8aWY+DngucGWLTf8MeFxmPicz22x3lP0X8NTSRahvAngTcGDpQtQbA4AEZOY3gE2BJwOfAK6dRjOXUi069JjMfHxm9vPMwkiJiH8HnlO6Dg3E4RHx6NJFaHLOAZBqmXkvcHb9ODAitgKeCDwYWB9Yr/65ALgRuKH++UfgB/XeA1q6g0oXoIFZEXgb8IrShWjZDADSBDLz11SznNVARKxMNdNf3bFt6QI0OQOAJhURs4AVgPuAhYv+dDEb9WAO3ubXNZtHxArucjncDAAC/jnIPwLYCNh4kcdGwL8xwXyRiPg7cPlij98Dv3OTG9VmlS5AA7cchr6hZwDosIjYGHh2/diW6b1hVwN2qB+L+ktEnA58FzgrM29vUqtG2sVUOx96e1h3XF4vv60hZgDomIjYkv8b9LfoY1cPAvarH/dExLnAycBXMvOePvarIZOZt9YLxWxUuhYNzNzSBWhy3gbYHa+LiKuoJrW9n/4O/oubBTwFOAm4NiIOjoi1B9i/yvtE6QI0MPcBnV/4ahQYALrjGVSrdZW2LvAB4LqI+GxEPLR0QRqITwAuE9sNH83M80sXockZAFTKA4CXA5dFxBsjwtfiGKvvFnkZ8JvStaivTgMOKV2EeuOHrkqbDRwDXBARW5cuRv2TmddSTTY9DLi3cDlq19+Bl2bms9ztcnQ4CVDDYjvgFxFxDPB+ZxCPp3oC6EER8QlgR9wOeJT9cztgqi2Bbytcj6bIAKBhMgN4K/DciHhtZp5euiD1R2b+mep08Wmla5G6yksAGkYbAN+LiK9GxLqli5GkcWQA0DDbF7gkInYpXYgkjRsDgIbd2sAPIuJNpQuRpHFiANAoWB44OiK+GBErli5GksaBkwA1Sl4IbBoRz87Ma0oXM0gRsQ6wC9ViTqsv8pgJ3AbcXv+8DbgOuAJYuUGX7vIojTkDgEbNHOCiiHhBZv6gdDH9EhFrUg34u9aPTQddwoD7kzRgBgAtzS3AT6i29r2mfvyB6r7f5RZ5PBjYhGpw2gx4LIPZ+nUN4PsRcVBmfnQA/Q1ERKwFvBHYC9gSB2FJfWQAEFSne88FzgTOBuZm5sIejrsc+OH9/yMiVqUavJ4DPB1Yof1S/2kG8JGI2BbYf5QXDqoH/rcBr6NaGVGS+s4A0G03AicCn23jmnpm3kq15e/J9aD2+vqxZtO2l+F5wKMjYp/M/N8+9tM6B35JJXkXQDf9mupb+r9l5nv7MaEuM+dl5iHAvwFvppqc1i9bUC0j/NQ+9tGaiJgZEe+lurTyThz8JRVgAOiWq4EXAVtn5qmZ2fcNWTLzzsw8hmqOwPf62NUawOkR8fY+9tFYRMyhWjv9gzjwSyrIANAdhwObZOaX6q1ZByozr8/MZwAvBv7Wp25mAEdExJcjYqU+9TEtETErIg4FfkF1J4MkFWUA6I4fD8M2nZn5Raq7Br7ex25eQHWr4I597KNnEbE9MBd4H867kTQkDAAauMz8S2buCzwbmNenbjYBfhoRR5U6GxARD4yI44CfA5uXqEGSJmIAUDGZ+U1gW+DiPnWxHNUExIFvKBQR+wK/p5rh7/tM0tDxg0lFZeYfgccDX+hjNxsCP4yIEyJilT72Q0Q8PCK+D3wVWK+ffUlSE16PVHGZOR94aUTMBT5Gf16XAbwa2CciPgecmJlXttZ4xAOAt1Bd53fDoimoQ9mM0nVoyu7JzDtLF6HpMwBoaGTmsRHxa+BrVNsA98O6wLuAd0XEeVQLIX1tuisJ1hP89qOaeLh6W0WOs3rAP5Bq6ehtqf4mGkERcTXVBNf/R7WgWC8riGpIGAA0VDLznHp53/vnB/TTTvXj4xHxNap1Ci4HrsrMuxd/ckTMpprMt2X9eBLVZEP1KCJ2Az4LbFC6FrViw/qxL9VZvP0y8+rCNalHBgANncy8LiJ2Ak6g+nbdb7OBl9cPgIURcT0wn//b+OgBwPqU36BnAXAR1Xa/y1HVc3+Na1IFk3WKVbcMEfHvwBcp/ztUf+wE/Coits3MK0oXo8kZADSU6nkB+0fEhcCxVPveD8pyVEsYD4vrqAbOc4DzJrtcERHrAFsBh1CdZi8uItYDPomD/7ibDXw+Ih6fmfeVmy93eQAAFWJJREFULkbL5l0AGmqZeQKwC9XGRV1zA9VmShtl5rsz88xe5ipk5k2ZeRbVWYJhcQzOkeiKHajmeGjIGQA09DLzZ1TzAX5aupYBuYPqjoINM/OTmXlP6YJaMBIbNak1/r1HgAFAIyEzbwR2pTqNPM7OAbbIzKPryyAjLyI2BFYrXYcGqt8TeNUCA4BGRmYuyMzXU00MnNZte0PsTqrTpk/KzD8UrqVtjy5dgAZu7YhYs3QRWjYDgEZOZp5EtaHQd0vX0pKfAltl5idK7NQ4AK0tuKSRcXNm9mvXT7XEAKCRlJl/zMy9gOcxuhME5wNvBZ6YmVeVLqaPrgRuK12EBqpf+3uoRQYAjbTMPIXqFPPxwCitQnY+MCczjxr31dPqsxrnlK5DA3V26QI0OQOARl5m3paZr6PaVOjS0vVM4npgf+DxmXl56WIG6E1Udzdo/P0GOKp0EZqcAUBjIzPPB7YB3g3cVbicxd1KVdfGmfm5cf/Wv7jMvAZ4Z+k61HcLgJeOya2rY88AoLGSmfdm5keARwAfBP5auKQ7qBbB2TAzPzIut/ZNR2YeD7wIuLl0LeqLy4DHZeYvSxei3hgANJYy88+ZeTDVkr6voDotObDugR8CLwPWzcw3OyO6kplfAjYDjqPaRc5viqPtduDHwMHANpl5UeF6NAXuBaCxVn/j/izw2XqXwT2BPYDH0H4Avgo4Cfh8Zv6x5bbHRmb+GXgDQETMotoZcEbRojQddwPXdu1y1jgxAKgzMnMu1bfOQyNibWB34AnAxsBG9L7b33zgd1QTDn9T/7w0M//Uj7rHWX2t2HUCpAIMAOqkzPwr8Pn6AUBErEi1t/kjqLb/XQjct8jPe4E/AFe505mkUWcAkGqZeRfVN/pBzheQpCKcBChJUgcZACRJ6iADgCRJHWQAkCSpgwwAkiR1kAFAkqQOMgBIktRBBgBJkjrIACBJUgcZACRJ6iADgCRJHWQAkCSpgwwAkiR1kAFAkqQOcjvg7nhDROxTuggN1GNLFzCRiJgNzAG2AzYGZpStqDULgauBucDFmXlb4XqkCRkAumOP0gVIETEDeAtwKLBC4XL6bUFEfAg4LDPvLV2MtDgvAUgaiIhYDzgPOILxH/wBZgIfAM6PiIeWLkZanAFA0qB8BtixdBEFbAv8T0RE6UKkRRkAJPVdROwH7Fm6joJ2A15VughpUQYASYPwjtIFDIF3li5AWpQBQFJf1TP+H1W6jiHw8IhYo3QR0v0MAJL6bQ5+1txvm9IFSPfzTTlabixdgDqjzdfauNzj3wZ/FxoaBoDRMrd0AeqMi1ps62IgW2xvlPke1tAwAIyWNj+UpWVpbaDKzNuBK9pqb4Rdm5nzShch3c8AMFpOBv5SugiNvS9l5p9bbvPIltsbRf4ONFQMACOk/vbwmtJ1aKz9GXhD241m5meAs9pud4ScCxxXughpUQaAEZOZpwKHUW06IrXpL8ALM/PmPrV/ANV8gK65FNgvM50HoaFiABhBmXkQsDPVrmNSG74KbJaZP+pXB5l5PbADcDBwT7/6GSL3AYcD22XmHwrXIi3B3QBHVGaeFxGbAJtTrTU+B5hdtiqNmBuoJpZelJl/HESH9a54H4yI46het9sCj2R8bo9bdDvgi5z0p2FmABhhmbkA+GX9kEZGZt4C/L/6IakALwFIktRBBgBJkjrIACBJUgcZACRJ6iADgCRJHWQAkCSpgwwAkiR1kAFAkqQOMgBIktRBBgBJkjrIACBJUgcZACRJ6iADgCRJHWQAkCSpg9reDnjLiJjfcpulbdTw+CdGxD2tVCJJ4292w+O3j4h1W6lk+GzZZmORmf/6DxF/B1ZtsxNJklTUrZm52qL/4CUASZI6yAAgSVIHGQAkSeogA4AkSR1kAJAkqYMMAJIkdZABQJKkDjIASJLUQQYASZI6yAAgSVIHGQAkSeogA4AkSR1kAJAkqYPa3g54AbCw5TYlSVL1pX1mW421HQD2zswzWm5TkqTOi4inA99vqz0vAUiS1EEGAEmSOsgAIElSBxkAJEnqIAOAJEkdZACQJKmDDACSJHWQAUCSpA4yAEiS1EEGAEmSOsgAIElSBxkAJEnqIAOAJEkdZACQJKmD2t4OWNKQi4gAtgOeBmwArA+sV/+cCdywyON64IfATzLz3iIFS+oLA4DUAfWg/2RgH+CZwIOX8fQ1gM0X+d/vBW6OiO8BpwHfy8y7+1WrpMHwEoA05iLiKcDFwFnAa1n24D+RNYCXAN8Afh8RL6pDhaQRZQCQxlREzImIs6gG/jktNv0w4GRgbkQ8ucV2JQ2QAUAaQxHxJuAi4Cl97GZr4AcRcWxEzOhjP5L6wAAgjZGImBUR/w0cDQxqUD4Q+H5ErDag/iS1wAAgjYmIWBM4GzigQPdPAS6IiI0K9C1pGgwA0hiIiJnAN4GdCpbxSOCMiFijYA2SemQAkMbD8cATShcBbAicEhHeYiwNOQOANOIi4kDgFaXrWMSuwMdLFyFp2QwA0giLiC2Ao0rXsRSviYhnly5C0sQMANJo+yiDm+0/VR/xUoA0vAwA0oiKiCcBu5euYxk2Bl5VughJS2cAkEZQvQzvEaXr6MHBETG7dBGSlmQAkEbTzsC2pYvowTrAi0sXIWlJXp+TRtM+LbWTwC8WedwFPKZ+PBaY1UIf+wCfaqEdSS0yAEij6ZkttPEH4OWZ+aPF/v1rABGxGfA/VGGgiV0j4oGZeVvDdiS1yEsA0oiJiK2oduRr4lRgi6UM/v+Umb+lOgvwkYZ9zWK4JytKnWQAkEbPUxsefy2wX2beMdkTM/M+4D3AuQ37bFqzpJYZAKTRs0GDYxPYPzNv7/mAzAT2B/7RoN8mNUvqAwOANHrWb3Dsr5Z12n8imXkN8K0G/TapWVIfGACk0dNkML24wbG/aHCsAUAaMgYAafSUCgAXNTh21YhYqcHxklpmAJBGTzQ49r4Gx97b4FhoVreklhkApNFzQ4Njt2lwbJP1AG7LzCaTCCW1zAAgjZ5RDABNapbUBwYAafQ0GUy3jogdp3pQRDwY2KtBvwYAacgYAKTRc12DY2cAJ0XEilM87jPAag36bVKzpD4wAEij5/81PP6RwKcioqeNfiLiXTRfyrdpzZJaZgCQRs9c4PqGbbwUuCgi5kz0hIh4aEScBRzesK97ge81bENSy9wNUBoxmZkR8W3gtQ2b2gK4MCLOoAoVFwPzqSYKbgM8HXhgwz4AfpyZt7TQjqQWGQCk0XQazQMAwEyqyX1NJvhN5rQ+ti1pmrwEII2ms4HflC6iBzcDXyhdhKQlGQCkEZSZC4F3lq6jBx/OzL+XLkLSkgwA0ojKzNOBc0rXsQzXAp8sXYSkpTMASKPtHUCWLmICB2Xm3aWLkLR0BgBphGXmL4D3la5jKU7OzC+WLkLSxAwA0ojLzA8DXyldxyIuAF5ZughJy2YAkMbDy4GLShcB/Al4VmbOL12IpGUzAEhjIDPvAvYGflmwjOuA3TPzxoI1SOqRAUAaE/XAuxNwSoHufw48JjMvLdC3pGkwAEhjJDPvBPYFPsDg7g44Cdg1M28aUH+SWmAAkMZMVg4BdgEu7GNXVwHPy8z9vN1PGj0GAGlMZeaPM3MHqjMCV7XY9F+A1wObZmaJyw2SWmAAkMZcZn4d2JQqCHwJuHUazdwFfAc4ANgoMz+ZmQvaq1LSoLkboNQB9WD9deDrETGT6vLA04ANgPWB9eqfM4A/AzfUj+uBHwJn1vMLJI0JA4DUMXUY+EH9+BcREZk5rEsLS2rR0i4B3NugvRkNjpVUmIO/NNSajLFLjO1LCwBNbuVZp8GxkiRpYk3G2CXG9qUFgBsadLB+g2MlSdLEmoyxS4ztbQeATRocK0mSJtZkjO17ANg9IpxYKElSi+qxdfcGTfQ9AKwO7NzgeEmStKSdqcbY6eopAFzeoAOAdzU8XpIk/aumY+sSY3ssftdPRMwC5gGrNOjoqZm5xD3GkiRpaiLiKcBZDZq4HVgrM+9Z9B+XOANQP+H7DToCOCEi1mjYhiRJnVaPpSc0bOb7iw/+MPFeAKc17GxD4BQnBEqSND31GHoK1ZjaxFLH9CUuAdSdrgr8FZjZsNNvAS/OzDsatiNJUmdExGzgZOCZDZtaAKydmUtsArbUMwD1E89u2ClUhf80IpqmF0mSOqEeM39K88Ef4OylDf6w7O2AP9RCxwBbApdFxNERsWZLbUqSNFYiYs2IOBq4jGrsbMOEY/lSLwEsUsw3gX1aKgLgTqodyL5FlW5u8PKAJKmL6tP86wOPp/q2/xRgpRa7OC0znzVh/5MEgEcDl9LfbYNvpwoGo2ghcCUwFzgfOCUzFw6ygIjYGtgD2A7YinZfPJKk/liJZrfbT+ZeYIvM/P1ET1hmAACIiE8B/9FyYePq58DLMvPKfncUESsAhwJvZdmXciRJ3fNfmfnqZT2hlwCwLtX1iCZLEHbJXcDumXluvzqIiJWpwsYW/epDkjSybgE2zcw/L+tJk35zrBt4PnBfS4WNuxWB/6mv7fTL4Tj4S5KWdB/w/MkGf+jx1HG9rO/bm1bVIQ8HPtyPhiPi8cDr+9G2JGnkvb3Xpfh7vnacmUcDn5tuRR30vD61+xwg+tS2JGl0fa4eq3sy1cljr6a69qzJrRcR6/Wh3W370KYkabT9nGqM7tmUAkBm3g08Ffj2VI7rsK1GpE1J0uj6NtUuvHdP5aAp3z5WL9yzD9VENC3bjSPSpiRpNB0O7DOdRfWmdf94Vt4DvAiYP502OmA+8Ns+tHtRH9qUJI2W+cCLMvM9Odn9/BNotIBMZn4J2AkHpaW5MDPv7UO7P+tDm5Kk0XERsFM9Bk/bpAsB9dRIRAD7AocBj2jc4Oi7F3hsZrYejCJiFvAL2tsoQpI0Gv4XeA/wtel+619UK0vI1pcEvgpsArwRmNdGuyPsiH4M/gCZeQ+wP1XIkCSNv3lUY+smmfnVNgZ/aOkMwBKNVkvVPg3YG9gTWKv1TobTvcBHgQ9k5oJ+dhQRTwP+G3hIP/uRJBUxD/ge1Qz/MzPzH2130JcA8C8dRMwAHkcVBnak2vpwfWCFvnY8WHdQnZZ/Z2b+YlCdRsSqVDNA98IgIEmjaj5wQ/04n2rQ/1lm9nUJ/r4HgAk7jlgdeDCwHrBykSKau3874MsHvQ3w4iJiHdwOeLqeBLxhmsf+CZdmLuU4qs+Q6fgE8MMWa5Gm6h9Ut3X/KTNvKVHA8iU6Baj/D98C/KZUDeMkM28CzipdxyiKiNUaHH5HZp7WWjHqWUR8pMHhF/t3U9e5j7wkSR1kAJAkqYMMAJIkdZABQJKkDjIASJLUQQYASZI6yAAgSVIHGQAkSeogA4AkSR1kAJAkqYMMAJIkdZABQJKkDjIASJLUQQYASZI6yAAgSVIHGQAkSeogA4AkSR1kAJAkqYMMAJIkdZABQJKkDjIASJLUQQYASZI6yAAgSVIHGQAkSeogA4AkSR1kAJAkqYMMAJIkdZABQJKkDjIASJLUQQYASZI6yAAgSVIHGQAkSeogA4AkSR1kAJAkqYMMAJIkdZABQJKkDjIASJLUQQYASZI6aPnSBUglREQA6wD/BmzdoKlVI2K/VorSVK3a4NitI+Iy4I/ATZmZLdUkjYzwda9xFhEzgF2AnYENgIdSDfoPBWaVq0xD5B7gOqowcB1wLXAucE5m3leyMKmfDAAaOxExE9gNeC7wTGCtshVpRM0DvgWcApydmQsK1yO1ygCgsRARywF7UA36ewOrl61IY+YW4NtUYeD0zFxYuB6pMQOARl5E7AYcCWxVuhZ1wq+Bt2bm2aULkZowAGhkRcSmwH9SffOXBu104O2ZeVnpQqTp8DZAjZyIeFBEnABcgoO/ytkDuCQiToiIB5UuRpoqzwBopETEy4BPAKuUrkVaxO3AGzLzpNKFSL3yDIBGQlQ+AnwOB38Nn1WAz0XE4fUaE9LQ8wyAhl5ErAx8AXhW6VqkHnwTeElm/qN0IdKyGAA01CLiIVS3XzVZrU8atF8Ce2fm9aULkSbiJQANrYjYDrgQB3+Nnq2BC+vXsDSUPAOgoRQRG1MN/quVrkVq4O/A9pl5ZelCpMV5BkBDJyJWAU7DwV+jbzXgtPo1LQ0VA4CGSj2D+mRg09K1SC3ZFDjZuwM0bLwEoKESER8ADh5glwupNn25ZYB9qrzVqTaJGuSXoEMz8/0D7E9aJgOAhkZEPJtqs5V+fVOaB5wH/KT++Qdgnhu7dFO9gdRawMOAnYAn1D/7tXtkAs/NzFP71L40JQYADYWI2BD4FTC75aYTOBM4Hvieg72WpQ4FewKvBZ5G+2H0DmBOZl7dcrvSlDkHQMPicNof/L8ObJSZu2fmdxz8NZnMXFi/VnYHNqJ6DbVpNtVrXSrOMwAqLiK2By5oscmrgNdn5pkttqmOioinAcdRBYK27JCZF7bYnjRlngHQMDiixba+Cmzp4K+21K+lLaleW21p8zUvTYsBQEVFxB7Azi00lcD7M/MFmXlXC+1J/5SZd2XmC4D3U73Wmtq5fu1LxXgJQMXUE65+BWzRQnMHZOaJLbQjLVNEvBz4bAtNXUo1IdC5KSrCMwAq6SW0M/i/18Ffg1K/1t7bQlNbUL0HpCIMACrpFS208enM/HAL7Ug9q19zn26hqTbeA9K0eAlARUTEWsBNNAuhl1OdQp3fTlVS7yJiBapLWI9q0MxCYJ3MnNdOVVLvPAOgUp5Bs9dfAq9w8Fcp9WvvFTSbFLgc1XtBGjgDgEp5ZsPjP52Z57VSiTRN9Wuw6aWApu8FaVq8BKCBq0+dzgNWnmYT9wEbZua17VUlTU9EbABcDcyYZhP/ANbybJYGzTMAKuHJTH/wBzjVwV/Don4tNtngZ2Wq94Q0UMuXLkCdtHfD438SETu2UonUjp8Az2tw/N7Ad1uqReqJAUAlbNnw+I+3UoU0PJq+J6Qp8xKASlivdAHSkPE9oYFzEqAGKiICmA/MKl2LNETuAVZIP5A1QJ4B0KCtiYO/tLhZVO8NaWAMABq09UsXIA0p3xsaKAOABs0POWnpfG9ooAwAGjQnO0lL53tDA2UA0KA1WQBIGme+NzRQBgAN2iWlC5CGlO8NDZS3AWqgImIV4O8YPqVFLQRWy8zbSxei7vBDWANVf8CdU7oOacic4+CvQfMMgAYuIh5BdbrTa55StRvglpn5v6ULUbd4BkADV3/Qval0HdKQeJODv0rwDICKiYinAJ8FHlq6FqmA64ADMvMHpQtRNxkAVFREPBD4D2B7YFvg4WUrkvrqGmAucCHwX5l5W+F61GH/H0jyjrlTs4YeAAAAAElFTkSuQmCC;fontFamily=Space Grotesk;fontSource=https%3A%2F%2Ffonts.googleapis.com%2Fcss%3Ffamily%3DSpace%2BGrotesk;fontSize=27;fontStyle=1" vertex="1" parent="1">
          <mxGeometry x="1559" y="-723.33" width="172" height="172" as="geometry" />
        </mxCell>
      </root>
    </mxGraphModel>
  </diagram>
</mxfile>
